<svg width="269" height="385" viewBox="0 0 269 385" fill="none" xmlns="http://www.w3.org/2000/svg">
<path d="M186.451 172.627C186.41 179.774 203.506 199.642 207.274 204.649C214.485 214.219 222.223 228.958 228.137 239.78C228.137 239.78 229.231 241.718 230.325 244.545C234.417 254.963 233.282 263.847 227.57 273.659C222.952 296.919 211.122 345.375 211.122 345.375C209.947 349.534 209.542 353.653 212.176 355.834C214.444 357.732 218.739 359.953 222.587 361.77C226.395 363.587 239.967 369.482 244.342 372.834C247.016 374.893 247.745 378.568 246.854 380.426C245.355 383.454 243.491 384.787 237.455 384.141C225.18 383.05 190.259 376.509 190.056 376.468C183.777 375.136 180.293 370.169 180.212 362.658C180.171 357.288 185.762 351.069 187.585 346.062C192.608 332.534 186.167 297.928 193.783 281.049C196.903 274.184 200.711 268.127 201.805 260.414C202.048 258.436 201.116 257.224 200.022 255.771C194.431 248.381 187.544 241.961 182.561 234.086C179.159 228.716 176.12 221.447 168.95 220.478C162.103 219.509 157.282 217.409 150.355 219.549C148.208 220.195 146.263 221.326 145.088 223.224C134.231 240.668 110.856 268.733 95.6638 270.065C85.5764 270.913 81.6467 277.819 73.7064 281.453C67.9538 284.077 54.7874 290.861 52.5998 292.517C50.2096 294.294 38.7853 300.311 35.1797 303.379C30.8855 309.921 28.9004 315.09 22.9857 329.586C15.2074 351.634 14.3162 357.812 7.30766 356.722C4.51235 356.116 -0.308551 353.128 0.0155433 347.839C0.258614 344.527 2.9729 308.952 5.24156 300.472C7.83432 294.092 12.6957 294.052 19.2181 289.69C27.361 283.391 33.8023 276.526 37.5294 272.125C41.4186 267.521 46.1179 262.474 49.764 259.445C57.0561 253.388 68.2374 249.229 72.8962 248.502C82.3354 247.049 88.1286 241.88 92.0988 233.521C93.7597 230.048 103.361 217.53 107.169 213.573C110.896 209.656 113.854 208 122.807 195.523C131.476 183.489 134.15 175.696 134.798 169.599C135.446 163.42 133.38 148.803 126.291 140.605C121.753 135.315 113.692 130.308 107.088 127.885C107.088 127.885 83.3077 117.508 76.8663 114.923C68.764 111.652 63.4975 108.705 60.5806 105.959C57.9879 103.536 57.0561 97.5999 56.813 94.0868C56.813 94.0868 53.5721 62.6303 53.0049 59.1576C52.5998 56.6136 49.5614 53.0197 47.6979 51.1622L42.9175 46.7204C41.2565 45.1455 39.474 43.5707 38.0966 41.7535C36.6787 39.4922 36.3951 36.9886 37.0433 35.2926L38.6638 29.3971C39.393 26.8531 40.0817 20.2711 43.8088 20.2711C46.4825 8.68183 56.732 0 69.0476 0C83.1052 0 94.5295 11.3469 94.5295 25.359C94.5295 39.3711 83.1457 50.7584 69.0476 50.7584C68.1158 57.2597 68.1968 57.502 70.3035 61.6612C73.6254 68.2836 75.2054 78.4595 77.1094 85.728C79.4591 94.6925 79.9047 94.2887 88.9793 96.8327C95.6638 98.7306 104.009 100.305 110.856 101.517C116.082 102.446 134.96 100.588 137.512 99.6189C137.512 99.6189 140.753 99.2555 141.928 95.2578C142.657 91.7447 139.862 88.9988 138.282 87.3836C130.018 80.0343 126.169 73.5331 125.075 65.6992C121.996 43.6514 137.31 36.3425 144.805 35.7772C153.96 35.3734 160.888 39.8557 165.668 48.1337C166.114 48.7394 166.519 49.547 166.883 50.4758C168.261 53.4235 169.031 55.2003 169.638 58.0673C169.638 58.0673 168.869 61.0151 167.937 62.913C168.828 64.0436 171.056 69.5354 171.178 71.3929C171.178 71.9582 167.329 88.1105 167.289 88.5547C167.289 88.5547 163.399 90.9775 160.807 91.5428C159.753 91.7447 165.749 95.6616 168.504 95.9847L228.907 104.465C228.907 104.465 230.568 104.707 232.553 105.313C239.116 107.372 241.547 111.935 242.883 118.315C242.883 118.315 245.881 131.479 247.542 137.617L251.999 154.012C257.225 172.789 255.28 167.458 266.542 181.107C268.933 184.014 270.148 188.577 264.719 188.052C263.545 187.972 262.005 187.528 260.506 187.285C254.065 186.397 250.014 176.1 242.073 177.755C240.21 178.159 238.346 178.603 236.402 178.361L233.282 177.998C231.338 177.715 227.408 177.271 227.975 174.323C228.866 172.829 231.216 170.608 233.768 167.943C234.7 166.974 238.589 162.855 238.954 161.603C239.44 159.988 231.864 149.287 231.014 147.914C228.461 143.634 226.962 138.505 225.301 133.821C223.802 129.743 222.79 128.37 218.293 127.28C214.647 126.957 194.148 124.615 192.122 125.745C190.664 126.512 190.38 127.441 190.137 129.379C189.975 130.389 189.449 133.539 188.922 138.586C187.747 149.166 186.572 165.359 186.289 172.264V172.627H186.451Z" fill="#223CC1"/>
<path d="M22.4152 306.367C25.2105 308.265 28.8565 307.983 28.8565 307.983C27.6412 308.346 24.4002 309.194 22.0911 308.508C16.9461 306.933 15.4066 302.854 15.4066 302.854C15.4066 302.854 14.0292 303.541 13.2595 305.277C12.4898 307.054 12.2467 311.657 12.0037 314.121C11.8011 316.18 8.51964 342.185 8.3981 345.779C8.31708 348.606 8.3981 350.826 9.24885 351.674C7.26378 351.351 4.2659 348.969 5.03563 342.104C5.48125 338.147 8.84373 306.408 9.24885 304.147C9.81601 300.714 11.0719 299.503 12.5708 298.534C15.1231 296.838 16.7435 295.949 16.7435 295.949C16.7435 295.949 17.8779 303.218 22.4557 306.327M161.289 48.6181C157.198 42.5206 151.931 39.5728 145.206 39.8555C139.454 40.2997 126.611 45.9933 129.285 65.0933C130.217 71.635 135.119 79.5496 142.897 86.4547L143.464 71.9177L139.697 69.8179C139.697 69.8179 135.483 67.3547 135.524 63.9223C135.564 56.3711 141.884 58.9555 141.884 58.9555L147.191 61.3783L149.865 52.8984L142.492 47.447L161.33 48.6584L161.289 48.6181ZM159.264 59.8842L165.786 70.1813L158.818 72.16C159.061 71.635 159.264 59.8439 159.264 59.8439M52.3128 262.312C45.8715 267.683 40.6455 274.588 35.0143 280.766C32.4621 283.593 23.9951 290.417 20.7947 292.436C20.7947 292.436 20.6327 299.099 24.4002 302.814C27.6412 306.044 30.558 306.044 31.8544 305.842C30.8416 305.681 28.897 304.995 26.1828 302.006C22.9013 298.412 25.0484 293.648 25.0484 293.648C28.2489 291.629 33.5964 288.519 37.8096 284.723C44.0079 279.111 46.3981 275.194 52.88 269.863C54.784 268.289 55.2702 267.117 57.1337 266.027C59.2809 273.74 64.6284 273.336 71.6369 278.303C64.0207 272.407 60.2531 266.471 57.9845 258.315C56.1209 259.405 54.2574 260.697 52.3534 262.272M254.993 174.404C256.087 175.211 259.814 179.532 262.447 182.076C259.652 183.247 253.008 177.553 251.428 176.423C243.812 170.81 242.434 175.332 237.046 174.565L233.886 174.161C235.507 171.779 241.908 165.56 242.759 162.653C243.933 158.534 236.317 149.085 234.454 145.935C232.023 141.857 230.605 136.89 229.025 132.448C227.567 128.491 226.675 126.472 222.462 124.574C220.72 123.807 219.059 123.443 219.059 123.443C219.059 123.443 216.426 123.04 212.294 122.636L214.319 106.16L219.545 106.887L218.006 119.163C222.098 119.607 224.69 120.455 226.432 121.263C230.686 123.161 231.172 126.472 232.631 130.429C234.211 134.871 235.628 139.797 238.059 143.916C239.923 147.066 248.633 157.565 246.85 162.209C245.797 165.035 243.731 168.468 241.381 170.769L244.379 170.648C246.486 170.406 247.377 170.043 248.228 170.083C249.402 170.204 250.577 171.133 255.034 174.404M95.7009 235.055C91.0826 244.787 85.4514 248.421 79.1721 250.683L75.4855 251.854C71.1103 253.146 66.4514 254.196 61.5495 256.497C62.6028 260.495 64.1423 264.937 66.2084 267.804C68.477 270.954 71.88 273.861 75.1209 276.243C71.7585 272.448 68.2745 264.654 67.7073 260.091C72.6092 257.83 84.4792 254.559 84.4792 254.559C90.799 252.298 95.8224 247.896 100.481 238.165C101.737 235.54 107.328 228.11 111.541 223.264C119.238 225.202 122.682 226.575 130.46 231.663C123.776 223.587 118.387 220.438 108.908 217.449C104.695 222.255 97.0378 232.431 95.7819 235.055M205.366 298.009C209.377 298.614 213.509 298.372 217.52 298.816C213.185 300.149 207.635 302.37 198.601 300.108C197.75 327.971 199.533 344.204 194.347 351.755C194.874 352.159 198.479 359.104 207.513 355.834C202.085 359.67 195.724 357.812 190.782 354.501C189.891 353.895 188.999 353.128 188.473 352.684C190.296 349.332 191.187 348.484 192.281 343.679C195.157 331.282 192.564 315.009 194.306 295.142C198.115 296.353 201.437 297.403 205.366 298.009ZM189.648 237.317C194.185 242.768 200.424 249.31 204.11 254.882C205.366 256.74 205.974 258.718 205.65 260.98C205.366 263.12 204.84 265.139 204.232 267.077L202.936 270.631C199.573 278.141 196.656 282.785 194.874 291.023C197.75 291.911 201.234 293.526 206.055 294.294C210.754 295.061 214.765 294.94 217.925 295.222C211.402 294.496 203.867 291.346 201.477 286.823C204.151 279.635 206.338 276.163 209.093 269.258C210.471 265.139 210.916 262.272 210.997 259.889C211.078 257.628 209.904 255.044 208.648 253.227C204.921 247.654 200.667 242.122 196.13 236.671C198.115 229.442 203.948 226.495 215.008 224.314C213.793 224.354 211.848 224.516 209.701 224.799C199.533 226.05 194.874 227.868 189.607 237.276M152.458 181.551C155.496 182.561 158.535 183.166 161.33 183.166C168.176 183.126 176.319 179.532 182.639 175.413C182.882 177.109 183.854 179.33 185.313 181.793C179.56 185.185 172.876 187.689 167.042 187.002C159.588 186.154 155.496 184.055 152.498 181.551M127.219 205.133L130.217 201.297L133.255 197.178C139.089 189.062 141.56 182.561 143.019 177.109C141.277 176.059 139.616 174.969 138.117 173.838C136.739 180.017 133.377 187.527 126.085 197.663L123.046 201.782L120.048 205.618C116.2 210.302 113.891 212.321 111.663 214.502L114.741 215.673C124.181 219.388 129.407 223.91 134.997 231.421L138.279 226.777C133.296 218.015 124.221 213.573 120.494 212.483C122.722 210.302 123.37 209.858 127.219 205.133ZM178.507 221.326C176.238 218.984 173.443 217.207 169.554 216.682C167.609 216.399 165.138 215.834 162.748 215.39C158.697 214.623 153.592 214.502 149.217 215.875C152.255 213.452 158.292 210.464 168.136 212.725C170.526 213.25 173.889 212.967 175.793 213.532C179.641 214.623 182.801 218.055 183.449 219.024C185.191 221.689 185.799 222.214 187.622 224.758C192.605 217.369 202.854 215.188 210.066 215.915L212.901 220.68L209.215 221.043C198.358 222.416 192.686 224.718 187.136 234.005C185.313 231.421 183.733 228.554 181.991 225.889C181.343 224.879 180.695 223.91 180.127 223.264L178.426 221.286L178.507 221.326ZM96.7947 110.845C96.1465 113.752 95.2958 116.336 94.6476 118.194L110.326 124.978L112.837 126.028C118.955 128.935 125.234 133.256 129.326 138.021C137.144 147.106 139.373 162.411 138.765 169.518C140.953 171.254 151.648 179.411 161.249 179.33C167.447 179.33 174.051 176.059 178.588 173.313C175.144 174.969 170.85 176.342 165.827 176.463C156.225 176.625 146.705 166.731 144.518 164.995C145.125 157.928 141.722 143.714 133.903 134.629C129.812 129.904 123.613 124.897 117.496 121.99L101.413 115.286C102.102 113.469 102.264 112.541 103.155 109.027C103.56 107.453 103.803 106.08 104.006 104.828L98.3342 103.293L96.7947 110.845ZM167.447 99.5784C164.449 107.13 159.466 129.581 159.304 129.42C159.142 129.42 146.138 109.149 140.709 103.536C146.016 108.22 157.684 114.721 157.481 114.842C157.117 114.842 164.166 105.555 167.447 99.5784ZM208.567 122.313L207.999 117.709C197.264 116.377 193.132 117.952 191.43 121.949C193.739 121.222 197.304 121.222 203.017 121.949L208.567 122.353V122.313ZM186.488 356.157C192.889 361.406 201.558 364.071 209.053 359.226C201.923 364.071 197.872 364.839 189.445 361.204C188.068 363.304 187.987 363.789 187.865 365.444C187.46 370.653 194.509 370.694 199.046 371.421L243.731 379.739C241.503 381.597 235.345 380.991 235.345 380.991L194.306 373.884C187.744 372.955 184.219 370.007 184.138 362.618C184.138 360.962 185.151 358.539 186.528 356.157M40.848 36.302L40.929 38.846C42.509 40.9861 44.1295 42.4398 45.6284 43.8531L50.4898 48.3758C53.042 50.8794 56.3235 54.9578 56.8907 58.4709C57.4578 61.9437 60.7393 93.6424 60.7393 93.6424C60.7393 94.0462 61.3875 101.234 63.332 103.091C65.6817 105.312 70.3811 108.058 78.4024 111.289L91.1636 116.7C91.6092 115.408 92.1764 113.752 92.6625 111.894C88.4088 110.037 85.3299 108.422 83.1828 107.533C75.1614 104.303 70.4621 101.557 68.1124 99.3361C66.1679 97.4786 65.5197 90.2908 65.4791 89.887C65.4791 89.887 62.2382 58.1883 61.6305 54.6751C61.2254 52.2927 59.605 49.668 57.7819 47.4066C48.8288 43.9339 43.1572 35.2925 43.6838 25.8434C42.671 29.3565 40.8885 36.1808 40.848 36.3424M52.4749 25.2781C52.4749 14.2542 61.428 5.28967 72.5282 5.28967C83.6284 5.28967 92.5815 14.2138 92.5815 25.2781C92.5815 36.3424 83.6284 45.2665 72.5282 45.2665C61.428 45.2665 52.4749 36.3424 52.4749 25.2781Z" fill="white"/>
</svg>
