<svg width="16" height="16" viewBox="0 0 32 32" fill="none" xmlns="http://www.w3.org/2000/svg">
<g clip-path="url(#clip0_475_1209)">
<path d="M30.5478 9.09715C27.9293 3.56237 22.2213 0 16 0C9.77868 0 4.07066 3.56236 1.46193 9.07818C1.42944 9.13508 1.4132 9.17617 1.39695 9.2141C0.467817 11.2339 0 13.3676 0 15.5676C0 17.7676 0.471066 19.9075 1.39695 21.9179C1.4197 21.9684 1.43269 22.0064 1.45218 22.038C4.07066 27.5696 9.77868 31.1351 16 31.1351C22.2213 31.1351 27.9293 27.5728 30.5381 22.0569C30.5673 22.0064 30.5803 21.9716 30.5965 21.9337L30.603 21.9179C31.5289 19.9075 32 17.7707 32 15.5676C32 13.3644 31.5322 11.2339 30.6063 9.22675C30.5868 9.17617 30.5706 9.13508 30.5478 9.09715ZM21.6463 3.11667L21.8542 3.20834C24.6579 4.46955 26.9872 6.63163 28.4134 9.29945L28.4881 9.43853L26.9287 11.3161L22.8451 9.79255L20.2526 5.61381L21.6495 3.11351L21.6463 3.11667ZM11.7507 15.5644L9.42782 19.3101L5.77299 17.9541V13.1653L9.43107 11.8092L11.7507 15.5612V15.5644ZM11.0424 10.6081L13.5017 6.61582H18.5145L20.9933 10.5986L18.5145 14.5814H13.4985L11.0457 10.6081H11.0424ZM13.5017 16.5475H18.5145L20.9998 20.5302L18.5178 24.5225H13.505L11.0457 20.5302L13.505 16.5475H13.5017ZM20.2623 15.5644L22.5819 11.825L26.24 13.1811V17.9699L26.0841 18.0457L22.6079 19.3354L20.2623 15.5676V15.5644ZM12.5953 2.36437C14.8272 1.82069 17.1923 1.82386 19.4177 2.36753L19.723 2.4434L18.4885 4.64656H13.5277L12.2899 2.44024L12.5953 2.36437ZM3.5866 9.29945C5.01604 6.62846 7.35188 4.46007 10.1588 3.20202L10.3667 3.11035L11.7637 5.61065L9.17766 9.81152L5.08751 11.3382L3.51188 9.44169L3.5866 9.30261V9.29945ZM2.51127 19.1742C2.1799 17.9952 2.01096 16.7814 2.01096 15.5676C2.01096 14.3538 2.1799 13.1305 2.51452 11.9515L2.64122 11.5089L3.74904 12.8365V18.2796L2.63797 19.623L2.51127 19.1742ZM10.3667 28.0248L10.1588 27.9331C7.34863 26.6751 5.01604 24.5098 3.5866 21.8357L3.51188 21.6966L5.06152 19.8253L9.2069 21.3615L11.7702 25.5213L10.3699 28.0248H10.3667ZM19.4177 28.7676C18.3001 29.0394 17.1501 29.1785 16 29.1785C14.8499 29.1785 13.7096 29.0426 12.5953 28.7708L12.2899 28.6949L13.5342 26.4791H18.4853L19.7263 28.6917L19.4209 28.7676H19.4177ZM28.4134 21.8357C26.9872 24.5035 24.6579 26.6656 21.8542 27.9268L21.6463 28.0185L20.2396 25.5024L22.8353 21.3205L26.9222 19.8064L28.4849 21.6966L28.4102 21.8357H28.4134ZM29.4887 19.1742L29.362 19.623L28.251 18.2796V12.8365L29.3588 11.5089L29.4855 11.9515C29.8201 13.1337 29.989 14.3506 29.989 15.5676C29.989 16.7845 29.8201 17.9952 29.4887 19.1742Z" fill="#223CC1"/>
</g>
<defs>
<clipPath id="clip0_475_1209">
<rect width="32" height="31.1351" fill="white"/>
</clipPath>
</defs>
</svg>
