<svg width="139" height="58" viewBox="0 0 139 58" fill="none" xmlns="http://www.w3.org/2000/svg">
<g clip-path="url(#clip0_781_210)">
<path d="M69.1051 20.4804C69.0675 20.3688 69.0487 20.127 69.0111 20.0712C68.9735 19.9967 68.7478 19.7363 68.6914 19.7177C68.635 19.6805 68.3342 19.4759 68.2777 19.4201C68.2025 19.3643 68.1461 19.2713 68.1461 19.2713C68.1461 19.2713 68.541 19.3271 68.635 19.3457C68.729 19.3643 68.7855 19.3085 68.7855 19.3085C68.7855 19.3085 68.7666 19.2713 68.6538 19.1969C68.541 19.1225 67.9205 18.7318 67.8641 18.7132C67.8076 18.676 67.6008 18.583 67.6008 18.583C67.6008 18.583 67.4128 18.3412 67.3563 18.2854C67.2999 18.2296 67.3563 18.211 67.3563 18.211C67.3563 18.211 67.0931 17.932 67.0367 17.8948C66.9803 17.8576 67.0367 17.8576 67.0367 17.8576C67.0367 17.8576 66.6606 17.5041 66.623 17.4669C66.5666 17.4483 66.6042 17.4111 66.6042 17.4111C66.6042 17.4111 66.1717 17.0763 66.1153 17.0391C66.0777 17.0019 65.3631 16.6484 65.2315 16.5926C65.0998 16.5368 64.6485 16.3508 64.2913 16.2764C63.9528 16.202 63.8024 16.3136 63.2759 16.2206C62.4297 16.0718 62.4673 15.7742 61.8091 15.7742C61.6775 15.7742 61.4707 15.8114 61.3766 15.8672C61.2826 15.9044 61.2074 15.9416 61.2074 15.9416C61.2074 15.9416 61.1322 16.0532 60.9817 16.0718C60.6621 16.1276 60.3424 16.1834 60.0603 16.4624C60.0227 16.4996 60.0227 16.5368 60.098 16.5368C60.1544 16.5368 60.5493 16.574 60.6997 16.5926C60.8501 16.5926 60.9818 16.5926 61.057 16.6112C61.1134 16.6112 61.245 16.7043 61.3014 16.7787C61.3578 16.8531 61.4895 17.0391 61.5459 17.0763C61.5835 17.1135 61.6399 17.1321 61.6587 17.1693C61.6775 17.2065 61.7715 17.2995 61.7903 17.3367C61.8091 17.3739 61.8279 17.3925 61.8279 17.3925C61.8279 17.3925 61.8279 17.3367 61.8655 17.3553C61.922 17.3553 62.016 17.4855 62.0348 17.5041C62.0536 17.5227 62.1852 17.6901 62.2228 17.7832C62.2604 17.8576 62.4485 18.1366 62.4861 18.1738C62.5237 18.211 62.5801 18.2668 62.5801 18.2668C62.5801 18.2668 62.5801 18.211 62.6365 18.2482C62.6741 18.2854 62.9186 18.5272 62.9938 18.583C63.069 18.6202 63.2194 18.7318 63.2947 18.769C63.3699 18.8062 63.5955 18.9179 63.7836 18.9923C63.9716 19.0667 64.1784 19.1039 64.2537 19.1783C64.3477 19.2527 64.4605 19.3829 64.5169 19.4201C64.5733 19.4573 64.6674 19.5317 64.6674 19.5875C64.6674 19.5875 64.6109 19.6805 64.4981 19.8107C64.4229 19.8107 64.3477 19.8107 64.3289 19.8107C64.2537 19.8107 64.2349 19.7921 64.2161 19.7921H64.1785C64.1408 19.7921 64.028 19.7921 64.0092 19.9409C64.0092 19.9409 64.0656 19.8851 64.122 19.8665C64.122 19.8851 64.122 19.9037 64.122 19.9223C64.1596 19.9781 64.1785 19.9595 64.2161 19.9595C64.2537 19.9595 64.3101 19.9595 64.3477 19.9595C64.3289 19.9967 64.2913 20.0154 64.2725 20.0526C64.2725 20.0526 64.2725 20.0526 64.2537 20.0526C64.2537 20.0526 64.122 20.0154 64.0844 20.1642C64.0844 20.1642 64.122 20.1642 64.1408 20.127V20.1642C64.1408 20.1642 64.1032 20.1828 64.1032 20.2014C64.0092 20.2572 63.8776 20.3502 63.8776 20.3502C63.8776 20.3502 63.7083 20.3688 63.6895 20.3502C63.6707 20.3316 63.5767 20.1828 63.5015 20.1828C63.4827 20.1828 63.4639 20.1828 63.4451 20.1828C63.4075 20.1828 63.3135 20.1828 63.3135 20.2944C63.3135 20.2944 63.3511 20.2572 63.4075 20.2572C63.4075 20.2944 63.4075 20.3316 63.4639 20.3688C63.4639 20.3688 63.5203 20.3688 63.5579 20.406C63.5955 20.4432 63.5955 20.4618 63.5955 20.4618C63.5955 20.4618 63.6519 20.4804 63.6331 20.499C63.6331 20.499 63.5015 20.5362 63.4451 20.5176C63.4263 20.5176 63.4075 20.5176 63.3887 20.5176C63.3699 20.5176 63.1818 20.4804 63.1254 20.4804C63.0878 20.4804 62.8998 20.4804 62.881 20.4804C62.881 20.4804 62.8622 20.4804 62.8434 20.4804C62.7869 20.4804 62.6929 20.5176 62.7117 20.6478C62.7117 20.6478 62.7681 20.5548 62.8246 20.5362C62.8246 20.5734 62.8622 20.6106 62.8998 20.6292C62.9374 20.6292 62.9562 20.6292 62.975 20.6292C62.9938 20.6292 63.069 20.6478 63.0878 20.6478C63.1254 20.6478 63.2947 20.6106 63.3323 20.6106C63.3699 20.6106 63.5391 20.6106 63.5391 20.6292C63.5391 20.6664 63.4639 20.7036 63.4451 20.7222V20.7408C63.4451 20.7408 63.3887 20.7408 63.3135 20.778C63.2382 20.8152 63.0878 20.8338 63.0502 20.8524C63.0126 20.8524 62.9938 20.8524 62.975 20.871C62.975 20.871 62.9562 20.8896 62.9374 20.9082C62.8998 20.9082 62.8434 20.964 62.8434 21.0756C62.8434 21.0756 62.881 21.0384 62.9186 21.0012C62.9186 21.0012 62.9186 21.0384 62.9562 21.0384C63.0314 21.057 63.0502 21.0384 63.069 21.0384C63.0878 21.0384 63.1818 21.0012 63.2006 20.9826C63.2382 20.9826 63.3511 20.9082 63.4075 20.9082C63.4451 20.9082 63.5579 20.8338 63.5767 20.8338C63.6143 20.8338 63.7648 20.7594 63.8212 20.7408C63.8776 20.7408 63.8776 20.7222 63.8776 20.7222C63.8776 20.7222 63.9716 20.7222 64.0656 20.7036C64.1596 20.6664 64.2537 20.685 64.2913 20.7036C64.3289 20.7036 64.3853 20.7408 64.4605 20.7408C64.5357 20.7408 64.705 20.7408 64.7426 20.7408C64.7802 20.7408 64.8178 20.7408 64.8366 20.7036C64.8366 20.7036 64.8554 20.6478 64.8742 20.6106C64.9118 20.6478 64.9682 20.7222 64.9682 20.7222C64.987 20.592 64.9118 20.5548 64.8554 20.5362C64.8554 20.5362 64.8554 20.5362 64.8178 20.5362C64.7238 20.5362 64.6109 20.6106 64.5733 20.6106C64.5357 20.6106 64.3853 20.5734 64.3289 20.5548C64.2725 20.5176 64.2537 20.4246 64.2537 20.3502C64.2537 20.3502 64.2913 20.2944 64.3477 20.22C64.4041 20.22 64.4417 20.22 64.4605 20.22C64.5169 20.22 64.5357 20.1828 64.6109 20.1642C64.6862 20.1642 64.8178 20.0898 64.8554 20.0898C64.893 20.0898 64.9306 20.0898 64.9682 20.0898C64.987 20.0898 65.0998 20.127 65.1375 20.127C65.1751 20.127 65.4007 20.2014 65.4759 20.22C65.5511 20.2386 65.664 20.313 65.6828 20.2944C65.7016 20.2944 65.758 20.2758 65.7768 20.22C65.8144 20.2572 65.8708 20.313 65.8708 20.313C65.8896 20.1456 65.7956 20.127 65.758 20.127C65.7204 20.1084 65.6828 20.127 65.6452 20.127C65.5888 20.127 65.5511 20.127 65.5323 20.127C65.5135 20.127 65.4383 20.0526 65.3819 20.034C65.3255 20.034 65.2691 19.9223 65.2503 19.8851C65.2315 19.8665 65.2503 19.8293 65.2691 19.7921C65.2691 19.7549 65.4571 19.5131 65.4947 19.4573C65.5323 19.3829 65.5512 19.3643 65.5888 19.3643C65.6264 19.3643 65.7768 19.3643 65.852 19.3643C65.9272 19.3643 66.0024 19.3643 66.0589 19.4015C66.1153 19.4387 66.2469 19.5131 66.2845 19.5503C66.3409 19.5875 66.6794 19.9409 66.7546 19.9967C66.811 20.0526 67.2247 20.4246 67.3187 20.4804C67.4128 20.5362 67.5256 20.5362 67.6384 20.5548C67.7512 20.5734 67.9769 20.6478 68.0333 20.6478C68.0897 20.6478 68.3154 20.7036 68.3906 20.7036C68.4658 20.7036 68.5786 20.7036 68.6726 20.7408C68.7667 20.778 68.7667 20.7966 68.7855 20.7966C68.8043 20.7966 68.9171 20.7594 68.9547 20.7408C69.0111 20.7222 69.0863 20.6478 69.0487 20.5362L69.1051 20.4804ZM65.3631 19.3457C65.3631 19.3457 65.1939 19.6061 65.1375 19.6619C65.081 19.7177 64.987 19.7735 64.893 19.7921C64.893 19.7921 64.8554 19.7921 64.8178 19.7921C64.8554 19.7735 64.893 19.7363 64.9306 19.7177C65.0058 19.6619 65.0246 19.6433 65.0434 19.6433C65.081 19.6433 65.0998 19.6061 65.0998 19.5689C65.0998 19.5317 65.0998 19.5131 65.0998 19.4759C65.0998 19.4387 65.0998 19.4201 65.0998 19.4015C65.081 19.3829 65.0622 19.3271 65.0998 19.3085C65.1375 19.3085 65.1563 19.3271 65.1751 19.3085C65.2127 19.3085 65.2127 19.2713 65.2315 19.2713C65.2503 19.2713 65.2503 19.2713 65.2879 19.2713C65.3255 19.2713 65.3819 19.2341 65.4007 19.2527C65.4007 19.2527 65.4007 19.2899 65.4007 19.3271L65.3631 19.3457Z" fill="black"/>
<path d="M79.5226 27.9955C79.485 27.8839 79.4662 27.6421 79.4286 27.5863C79.391 27.5119 79.1653 27.2515 79.1089 27.2329C79.0525 27.1957 78.7516 26.991 78.6952 26.9352C78.62 26.8794 78.5636 26.7864 78.5636 26.7864C78.5636 26.7864 78.9585 26.8422 79.0525 26.8608C79.1465 26.8794 79.2029 26.8236 79.2029 26.8236C79.2029 26.8236 79.1841 26.7864 79.0713 26.712C78.9585 26.6376 78.338 26.247 78.2815 26.2284C78.2251 26.1912 78.0183 26.0982 78.0183 26.0982C78.0183 26.0982 77.8302 25.8563 77.7738 25.8005C77.7174 25.7447 77.7738 25.7261 77.7738 25.7261C77.7738 25.7261 77.5106 25.4471 77.4542 25.4099C77.3977 25.3727 77.4542 25.3727 77.4542 25.3727C77.4542 25.3727 77.0781 25.0193 77.0405 24.9821C76.9841 24.9635 77.0217 24.9263 77.0217 24.9263C77.0217 24.9263 76.5892 24.5914 76.5328 24.5542C76.4951 24.517 75.7806 24.1636 75.649 24.1078C75.5173 24.052 75.066 23.866 74.7088 23.7916C74.3703 23.7171 74.2198 23.8288 73.6933 23.7357C72.8471 23.5869 72.8848 23.2893 72.2266 23.2893C72.095 23.2893 71.8881 23.3265 71.7941 23.3823C71.7001 23.4195 71.6249 23.4567 71.6249 23.4567C71.6249 23.4567 71.5497 23.5683 71.3992 23.5869C71.0796 23.6427 70.7599 23.6985 70.4778 23.9776C70.4402 24.0148 70.4402 24.052 70.5154 24.052C70.5718 24.052 70.9667 24.0892 71.1172 24.1078C71.2676 24.1078 71.3992 24.1078 71.4744 24.1264C71.5309 24.1264 71.6625 24.2194 71.7189 24.2938C71.7753 24.3682 71.9069 24.5542 71.9634 24.5914C72.001 24.6286 72.0574 24.6472 72.0762 24.6844C72.095 24.7216 72.189 24.8146 72.2078 24.8518C72.2266 24.889 72.2454 24.9077 72.2454 24.9077C72.2454 24.9077 72.2454 24.8518 72.283 24.8704C72.3394 24.8704 72.4335 25.0007 72.4523 25.0193C72.4711 25.0379 72.6027 25.2053 72.6403 25.2983C72.6779 25.3727 72.866 25.6517 72.9036 25.6889C72.9412 25.7261 72.9976 25.7819 72.9976 25.7819C72.9976 25.7819 72.9976 25.7261 73.054 25.7633C73.0916 25.8005 73.3361 26.0424 73.4113 26.0982C73.4865 26.1354 73.6369 26.247 73.7121 26.2842C73.7874 26.3214 74.013 26.433 74.201 26.5074C74.3891 26.5818 74.5959 26.619 74.6711 26.6934C74.7652 26.7678 74.878 26.898 74.9344 26.9352C74.9908 26.9724 75.0848 27.0468 75.0848 27.1026C75.0848 27.1026 75.0284 27.1957 74.9156 27.3259C74.8404 27.3259 74.7652 27.3259 74.7464 27.3259C74.6711 27.3259 74.6523 27.3073 74.6335 27.3073H74.5959C74.5583 27.3073 74.4455 27.3073 74.4267 27.4561C74.4267 27.4561 74.4831 27.4003 74.5395 27.3817C74.5395 27.4003 74.5395 27.4189 74.5395 27.4375C74.5771 27.4933 74.5959 27.4747 74.6335 27.4747C74.6711 27.4747 74.7276 27.4747 74.7652 27.4747C74.7464 27.5119 74.7088 27.5305 74.69 27.5677C74.69 27.5677 74.6899 27.5677 74.6711 27.5677C74.6711 27.5677 74.5395 27.5305 74.5019 27.6793C74.5019 27.6793 74.5395 27.6607 74.5583 27.6421V27.6793C74.5583 27.6793 74.5207 27.6979 74.5207 27.7165C74.4267 27.7723 74.2951 27.8653 74.2951 27.8653C74.2951 27.8653 74.1258 27.8839 74.107 27.8653C74.0882 27.8467 73.9942 27.6979 73.919 27.6979C73.9002 27.6979 73.8814 27.6979 73.8626 27.6979C73.825 27.6979 73.7309 27.6979 73.7309 27.8095C73.7309 27.8095 73.7685 27.7723 73.825 27.7723C73.825 27.8095 73.825 27.8467 73.8814 27.8839C73.8814 27.8839 73.9378 27.8839 73.9754 27.9211C74.013 27.9583 74.013 27.9769 74.013 27.9769C74.013 27.9769 74.0694 27.9955 74.0506 28.0141C74.0506 28.0141 73.919 28.0513 73.8626 28.0327C73.8438 28.0327 73.825 28.0327 73.8062 28.0327C73.7874 28.0327 73.5993 27.9955 73.5429 27.9955C73.5053 27.9955 73.3172 27.9955 73.2984 27.9955C73.2984 27.9955 73.2796 27.9955 73.2608 27.9955C73.2044 27.9955 73.1104 28.0327 73.1292 28.1629C73.1292 28.1629 73.1856 28.0699 73.242 28.0513C73.242 28.0885 73.2796 28.1257 73.3173 28.1443C73.3549 28.1443 73.3737 28.1443 73.3925 28.1443C73.4113 28.1443 73.4865 28.1629 73.5053 28.1629C73.5429 28.1629 73.7121 28.1257 73.7497 28.1257C73.7874 28.1257 73.9566 28.1257 73.9566 28.1443C73.9566 28.1815 73.8814 28.2187 73.8626 28.2373V28.2559C73.8626 28.2559 73.8062 28.256 73.7309 28.2932C73.6557 28.3304 73.5053 28.349 73.4677 28.3676C73.4301 28.3676 73.4113 28.3676 73.3925 28.3862C73.3925 28.3862 73.3737 28.4048 73.3549 28.4234C73.3172 28.4234 73.2608 28.4792 73.2608 28.5908C73.2608 28.5908 73.2984 28.5536 73.3361 28.5164C73.3361 28.5164 73.3361 28.5536 73.3737 28.5536C73.4489 28.5722 73.4677 28.5536 73.4865 28.5536C73.5053 28.5536 73.5993 28.5164 73.6181 28.4978C73.6557 28.4978 73.7685 28.4234 73.825 28.4234C73.8626 28.4234 73.9754 28.349 73.9942 28.349C74.0318 28.349 74.1822 28.2746 74.2387 28.2559C74.2951 28.2559 74.2951 28.2373 74.2951 28.2373C74.2951 28.2373 74.3891 28.2373 74.4831 28.2187C74.5771 28.1815 74.6711 28.2001 74.7088 28.2187C74.7464 28.2187 74.8028 28.2559 74.878 28.2559C74.9532 28.2559 75.1224 28.2559 75.1601 28.2559C75.1977 28.2559 75.2353 28.256 75.2541 28.2187C75.2541 28.2187 75.2729 28.1629 75.2917 28.1257C75.3293 28.1629 75.3857 28.2373 75.3857 28.2373C75.4045 28.1071 75.3293 28.0699 75.2729 28.0513C75.2729 28.0513 75.2729 28.0513 75.2353 28.0513C75.1412 28.0513 75.0284 28.1257 74.9908 28.1257C74.9532 28.1257 74.8028 28.0885 74.7464 28.0699C74.69 28.0327 74.6711 27.9397 74.6711 27.8653C74.6711 27.8653 74.7088 27.8095 74.7652 27.7351C74.8216 27.7351 74.8592 27.7351 74.878 27.7351C74.9344 27.7351 74.9532 27.6979 75.0284 27.6793C75.1036 27.6607 75.2353 27.6049 75.2729 27.6049C75.3105 27.6049 75.3481 27.6049 75.3857 27.6049C75.4045 27.6049 75.5173 27.6421 75.5549 27.6421C75.5925 27.6421 75.8182 27.7165 75.8934 27.7351C75.9686 27.7537 76.0815 27.8281 76.1003 27.8095C76.1191 27.8095 76.1755 27.7909 76.1943 27.7351C76.2319 27.7723 76.2883 27.8281 76.2883 27.8281C76.3071 27.6607 76.2131 27.6421 76.1755 27.6421C76.1379 27.6235 76.1003 27.6421 76.0627 27.6421C76.0062 27.6421 75.9686 27.6421 75.9498 27.6421C75.931 27.6421 75.8558 27.5677 75.7994 27.5491C75.743 27.5491 75.6866 27.4375 75.6678 27.4003C75.649 27.3817 75.6678 27.3445 75.6866 27.3073C75.6866 27.2701 75.8746 27.0468 75.9122 26.9724C75.9498 26.898 75.9686 26.8794 76.0062 26.8794C76.0438 26.8794 76.1943 26.8794 76.2695 26.8794C76.3447 26.8794 76.4199 26.8794 76.4763 26.9166C76.5328 26.9538 76.6644 27.0282 76.702 27.0654C76.7584 27.1026 77.0969 27.4561 77.1721 27.5119C77.2285 27.5677 77.6422 27.9397 77.7362 27.9955C77.8302 28.0513 77.9431 28.0513 78.0559 28.0699C78.1687 28.0885 78.3944 28.1629 78.4508 28.1629C78.5072 28.1629 78.7328 28.2187 78.8081 28.2187C78.8833 28.2187 78.9961 28.2187 79.0901 28.2559C79.1841 28.2932 79.1841 28.3118 79.2029 28.3118C79.2217 28.3118 79.3346 28.2746 79.3722 28.2559C79.4286 28.2373 79.5038 28.1629 79.4662 28.0513L79.5226 27.9955ZM75.7806 26.8608C75.7806 26.8608 75.6114 27.1212 75.5549 27.1771C75.4985 27.2329 75.4045 27.2887 75.3105 27.3073C75.3105 27.3073 75.2729 27.3073 75.2353 27.3073C75.2729 27.2887 75.3105 27.2515 75.3481 27.2329C75.4233 27.1771 75.4421 27.1585 75.4609 27.1585C75.4985 27.1585 75.5173 27.1212 75.5173 27.084C75.5173 27.0468 75.5173 27.0282 75.5173 26.991C75.5173 26.9538 75.5173 26.9352 75.5173 26.9166C75.4985 26.898 75.4797 26.8422 75.5173 26.8236C75.5549 26.8236 75.5737 26.8422 75.5925 26.8236C75.6302 26.8236 75.6302 26.7864 75.649 26.7864C75.6678 26.7864 75.6678 26.7864 75.7054 26.7864C75.743 26.7864 75.7994 26.7492 75.8182 26.7678C75.8182 26.7678 75.8182 26.805 75.8182 26.8422L75.7806 26.8608Z" fill="black"/>
<path d="M62.3168 0H63.8212V1.46953H62.3168V0Z" fill="black"/>
<path d="M65.6639 0H67.1495V1.46953H65.6639V0Z" fill="black"/>
<path d="M68.9923 0H70.4778V1.46953H68.9923V0Z" fill="black"/>
<path d="M72.3206 0H73.8061V1.46953H72.3206V0Z" fill="black"/>
<path d="M75.6489 0H77.1533V1.46953H75.6489V0Z" fill="black"/>
<path d="M62.8621 2.49268H76.6079V3.55297H62.8621V2.49268Z" fill="black"/>
<path fill-rule="evenodd" clip-rule="evenodd" d="M87.4955 22.1732L69.7256 39.7518L51.9557 22.1732L69.7256 4.5946L87.4955 22.1732ZM69.7256 38.3566L86.0852 22.1732L69.7256 5.98973L53.3661 22.1732L69.7256 38.3566Z" fill="black"/>
<path d="M67.9957 37.315L66.0776 35.4176V22.1732H67.9957V37.315Z" fill="black"/>
<path d="M64.3476 33.6876L62.4296 31.8275V22.1732H64.3476V33.6876Z" fill="black"/>
<path d="M60.6809 30.0975L58.7817 28.2002V22.1732H60.6809V30.0975Z" fill="black"/>
<path d="M57.0329 26.4888L55.1149 24.5914V22.1732H57.0329V26.4888Z" fill="black"/>
<path d="M71.4744 7.03137L73.3924 8.92874V22.1731H71.4744V7.03137Z" fill="black"/>
<path d="M75.1224 10.6588L77.0405 12.5376V22.1732H75.1224V10.6588Z" fill="black"/>
<path d="M78.7892 14.2675L80.6885 16.1462V22.1732H78.7892V14.2675Z" fill="black"/>
<path d="M82.4373 17.8575L84.3553 19.7735V22.1731H82.4373V17.8575Z" fill="black"/>
<path fill-rule="evenodd" clip-rule="evenodd" d="M2.59497 52.1219L3.93006 48.1411H3.94886L5.28396 52.1219H2.59497ZM6.3934 55.3771H7.86012L4.51299 46.2623H3.34713L0 55.3771H1.46672L2.18128 53.3496H5.67884L6.3934 55.3771Z" fill="black"/>
<path fill-rule="evenodd" clip-rule="evenodd" d="M8.89436 56.0841C8.89436 56.5677 8.61229 56.7723 8.16099 56.7723H7.78491V58.0001H8.31143C9.42087 58.0001 10.2294 57.2746 10.2294 56.1771V48.8852H8.91316V56.0841H8.89436ZM8.89436 47.5831H10.2106V46.281H8.89436V47.5831Z" fill="black"/>
<path d="M12.0534 53.2007C12.0534 54.6702 13.2193 55.4515 14.2535 55.4515C14.9304 55.4515 15.5322 55.1911 15.9459 54.6889H15.9647V55.3771H17.2809V48.8851H15.9647V52.7543C15.9647 53.6286 15.4005 54.1494 14.6672 54.1494C13.9338 54.1494 13.3697 53.6286 13.3697 52.7543V48.8851H12.0534V53.2007Z" fill="black"/>
<path d="M19.011 55.3772H20.3273V51.508C20.3273 50.6338 20.8914 50.1129 21.6248 50.1129C22.3581 50.1129 22.9222 50.6338 22.9222 51.508V55.3772H24.2385V51.0616C24.2385 49.5921 23.0727 48.8108 22.0573 48.8108C21.3615 48.8108 20.7598 49.0712 20.3461 49.5735H20.3273V48.8852H19.011V55.3772Z" fill="black"/>
<path d="M26.0249 48.9038H25.3668V49.9083H26.0249V53.796C26.0249 54.8191 26.7019 55.3958 27.6233 55.3958H28.3002V54.1681H27.8113C27.4916 54.1681 27.3412 54.0378 27.3412 53.6844V49.9083H28.3002V48.9038H27.3412V46.932H26.0249V48.9038Z" fill="black"/>
<path fill-rule="evenodd" clip-rule="evenodd" d="M32.9824 55.3772H34.2987V50.95C34.2987 49.3502 33.1893 48.8108 31.5721 48.8108C30.5943 48.8108 29.861 49.0712 29.3532 49.7595L30.3875 50.5407C30.6131 50.1687 30.9516 50.0385 31.6285 50.0385C32.5687 50.0385 32.9824 50.2617 32.9824 50.8756V51.5452H31.1584C29.7481 51.5452 29.0336 52.4195 29.0336 53.4612C29.0336 54.5959 29.8798 55.4516 31.3465 55.4516C32.2303 55.4516 32.7004 55.247 32.9636 54.8005H32.9824V55.3772ZM32.9824 53.1078C32.9824 54.1123 32.6064 54.2425 31.5157 54.2425C30.6319 54.2425 30.2746 53.8518 30.2746 53.424C30.2746 52.959 30.6319 52.6427 31.4217 52.6427H33.0012V53.1078H32.9824Z" fill="black"/>
<path d="M36.0851 55.3772H37.4014V51.508C37.4014 50.6338 37.9655 50.1129 38.6989 50.1129C39.4322 50.1129 39.9963 50.6338 39.9963 51.508V55.3772H41.3126V51.508C41.3126 50.6338 41.8767 50.1129 42.6101 50.1129C43.3435 50.1129 43.9076 50.6338 43.9076 51.508V55.3772H45.2239V51.0616C45.2239 49.5921 44.058 48.8108 43.0426 48.8108C42.1588 48.8108 41.5195 49.0712 40.9742 49.6479C40.5041 49.1828 40.0339 48.8108 39.1313 48.8108C38.4356 48.8108 37.8339 49.0712 37.4202 49.5735H37.4014V48.8852H36.0851V55.3772Z" fill="black"/>
<path fill-rule="evenodd" clip-rule="evenodd" d="M52.1062 52.6241V51.5452C52.1062 49.8711 50.8463 48.8108 49.3984 48.8108C48.1385 48.8108 46.6906 49.6293 46.6906 52.1591C46.6906 54.8191 48.2514 55.4516 49.6052 55.4516C50.489 55.4516 51.3164 55.1354 51.9746 54.4099L51.0156 53.61C50.6207 54.0007 50.0754 54.2425 49.5864 54.2425C48.6839 54.2425 48.0257 53.703 48.0257 52.6427H52.1062V52.6241ZM48.0257 51.5638C48.0445 50.5779 48.6274 50.0571 49.4172 50.0571C50.207 50.0571 50.7711 50.5779 50.8087 51.5638H48.0445H48.0257Z" fill="black"/>
<path d="M53.4977 55.3772H54.814V51.508C54.814 50.6338 55.3781 50.1129 56.1115 50.1129C56.8448 50.1129 57.4089 50.6338 57.4089 51.508V55.3772H58.7252V51.0616C58.7252 49.5921 57.5594 48.8108 56.5439 48.8108C55.8482 48.8108 55.2465 49.0712 54.8328 49.5735H54.814V48.8852H53.4977V55.3772Z" fill="black"/>
<path d="M60.5117 48.9038H59.8535V49.9083H60.5117V53.796C60.5117 54.8191 61.1886 55.3958 62.11 55.3958H62.787V54.1681H62.2981C61.9784 54.1681 61.8279 54.0378 61.8279 53.6844V49.9083H62.787V48.9038H61.8279V46.932H60.5117V48.9038Z" fill="black"/>
<path fill-rule="evenodd" clip-rule="evenodd" d="M71.0419 55.3771H72.3582V46.2623H71.0419V49.5734C70.553 49.1084 70.0265 48.8108 69.3496 48.8108C68.541 48.8108 67.9581 49.1642 67.582 49.6478C67.2247 50.1129 67.1119 50.5221 67.1119 52.1219C67.1119 53.7216 67.2247 54.1494 67.582 54.5959C67.9581 55.0795 68.541 55.4329 69.3496 55.4329C70.0265 55.4329 70.6282 55.1167 71.0419 54.6703V55.3399V55.3771ZM69.7445 50.1315C70.9667 50.1315 71.0419 51.2104 71.0419 52.1405C71.0419 53.0705 70.9855 54.168 69.7445 54.168C68.5034 54.168 68.447 53.1635 68.447 52.1405C68.447 51.1174 68.5034 50.1315 69.7445 50.1315Z" fill="black"/>
<path fill-rule="evenodd" clip-rule="evenodd" d="M78.9209 52.6241V51.5452C78.9209 49.8711 77.661 48.8108 76.2131 48.8108C74.9532 48.8108 73.5053 49.6293 73.5053 52.1591C73.5053 54.8191 75.066 55.4516 76.4199 55.4516C77.3037 55.4516 78.1311 55.1354 78.7893 54.4099L77.8303 53.61C77.4354 54.0007 76.8901 54.2425 76.4011 54.2425C75.4985 54.2425 74.8404 53.703 74.8404 52.6427H78.9209V52.6241ZM74.8404 51.5638C74.8592 50.5779 75.4421 50.0571 76.2319 50.0571C77.0217 50.0571 77.5858 50.5779 77.6234 51.5638H74.8592H74.8404Z" fill="black"/>
<path d="M86.4989 51.6755H88.3793V52.1405C88.3793 53.2752 87.5519 54.0751 86.4989 54.0751C85.8408 54.0751 85.3519 53.7589 85.0698 53.4054C84.7125 52.9404 84.5997 52.68 84.5997 50.8198C84.5997 48.9596 84.7125 48.6992 85.0698 48.2342C85.3519 47.8807 85.8408 47.5645 86.4989 47.5645C87.3827 47.5645 88.0408 48.1784 88.2665 48.8852H89.7332C89.4512 47.3971 88.2477 46.188 86.4989 46.188C85.051 46.188 84.0544 47.0251 83.6219 47.8249C83.321 48.3644 83.227 48.6248 83.227 50.8198C83.227 53.0148 83.3398 53.2752 83.6219 53.8147C84.0544 54.6145 85.051 55.4516 86.4989 55.4516C88.3417 55.4516 89.7896 54.0193 89.7896 52.2149V50.3548H86.5177V51.6569L86.4989 51.6755Z" fill="black"/>
<path d="M91.2939 55.3772H92.6102V51.4709C92.6102 50.5222 93.2496 50.113 93.8889 50.113C94.2274 50.113 94.453 50.206 94.7539 50.4292L95.7129 49.2945C95.318 48.9783 94.8667 48.7922 94.3402 48.7922C93.6445 48.7922 93.0427 49.0527 92.629 49.5549H92.6102V48.8666H91.2939V55.3586V55.3772Z" fill="black"/>
<path fill-rule="evenodd" clip-rule="evenodd" d="M99.5302 55.3772H100.846V50.95C100.846 49.3502 99.737 48.8108 98.1199 48.8108C97.142 48.8108 96.4087 49.0712 95.901 49.7595L96.9352 50.5407C97.1608 50.1687 97.4993 50.0385 98.1763 50.0385C99.1165 50.0385 99.5302 50.2617 99.5302 50.8756V51.5452H97.7062C96.2958 51.5452 95.5813 52.4195 95.5813 53.4612C95.5813 54.5959 96.4275 55.4516 97.8942 55.4516C98.778 55.4516 99.2481 55.247 99.5114 54.8005H99.5302V55.3772ZM99.5302 53.1078C99.5302 54.1123 99.1541 54.2425 98.0634 54.2425C97.1796 54.2425 96.8224 53.8518 96.8224 53.424C96.8224 52.959 97.1796 52.6427 97.9694 52.6427H99.549V53.1078H99.5302Z" fill="black"/>
<path d="M102.558 55.3772H103.874V51.508C103.874 50.6338 104.438 50.1129 105.171 50.1129C105.905 50.1129 106.469 50.6338 106.469 51.508V55.3772H107.785V51.0616C107.785 49.5921 106.619 48.8108 105.604 48.8108C104.908 48.8108 104.306 49.0712 103.893 49.5735H103.874V48.8852H102.558V55.3772Z" fill="black"/>
<path fill-rule="evenodd" clip-rule="evenodd" d="M109.177 52.1404C109.177 53.5542 109.384 54.0936 109.891 54.6331C110.249 55.0237 110.869 55.4701 111.884 55.4701C112.9 55.4701 113.52 55.0423 113.878 54.6331C114.385 54.075 114.592 53.5542 114.592 52.1404C114.592 50.7267 114.385 50.2059 113.878 49.6664C113.52 49.2758 112.9 48.8293 111.884 48.8293C110.869 48.8293 110.249 49.2572 109.891 49.6664C109.384 50.2245 109.177 50.7453 109.177 52.1404ZM113.257 52.1404C113.257 53.0705 113.182 53.331 112.938 53.6844C112.749 53.9448 112.336 54.1494 111.884 54.1494C111.433 54.1494 111.019 53.9448 110.831 53.6844C110.587 53.331 110.512 53.0891 110.512 52.1404C110.512 51.1918 110.587 50.9499 110.831 50.5965C111.019 50.3361 111.433 50.1315 111.884 50.1315C112.336 50.1315 112.749 50.3361 112.938 50.5965C113.182 50.9499 113.257 51.1918 113.257 52.1404Z" fill="black"/>
<path d="M115.965 53.8147C115.965 54.9866 116.698 55.3958 117.639 55.3958H118.221V54.1681H117.77C117.45 54.1681 117.281 54.0193 117.281 53.7217V46.281H115.965V53.8147Z" fill="black"/>
<path d="M119.293 53.8147C119.293 54.9866 120.027 55.3958 120.967 55.3958H121.55V54.1681H121.098C120.779 54.1681 120.61 54.0193 120.61 53.7217V46.281H119.293V53.8147Z" fill="black"/>
<path fill-rule="evenodd" clip-rule="evenodd" d="M127.718 52.6241V51.5452C127.718 49.8711 126.458 48.8108 125.01 48.8108C123.75 48.8108 122.302 49.6293 122.302 52.1591C122.302 54.8191 123.863 55.4516 125.217 55.4516C126.1 55.4516 126.928 55.1354 127.586 54.4099L126.627 53.61C126.232 54.0007 125.687 54.2425 125.198 54.2425C124.295 54.2425 123.637 53.703 123.637 52.6427H127.718V52.6241ZM123.618 51.5638C123.637 50.5779 124.22 50.0571 125.01 50.0571C125.8 50.0571 126.364 50.5779 126.401 51.5638H123.637H123.618Z" fill="black"/>
<path d="M129.09 55.3772H130.406V51.4709C130.406 50.5222 131.046 50.113 131.685 50.113C132.024 50.113 132.249 50.206 132.55 50.4292L133.509 49.2945C133.114 48.9783 132.663 48.7922 132.136 48.7922C131.441 48.7922 130.839 49.0527 130.425 49.5549H130.406V48.8666H129.09V55.3586V55.3772Z" fill="black"/>
<path d="M133.396 54.2982C134.243 55.0795 135.22 55.4701 136.273 55.4701C137.797 55.4701 138.981 54.7447 138.981 53.4798C138.981 52.4381 138.436 51.6196 137.082 51.5266L135.991 51.4522C135.333 51.3964 135.126 51.1174 135.126 50.8383C135.126 50.3919 135.408 50.0571 136.255 50.0571C136.969 50.0571 137.496 50.2989 138.022 50.6523L138.831 49.7036C138.191 49.1642 137.402 48.8293 136.255 48.8293C134.863 48.8293 133.81 49.499 133.81 50.8197C133.81 51.9358 134.619 52.5683 135.69 52.6613L136.856 52.7543C137.308 52.7915 137.665 52.9403 137.665 53.3868C137.665 53.9448 137.12 54.2238 136.367 54.2238C135.484 54.2238 134.863 53.9448 134.299 53.3868L133.378 54.2796L133.396 54.2982Z" fill="black"/>
</g>
<defs>
<clipPath id="clip0_781_210">
<rect width="139" height="58" fill="white"/>
</clipPath>
</defs>
</svg>
