<svg width="179" height="52" viewBox="0 0 179 52" fill="none" xmlns="http://www.w3.org/2000/svg">
<path fill-rule="evenodd" clip-rule="evenodd" d="M50.3605 26.3363H51.6771C53.075 26.3363 54.5497 26.6142 54.5497 28.431C54.5497 30.0468 52.9724 30.3674 51.6771 30.3674H50.3605V26.3363ZM50.3605 20.8305H51.4377C52.7159 20.8305 54.1308 20.9502 54.1308 22.566C54.1308 24.0023 52.6731 24.2631 51.4976 24.2631H50.3605V20.8305ZM47.5648 32.5646H52.4338C54.1907 32.5646 57.3454 32.0474 57.3454 28.5336C57.3454 26.8151 56.0459 25.5412 54.1522 25.3617V25.3232C55.8108 25.024 56.9265 23.8656 56.9265 22.2112C56.9265 19.1591 54.2334 18.6376 52.4338 18.6376H47.5648V32.5689V32.5646Z" fill="#222221"/>
<path fill-rule="evenodd" clip-rule="evenodd" d="M59.1921 32.5647H61.8638V21.1085L61.9066 21.0657L65.6555 32.5647H68.3315L72.0847 21.0657H72.1231V32.5647H74.7991V18.6334H70.3278L67.0148 29.192H66.9764L63.6592 18.6334H59.1921V32.5647Z" fill="#222221"/>
<path d="M79.9074 29.7729H77.1117V32.5686H79.9074V29.7729Z" fill="#222221"/>
<path fill-rule="evenodd" clip-rule="evenodd" d="M95.2109 18.971C94.014 18.6119 92.7359 18.3939 91.12 18.3939C86.3879 18.3939 83.4768 21.0699 83.4768 25.8405C83.4768 30.6111 86.6102 32.8083 91.12 32.8083C92.6162 32.8083 94.1551 32.4877 95.6298 32.0901V24.5837H90V26.7809H92.9539V30.4144C92.4751 30.5341 91.8766 30.6153 91.1157 30.6153C88.1405 30.6153 86.3836 28.478 86.3836 25.6438C86.3836 22.8097 88.179 20.5954 91.4321 20.5954C92.552 20.5954 93.9456 20.8348 95.0271 21.3349L95.2066 18.9796L95.2109 18.971Z" fill="#222221"/>
<path fill-rule="evenodd" clip-rule="evenodd" d="M98.3827 32.5644H101.059V28.7898C101.059 27.3108 101.059 24.6006 103.235 24.6006C103.713 24.6006 104.192 24.6818 104.431 24.8186V22.1255C104.154 22.0443 103.871 22.0443 103.611 22.0443C102.016 22.0443 100.918 23.6602 100.798 24.6177H100.759V22.2837H98.3827V32.5644Z" fill="#222221"/>
<path fill-rule="evenodd" clip-rule="evenodd" d="M106.62 25.1221C107.518 24.4424 108.655 24.0021 109.796 24.0021C111.374 24.0021 112.113 24.5621 112.113 26.2164H110.634C109.514 26.2164 108.198 26.3148 107.18 26.8149C106.163 27.315 105.423 28.2127 105.423 29.7474C105.423 31.7052 107.201 32.7995 109.018 32.7995C110.237 32.7995 111.575 32.1626 112.19 31.0212H112.229C112.25 31.3418 112.25 32.0215 112.348 32.5601H114.704C114.644 31.7608 114.605 31.0426 114.584 30.2646C114.563 29.508 114.545 28.7257 114.545 27.6912V26.3746C114.545 23.3396 113.246 22.0443 110.113 22.0443C108.976 22.0443 107.578 22.3435 106.539 22.8223L106.62 25.1178V25.1221ZM107.979 29.5892C107.979 28.0118 109.758 27.8109 110.955 27.8109H112.113C112.113 28.6103 111.993 29.3498 111.553 29.9269C111.134 30.4869 110.493 30.846 109.677 30.846C108.719 30.846 107.979 30.4655 107.979 29.5892Z" fill="#222221"/>
<path fill-rule="evenodd" clip-rule="evenodd" d="M117.179 32.5645H119.855V27.5332C119.855 26.2166 120.274 24.1177 122.21 24.1177C123.928 24.1177 123.946 25.8147 123.946 27.0715V32.5602H126.622V26.0712C126.622 23.7586 125.566 22.0402 123.129 22.0402C121.731 22.0402 120.594 22.4976 119.756 23.6774H119.718V22.2795H117.183V32.5602L117.179 32.5645Z" fill="#222221"/>
<path fill-rule="evenodd" clip-rule="evenodd" d="M128.708 27.4946C128.708 30.4484 130.683 32.8038 134.077 32.8038C137.471 32.8038 139.467 30.4484 139.467 27.4946C139.467 24.1005 137.133 22.0443 134.077 22.0443C131.02 22.0443 128.708 24.1005 128.708 27.4946ZM131.503 27.174C131.503 25.6351 132.341 24.1218 134.077 24.1218C135.812 24.1218 136.671 25.6009 136.671 27.174C136.671 28.8924 136.133 30.7263 134.077 30.7263C132.021 30.7263 131.503 28.871 131.503 27.174Z" fill="#222221"/>
<path d="M144.289 17.5945H141.613V32.5646H144.289V17.5945Z" fill="#222221"/>
<path d="M149.833 17.5945H147.157V32.5646H149.833V17.5945Z" fill="#222221"/>
<path fill-rule="evenodd" clip-rule="evenodd" d="M154.535 26.4176C154.655 25.0411 155.412 24.0024 156.912 24.0024C158.413 24.0024 159.007 25.1224 159.088 26.4176H154.535ZM160.883 29.8117C159.887 30.3717 158.767 30.8505 157.472 30.8505C155.814 30.8505 154.659 29.91 154.535 28.2557H161.64C161.64 24.665 160.563 22.0488 156.75 22.0488C153.557 22.0488 151.979 24.5025 151.979 27.4777C151.979 30.8505 153.954 32.8083 157.348 32.8083C158.785 32.8083 159.905 32.5304 160.879 31.9918V29.816L160.883 29.8117Z" fill="#222221"/>
<path fill-rule="evenodd" clip-rule="evenodd" d="M163.799 32.5644H166.475V28.7898C166.475 27.3108 166.475 24.6006 168.651 24.6006C169.129 24.6006 169.608 24.6818 169.848 24.8186V22.1255C169.57 22.0443 169.288 22.0443 169.031 22.0443C167.432 22.0443 166.338 23.6602 166.218 24.6177H166.18V22.2837H163.803V32.5644H163.799Z" fill="#222221"/>
<path fill-rule="evenodd" clip-rule="evenodd" d="M177.781 22.4248C176.944 22.2452 176.123 22.0443 174.866 22.0443C172.771 22.0443 170.835 23.0232 170.835 25.2375C170.835 28.9523 175.486 27.5715 175.486 29.5892C175.486 30.5852 174.409 30.846 173.729 30.846C172.81 30.846 171.934 30.5852 171.096 30.1663L170.938 32.3635C171.917 32.6242 172.955 32.8038 173.973 32.8038C176.148 32.8038 178.282 31.8462 178.282 29.4524C178.282 25.7419 173.631 26.7764 173.631 25.1435C173.631 24.2629 174.49 24.0064 175.208 24.0064C176.187 24.0064 176.785 24.1646 177.602 24.4467L177.781 22.429V22.4248Z" fill="#222221"/>
<path d="M3.10345 7.14733C4.39869 2.69307 7.82274 0 12.7045 0C19.4842 0 19.9587 5.43317 28.6748 5.52721C31.2995 5.55714 34.8347 4.6338 36.9421 2.85979L37.8527 3.74893C37.8527 3.74893 36.4505 5.48447 35.0228 8.29723C30.4617 17.2613 31.6842 24.4001 34.5996 33.424C36.1043 38.0835 33.843 39.6951 30.0598 41.717C24.5412 44.658 21.5831 45.8036 19.0353 51.6429C19.0353 51.6429 18.3728 49.8732 18.1248 49.4029C15.3719 44.2476 8.92562 41.422 3.37275 40.674C1.93645 40.4816 0 40.7808 0 40.7808C3.71901 33.5908 2.88544 31.0729 1.00883 23.9726C-0.329154 18.9156 -0.277857 14.8119 4.07381 11.5204C4.81761 12.3967 5.47592 13.0336 6.73269 13.0336C8.37418 13.0336 9.70362 11.7042 9.70362 10.0627C9.70362 8.4212 8.37418 7.09176 6.73269 7.09176C5.53149 7.09176 4.49701 7.80564 4.03534 8.83157L2.81704 8.49387C2.81704 8.49387 2.87689 7.95525 3.112 7.15161L3.10345 7.14733ZM10.7424 11.452C10.1653 13.1148 8.58364 14.3075 6.72841 14.3075C5.66401 14.3075 4.69364 13.9185 3.94984 13.273C-1.1328 18.2445 3.15902 24.6566 3.81305 30.4617C4.1422 33.3813 3.31291 36.5959 2.15873 39.2804C7.45511 39.4599 14.5127 42.4993 17.8341 46.6586C18.4069 47.3767 18.8259 48.0308 19.1166 48.548C21.7412 44.3417 25.3192 42.7942 29.4571 40.5842C31.509 39.4899 33.7532 38.4511 33.843 35.758C33.8729 34.8475 32.5435 31.2739 32.257 30.3035C32.1972 30.094 32.1331 29.8803 32.0775 29.6708L10.7424 11.452ZM4.68937 6.32659C5.2921 5.99743 5.98461 5.80935 6.72414 5.80935C9.04103 5.80935 10.9262 7.66457 10.9732 9.96865L31.5346 27.5335C29.7905 19.6808 30.7652 12.6062 35.1724 5.40325C33.6036 6.12995 31.3722 6.83528 28.662 6.80536C23.5494 6.74978 21.7455 5.38615 17.9111 2.89826C16.2439 1.81676 14.7692 1.27814 12.7087 1.27814C9.06241 1.27814 6.00598 3.24879 4.69364 6.32659H4.68937Z" fill="#222221"/>
<path d="M10.7424 11.4521C10.1653 13.115 8.58365 14.3077 6.72842 14.3077C5.66402 14.3077 4.69365 13.9187 3.94985 13.2732C-1.13279 18.2447 3.15903 24.6568 3.81306 30.4618C4.14222 33.3815 3.31292 36.5961 2.15875 39.2806C7.45512 39.4601 14.5127 42.4994 17.8341 46.6587C18.407 47.3769 18.8259 48.0309 19.1166 48.5482C21.7412 44.3418 25.3192 42.7944 29.4571 40.5844C31.509 39.49 33.7532 38.4513 33.843 35.7582C33.8729 34.8477 32.5435 31.274 32.2571 30.3037C32.1972 30.0942 32.1331 29.8805 32.0775 29.671L10.7424 11.4521Z" fill="#92B93B"/>
<path d="M31.6885 6.53183C33.0607 6.2668 34.2363 5.83933 35.1724 5.4033C33.5651 8.02371 32.4152 10.6313 31.6885 13.2645V6.53183ZM25.1482 6.48053C26.0886 6.66862 27.153 6.77976 28.4184 6.80114V24.8661L25.1482 22.0704V6.48053ZM18.6036 3.35144C19.8176 4.14226 20.8436 4.80484 21.8738 5.33063V19.279L18.6036 16.4834V3.35144ZM12.059 1.29957C12.2727 1.28675 12.4865 1.2782 12.7045 1.2782C13.6834 1.2782 14.5341 1.40217 15.3292 1.64582V13.692L12.059 10.8963V1.29957ZM4.68939 6.32664C5.49304 4.44577 6.94644 2.97954 8.78885 2.12032V6.33947C8.17756 6.00176 7.47651 5.80513 6.72843 5.80513C5.98036 5.80513 5.2964 5.99322 4.69367 6.32237L4.68939 6.32664Z" fill="#F9DC0A"/>
<path d="M31.6885 6.53174V13.2644C30.4146 17.8598 30.4275 22.5406 31.5346 27.5334L28.4183 24.8703V6.80105H28.662C29.752 6.81815 30.7652 6.707 31.6885 6.52747V6.53174Z" fill="#C20E1A"/>
<path d="M25.1482 6.48059V22.0748L21.878 19.2791V5.33069C22.8911 5.84793 23.9171 6.23265 25.1482 6.48059Z" fill="#C20E1A"/>
<path d="M18.6036 3.35149V16.4834L15.3334 13.6878V1.64587C16.214 1.91518 17.0348 2.3341 17.9111 2.89837L18.6079 3.35149H18.6036Z" fill="#C20E1A"/>
<path d="M12.059 1.29956V10.8963L10.9732 9.96869C10.939 8.40842 10.067 7.05333 8.78882 6.34373V2.12031C9.78055 1.65864 10.8834 1.37651 12.059 1.29956Z" fill="#C20E1A"/>
<path d="M18.9712 28.6535L18.9926 28.833C19.0567 29.2733 20.7708 30.7823 21.1556 31.1713C21.8951 31.9108 22.7415 33.0949 23.3827 33.9499C23.3827 33.9499 23.4981 34.1038 23.6306 34.3346C24.1094 35.1853 24.1222 35.9676 23.746 36.8866C23.6306 38.9556 23.1561 41.5632 23.1561 41.5632C23.1561 41.5632 23.1476 41.6102 23.139 41.6743C23.1048 41.9393 23.1219 42.2984 23.3784 42.4566C23.5964 42.5934 23.994 42.7344 24.3488 42.8456C24.5198 42.8969 24.7634 42.9653 24.9729 43.0208C24.2676 43.444 23.5879 43.8886 22.9381 44.3802L21.9849 44.4229C21.9849 44.4229 21.8481 44.4229 21.6899 44.4101C21.0743 44.3546 20.805 44.0852 20.711 43.4355C20.6426 42.9738 21.0017 42.5036 21.1085 42.0505C21.4847 40.4389 20.3733 39.9772 20.9333 37.9425C21.1085 37.3098 21.3736 36.7413 21.3736 36.0616C21.3736 35.8906 21.2753 35.7923 21.1641 35.6811C20.5913 35.1083 19.9202 34.6381 19.3944 34.0183C19.0353 33.5951 18.6891 33.0052 18.0564 33.0052C17.4237 33.0052 17.2741 32.9496 16.6885 33.1377C16.5047 33.1975 16.261 33.4113 16.1798 33.5865C15.4574 35.228 13.6363 37.8784 12.3454 38.1776C11.4861 38.3742 11.2339 39.0154 10.5927 39.4258C10.1311 39.725 9.0752 40.4688 8.90849 40.6355L8.84437 40.6997C8.12622 40.4346 7.40379 40.2038 6.68136 40.0072L6.72411 39.9687C6.86945 39.8362 7.24562 39.2249 7.36104 39.0496C7.64745 38.6093 7.98515 38.1092 8.25873 37.8057C8.81445 37.1944 9.72496 36.6985 10.1225 36.5788C10.9176 36.3395 11.3536 35.8222 11.5973 35.0485C11.6956 34.7279 12.371 33.531 12.6531 33.142C12.9267 32.7615 13.1618 32.582 13.7817 31.3936C14.3801 30.248 14.5169 29.5426 14.4998 29.0083C14.4827 28.4654 14.1236 27.23 13.414 26.6059C12.9566 26.2041 12.2043 25.8707 11.6058 25.7381C11.6058 25.7381 9.43001 25.1311 8.8401 24.9815C8.10484 24.7977 7.61325 24.6053 7.32684 24.4044C7.07463 24.2249 6.92074 23.7205 6.85662 23.4255C6.85662 23.4255 6.19404 20.7453 6.10427 20.4503C6.03588 20.2366 5.73237 19.963 5.54856 19.8262L5.42459 19.7364L5.08261 19.5013C4.92018 19.3859 4.74919 19.2705 4.60812 19.1294L4.55682 19.0696C4.45851 18.9499 4.40721 18.7361 4.44141 18.5823L4.5098 18.0522C4.53973 17.8214 4.51835 17.2443 4.84323 17.2015C4.8646 17.2015 4.89025 17.2015 4.91163 17.2015C5.06552 16.2996 5.85206 15.6113 6.80105 15.6113C7.86118 15.6113 8.71613 16.4705 8.71613 17.5264C8.71613 18.454 8.05782 19.2277 7.18578 19.403L7.25417 19.6509C7.38669 20.1041 7.39951 20.1254 7.63035 20.4589C7.99797 20.9889 8.25446 21.8524 8.50667 22.4594C8.81872 23.2075 8.84864 23.1648 9.66512 23.2759C10.2636 23.3571 11.0031 23.2759 11.6058 23.2118C12.0675 23.1605 14.1536 22.8613 14.2049 22.5022C14.2262 22.1901 13.9484 21.9849 13.7945 21.8652C12.9908 21.3309 12.5805 20.8137 12.3924 20.1511C11.858 18.283 13.0892 17.4623 13.7304 17.3255C14.5126 17.1802 15.1667 17.4837 15.6796 18.142C15.7267 18.189 15.7694 18.2531 15.8122 18.3301C15.9661 18.5694 16.0558 18.7148 16.1413 18.9542C16.1413 18.9542 16.1114 19.2192 16.0515 19.3945C16.1413 19.48 16.4021 19.9288 16.4363 20.087C16.4448 20.1383 16.308 21.5788 16.308 21.6173C16.308 21.6173 16.0045 21.8738 15.7865 21.9507C15.701 21.9807 16.261 22.2457 16.5047 22.2414H21.8096C21.8096 22.2414 21.9549 22.2414 22.1345 22.2713C22.7287 22.3697 22.9894 22.733 23.1818 23.2716C23.1818 23.2716 23.5964 24.3702 23.8187 24.8832C23.9299 25.1397 24.165 25.6997 24.4001 26.2468C25.0755 27.8071 24.8447 27.3668 25.9817 28.4098C26.2211 28.6321 26.3835 29.0126 25.9091 29.034C25.8065 29.0382 25.6697 29.0211 25.5372 29.0211C24.9729 29.0211 24.4984 28.1833 23.8358 28.4227C23.6777 28.4782 23.5238 28.5424 23.357 28.5424H23.0835C22.9125 28.5466 22.5662 28.5552 22.5833 28.2944C22.5876 28.2132 22.6432 28.1534 22.6432 28.1534C22.6432 28.1534 22.8184 27.9311 23.0065 27.6746C23.0749 27.5763 23.3613 27.1744 23.3784 27.0633C23.3998 26.918 22.6175 26.0844 22.5278 25.9775C22.2584 25.6398 22.0661 25.2124 21.8652 24.8276C21.6856 24.4942 21.583 24.3873 21.1812 24.3446C20.8606 24.3617 19.0695 24.4044 18.9071 24.5284C18.7916 24.6139 18.7788 24.6994 18.7788 24.8704C18.7788 24.9601 18.7703 25.238 18.7831 25.6783C18.813 26.6059 18.9071 28.0208 18.9669 28.6236V28.6578L18.9712 28.6535Z" fill="white"/>
<path d="M18.8814 32.9627C18.6591 32.7874 18.3941 32.6677 18.0564 32.6677C17.8854 32.6677 16.4918 32.5523 15.8549 33.2064C15.7224 33.3431 15.4403 34.0228 15.2607 34.3563C14.6836 33.7749 14.1792 33.4457 13.3243 33.2406C13.2217 33.2149 13.1276 33.1935 13.0464 33.1764C13.2131 32.9627 13.3841 32.7618 13.6577 32.3044L13.8714 31.9368C13.9356 31.8171 14.0082 31.6888 14.0852 31.5435C14.5896 30.5774 14.7905 29.8892 14.8332 29.3377C15.4445 29.6797 16.2952 29.9618 16.945 29.8635C17.5306 29.778 18.1932 29.3677 18.6848 28.9359C18.86 29.5557 20.4032 30.8852 20.8991 31.3725L21.0829 31.5691L21.1556 31.6504C21.3522 31.8769 21.5959 32.1762 21.8481 32.4882C21.7583 32.5096 21.6514 32.5352 21.536 32.5652C20.6169 32.8131 20.1553 33.0824 19.7919 33.9544C19.6038 33.7535 19.4328 33.5227 19.2533 33.3132C19.1849 33.2363 19.1165 33.1593 19.0609 33.108L18.89 32.9584L18.8814 32.9627Z" fill="#222221"/>
<path d="M18.5523 32.3213C18.3685 32.3213 18.1932 32.3256 17.8811 32.347C16.5389 32.4282 16.167 32.6291 15.8036 33.2618C15.6284 33.5653 15.4787 33.903 15.4787 33.903C14.8931 33.1121 14.145 32.954 13.7774 32.8984C13.9441 32.6847 13.9954 32.6376 14.269 32.1803L14.4827 31.8126C14.5469 31.6929 14.6195 31.5647 14.6965 31.4194C15.1068 30.6371 15.2351 30.06 15.2949 29.5684C15.8079 29.9446 16.4448 30.1412 17.1331 30.1412C17.8213 30.1412 18.5095 29.8976 19.0353 29.4957C20.1211 30.6713 21.1769 31.539 21.6343 32.2358C21.0102 32.1461 20.1168 32.3341 19.7193 33.1549C19.5312 32.954 19.4713 32.9198 19.2875 32.706C19.2191 32.6291 18.9071 32.3256 18.5608 32.3213H18.5523Z" fill="#6795CF"/>
<path fill-rule="evenodd" clip-rule="evenodd" d="M15.2607 19.2405L15.9447 20.0527L15.3719 20.3092C15.389 20.2621 15.2607 19.2405 15.2607 19.2405Z" fill="#222221"/>
<path fill-rule="evenodd" clip-rule="evenodd" d="M13.662 18.3644L14.363 18.7491L14.2348 19.5143L13.7475 19.3732C13.7475 19.3732 13.1704 19.2279 13.2601 19.8777C13.2986 20.1726 13.6919 20.3351 13.6919 20.3351L14.0424 20.4718L14.1707 21.7372C13.414 21.2327 12.8968 20.6086 12.7386 20.0572C12.277 18.4371 13.3157 17.7916 13.803 17.6847C14.3801 17.5779 14.8674 17.7702 15.2949 18.2447L13.6577 18.3687L13.662 18.3644Z" fill="#222221"/>
<path d="M6.79677 15.9448C6.82669 15.9448 6.85234 15.9448 6.87799 15.9448C6.05724 15.9833 5.58702 16.5689 5.58702 17.4153C5.58702 18.2617 6.29663 18.997 7.16867 18.997C7.25416 18.997 7.33966 18.9927 7.4166 18.9799C7.22424 19.0611 7.01478 19.1081 6.79249 19.1081C5.91617 19.1081 5.21085 18.3985 5.21085 17.5265C5.21085 16.6544 5.92045 15.9448 6.79249 15.9448H6.79677Z" fill="#222221"/>
<path d="M10.084 24.9732C9.60528 24.8407 9.14361 24.7167 8.91705 24.6612C8.18607 24.4773 7.75005 24.2978 7.51921 24.1354C7.32685 23.9986 7.18579 23.383 7.17724 23.3488C7.17724 23.3488 6.51038 20.6472 6.42061 20.3522C6.32657 20.0573 5.99741 19.7452 5.74948 19.5571L5.61696 19.4588L5.27926 19.2237C5.13392 19.1211 4.97576 19.0185 4.81332 18.8518C4.77912 18.7834 4.77057 18.7278 4.77057 18.6936V18.6338C4.77057 18.6338 4.84751 18.0097 4.89454 17.6934C4.96721 18.5184 5.56139 19.1938 6.37359 19.3861C6.5574 19.5571 6.73267 19.7666 6.79251 19.9675C6.88656 20.2625 7.54914 22.9641 7.54914 22.9641C7.55769 22.9983 7.69875 23.6138 7.88684 23.7506C8.11767 23.9174 8.5537 24.0926 9.28467 24.2764C9.48131 24.3277 9.76772 24.426 10.1567 24.5372C10.1353 24.7039 10.1097 24.8535 10.0883 24.9689L10.084 24.9732Z" fill="#222221"/>
<path d="M16.4491 22.5708H16.4747C16.2824 23.259 16.1242 25.2639 16.1114 25.2468C16.0943 25.2468 14.7307 23.6523 14.1963 23.2377C14.6965 23.5711 15.7267 23.9729 15.7737 24.0114C15.7737 23.9601 16.2439 23.1137 16.4491 22.5708ZM18.3086 28.8076C17.9538 29.0983 17.4194 29.4574 16.8894 29.5386C16.0601 29.6626 15.0427 29.0855 14.8332 28.9615C14.799 28.3459 14.4186 27.0464 13.6363 26.3582C13.2259 25.9991 12.6318 25.6999 12.0675 25.5204C12.0675 25.5204 11.9863 25.499 11.8367 25.4562L11.6913 25.4178L10.4046 25.0587C10.4388 24.892 10.4816 24.6569 10.503 24.3961C10.52 24.1439 10.5371 23.9002 10.5457 23.725C10.6953 23.7506 10.8706 23.7677 11.0544 23.7891C11.0544 23.9002 11.0458 24.0199 11.033 24.161C10.9988 24.4773 10.9945 24.5585 10.9603 24.7253L12.4266 25.11C12.9908 25.2895 13.585 25.6443 13.9954 26.0034C14.7777 26.6916 15.2436 27.88 15.2778 28.4998C15.4873 28.6238 16.4234 29.3633 17.2527 29.2351C17.6888 29.1667 18.0393 28.9957 18.3129 28.8119L18.3086 28.8076ZM20.2621 23.6352L20.2707 24.0413L19.7876 24.0755C19.2875 24.0841 18.9797 24.1268 18.7916 24.2166C18.89 23.8532 19.2234 23.6651 20.1681 23.648L20.2664 23.6352H20.2621Z" fill="#222221"/>
<path d="M20.5699 22.575H21.0273L21.0444 23.6565C21.4035 23.6436 21.6343 23.6907 21.7968 23.7377C22.1858 23.8531 22.267 24.1309 22.4422 24.4516C22.6346 24.8149 22.8141 25.2296 23.0749 25.5502C23.2715 25.7981 24.1521 26.6017 24.0538 27.0249C23.994 27.2814 23.8614 27.6063 23.6862 27.8329L23.9427 27.7858C24.1222 27.7388 24.1949 27.6961 24.2675 27.6918C24.3701 27.6832 24.4813 27.7516 24.9045 27.9825C25.0114 28.038 25.3833 28.3672 25.6397 28.5553C25.6996 28.6066 25.7552 28.6579 25.8107 28.7049C25.7295 28.7049 25.6355 28.6921 25.5457 28.6921C25.4174 28.6921 24.7762 28.2817 24.6266 28.2005C23.8999 27.8072 23.8401 28.2133 23.3656 28.2133H23.0877H23.0279C23.2031 27.9867 23.6776 27.3712 23.7161 27.1104C23.7674 26.7385 22.998 26.0161 22.797 25.7682C22.5406 25.4476 22.3567 25.0329 22.1644 24.6696C21.9891 24.3447 21.8908 24.1822 21.5018 24.0668C21.3394 24.0198 21.194 24.0113 21.194 24.0113C21.194 24.0113 20.9632 24.0113 20.6041 24.0241L20.5785 22.575H20.5699Z" fill="#222221"/>
<path d="M12.8284 33.4712C13.6748 33.6123 14.175 33.8174 14.8418 34.4245C14.1109 34.0782 13.8116 34.0141 13.1277 33.9414C12.8242 34.4116 12.4309 35.117 12.3582 35.3606C12.0761 36.2583 11.6956 36.6986 11.1784 36.9722C11.1784 36.9722 10.1952 37.3954 9.80194 37.6519C9.90453 38.0409 10.2978 38.6693 10.6312 38.9599C10.3277 38.7932 9.99858 38.5838 9.76774 38.3401C9.55828 38.1178 9.37019 37.7502 9.22913 37.4168C9.6224 37.1603 10.0114 37.0149 10.3748 36.8482C10.3748 36.8482 10.456 36.814 10.5286 36.7798C10.6013 36.7456 10.6783 36.7029 10.6783 36.7029C11.1955 36.4293 11.6358 36.0488 11.9137 35.1512C11.9906 34.9075 12.5249 33.9414 12.8327 33.4712H12.8284Z" fill="#222221"/>
<path d="M21.5873 36.925C21.5873 36.925 21.6044 36.8566 21.6258 36.7669C21.6429 36.6814 21.6557 36.6002 21.6557 36.6002C21.6856 36.4249 21.7027 36.2454 21.7027 36.0573C21.7027 35.8692 21.6258 35.6939 21.4975 35.5486C21.1085 35.1126 20.4973 34.6252 20.0356 34.2063C20.3733 33.33 20.7537 33.1163 21.613 32.8854C21.7968 32.8341 21.9592 32.7999 22.0661 32.7786C21.1427 33.1077 20.6725 33.4283 20.587 34.0781C21.0444 34.4927 21.4804 34.9202 21.8694 35.3562C21.9977 35.5016 22.1302 35.7067 22.1516 35.9077C22.1729 36.1128 22.1687 36.3693 22.1003 36.737C21.9464 37.3696 21.801 37.6945 21.66 38.3485C21.9293 38.7204 22.6474 38.8914 23.2245 38.8615C22.9424 38.8786 22.5833 38.9427 22.1473 38.9384C21.7198 38.9299 21.365 38.8316 21.1085 38.7888C21.1684 38.1305 21.4334 37.562 21.5916 36.9293L21.5873 36.925Z" fill="#222221"/>
<path fill-rule="evenodd" clip-rule="evenodd" d="M22.1259 39.2637C22.4722 39.2637 22.8227 39.1996 23.169 39.1868C22.8099 39.345 22.3525 39.563 21.5531 39.4775C21.5702 39.6485 21.6985 40.0674 21.6985 40.0674C21.9122 40.9993 22.0319 41.1446 21.8737 41.9996C21.8524 42.1064 21.8395 42.1877 21.784 42.3202C21.831 42.3501 22.2285 42.9058 22.9681 42.5168C22.5491 42.9101 21.9763 42.8289 21.5147 42.6023C21.4292 42.5596 21.3565 42.5211 21.3052 42.4869C21.3565 42.3544 21.4035 42.2304 21.4292 42.1235C21.6728 41.0848 21.3864 40.653 21.1727 39.7211C21.1727 39.7211 21.1513 39.61 21.1385 39.5416C21.1257 39.4689 21.1128 39.3749 21.1128 39.3749C21.1043 39.2894 21.1 39.2082 21.0957 39.127C21.4377 39.1825 21.7797 39.2595 22.1302 39.2637H22.1259Z" fill="#222221"/>
<path d="M7.53203 40.2551C7.36532 40.2038 7.1986 40.1525 7.03189 40.1054C7.10456 40.0242 7.17296 39.9345 7.24135 39.8361C7.65173 39.2334 8.01508 38.5708 8.50667 38.0322C8.65201 37.874 8.79735 37.7372 8.94269 37.6218C9.23765 38.3015 9.6352 38.7674 10.3619 39.1864C9.68222 38.8529 9.24192 38.9427 8.96406 38.3015C8.81872 38.4169 8.7888 38.5238 8.64346 38.6862C8.15187 39.2291 7.98088 39.5967 7.57051 40.1995L7.52776 40.2593L7.53203 40.2551Z" fill="#222221"/>
<path d="M21.1727 42.8029C21.6985 43.1235 22.3397 43.256 22.8783 42.9653C22.391 43.3116 22.143 43.3799 21.4762 43.1919C21.3864 43.3928 21.3693 43.4355 21.3907 43.5766C21.4334 43.8502 21.4975 43.9912 21.6087 44.0639C21.2795 44.0169 21.1085 43.8587 21.0359 43.3757C21.0145 43.2346 21.0872 43.0209 21.1727 42.7943V42.8029Z" fill="#222221"/>
<path d="M17.4964 14.8633C17.3639 14.7821 17.2485 14.6496 17.1673 14.4444L17.1545 14.3845V14.3033L17.1716 14.2178L17.2271 14.111L17.2742 14.0511L17.3425 13.9998L17.4409 13.9613L18.236 13.9015C18.2231 13.7946 18.2402 13.6707 18.3129 13.5424L18.3557 13.4911L18.4497 13.4142L18.501 13.3843L18.548 13.3672L18.6164 13.3586C18.8601 13.3714 19.3859 13.692 19.5355 13.6407L19.7364 13.4398C19.6936 13.3757 19.6594 13.2988 19.6295 13.2133L19.621 13.1705V13.1149V13.0551L19.6423 12.9696L19.7022 12.8756C19.9715 12.6533 20.228 12.6618 20.4075 12.6747L20.4973 12.6832C20.1724 12.0591 18.8814 11.7513 18.2915 11.4136C16.9749 10.61 16.5475 9.33182 15.4788 8.4555C14.953 8.12635 14.6965 7.23293 14.2391 7.07477C13.6278 6.9166 13.055 7.13889 12.4266 6.84393L12.3582 6.78836L12.2685 6.66439L12.2385 6.59172L12.2257 6.5105L12.2343 6.41646C12.4266 5.90777 12.9695 5.60426 13.3628 5.49739H13.4013C14.7008 5.42045 15.513 4.25345 16.992 4.99298L18.7746 5.76243C22.2585 5.63846 25.1525 7.91689 26.9265 10.5758C27.6788 11.0588 28.5124 11.4777 29.051 12.2173L29.0809 12.2771L29.1023 12.3626V12.4566L29.0681 12.5806L29.0296 12.6533L28.9698 12.7217L28.88 12.773L28.8116 12.7901C29.4357 13.38 29.9231 14.0383 29.7093 14.983L29.658 15.0728L29.316 15.3934L29.2733 15.4233L29.2006 15.4575L29.1194 15.4746C27.9182 15.4532 26.8965 15.0642 25.7894 14.6496L25.7466 14.6239C25.1738 14.1965 24.7635 13.6108 24.2548 13.1235C23.8743 12.7601 23.5152 12.5507 23.0365 12.6063C22.9339 12.7858 22.78 12.9226 22.656 13.085L22.6218 13.132L22.6603 13.1577L22.7244 13.2261C22.7501 13.2774 22.7885 13.2945 22.9082 13.3073L23.0621 13.3244C23.293 13.3501 23.6392 13.4313 23.6734 13.91V13.9656L23.6478 14.0383L23.6136 14.1067L23.5409 14.1922L23.4853 14.2349L23.4169 14.2691L23.3272 14.2905C22.5748 14.252 21.4762 13.7433 20.8008 14.158L20.835 14.1665C20.9803 14.2221 21.4848 13.8117 21.8909 14.3674L21.9122 14.4145L21.9336 14.4786L21.9421 14.5513V14.6538L21.9208 14.7137L21.8909 14.7778L21.8396 14.8462C21.1684 15.3805 20.5614 15.107 19.8347 15.1112C19.6552 15.1112 19.5056 15.1412 19.3688 15.2181L19.3346 15.2352C18.7532 15.4233 18.3172 15.7439 17.6674 15.7054L17.6119 15.6926L17.5435 15.667L17.4793 15.6242L17.4024 15.543L17.3639 15.4874L17.334 15.4147L17.3254 15.325C17.3554 15.1155 17.4238 14.9702 17.5178 14.8633H17.4964Z" fill="white"/>
<path d="M17.5221 14.3074L17.505 14.3416C17.6119 14.5852 17.7743 14.628 17.9624 14.6237L18.0094 14.9742L17.9538 14.9913C17.817 15.0341 17.7059 15.0982 17.6589 15.329C18.2231 15.376 18.6891 15.0683 19.1807 14.9058C19.3816 14.7947 19.5996 14.7605 19.8091 14.7605C20.4032 14.7605 21.0145 14.9999 21.5574 14.6023V14.5681C21.3266 14.2689 21.006 14.6109 20.7025 14.5168C20.5229 14.4869 20.3861 14.3886 20.322 14.2176L20.3691 14.0295C21.2112 13.2643 22.3183 13.8713 23.263 13.944L23.2844 13.9141C23.263 13.7346 23.1733 13.7004 22.9937 13.6833L22.8441 13.6704C22.7372 13.6576 22.5235 13.6362 22.3995 13.4396C21.908 13.0848 22.5919 12.7086 22.7287 12.3837L22.8612 12.2769C24.2419 12.046 24.9772 13.6277 25.9134 14.3373C26.9735 14.7348 27.9139 15.0982 29.0638 15.1238L29.346 14.8588C29.5383 13.8628 28.7945 13.3114 28.1875 12.7257L28.3542 12.4265C28.4825 12.4607 28.5765 12.4735 28.709 12.4479L28.7176 12.4094C28.2046 11.7254 27.3796 11.3151 26.6785 10.8619L26.6272 10.8106C24.8832 8.18169 22.0661 5.98876 18.7233 6.12555L18.6463 6.11273L16.8168 5.31763C15.5728 4.69779 14.6281 5.77502 13.4226 5.85197C13.0978 5.94601 12.7216 6.17257 12.572 6.49745L12.6062 6.54447C13.149 6.77531 13.7732 6.5915 14.3374 6.74111C15.0171 6.97622 15.1197 7.83116 15.6626 8.16459C16.7398 9.03664 17.2613 10.3789 18.4583 11.1099C19.2234 11.5459 20.6426 11.7853 20.8991 12.777L20.8307 12.9651C20.5657 13.1617 20.275 12.9053 19.9587 13.1233C19.9972 13.2259 20.0313 13.2772 20.0784 13.3156L20.0912 13.5807L19.7492 13.9226L19.7107 13.9526C19.4115 14.1278 19.061 13.8927 18.7874 13.7816C18.7019 13.7474 18.6335 13.7303 18.6335 13.7217L18.595 13.7517C18.5523 13.8457 18.5737 13.9013 18.6164 13.9568L18.4924 14.2475L17.5135 14.3202L17.5221 14.3074Z" fill="#222221"/>
</svg>
