<svg width="129" height="43" viewBox="0 0 129 43" fill="none" xmlns="http://www.w3.org/2000/svg">
<path d="M50.874 7.28125H56.0481C59.1578 7.28125 61.494 9.1803 61.494 13.0571C61.494 16.446 59.7118 18.9746 56.0481 18.9746H50.874V7.28125ZM53.5133 16.8132H55.8652C57.3965 16.8132 58.8547 15.8952 58.8547 13.3089C58.8547 10.9482 58.0133 9.4426 55.3896 9.4426H53.5133V16.8132Z" fill="#872135"/>
<path d="M65.7483 9.20116H63.3598V7.28638H65.7483V9.20116ZM63.3598 10.5074H65.7483V18.9744H63.3598V10.5074Z" fill="#872135"/>
<path d="M67.9329 10.5076H70.2011V11.583H70.2377C70.8074 10.6807 71.7481 10.2715 72.83 10.2715C75.5477 10.2715 76.7759 12.4171 76.7759 14.825C76.7759 17.086 75.4954 19.1949 72.9606 19.1949C71.9206 19.1949 70.9276 18.7543 70.3579 17.9201H70.3265V21.9491H67.9381V10.5023L67.9329 10.5076ZM74.3874 14.7621C74.3874 13.4243 73.8334 12.0289 72.3073 12.0289C70.7812 12.0289 70.2377 13.3876 70.2377 14.7621C70.2377 16.1365 70.776 17.4532 72.3178 17.4532C73.8596 17.4532 74.3874 16.1417 74.3874 14.7621Z" fill="#872135"/>
<path d="M86.5754 18.9746H84.3071V17.7942H84.2548C83.6538 18.7438 82.6085 19.2054 81.5998 19.2054C79.0598 19.2054 78.4274 17.8152 78.4274 15.7168V10.5128H80.8107V15.2919C80.8107 16.6821 81.2288 17.3693 82.342 17.3693C83.6329 17.3693 84.1869 16.6716 84.1869 14.9457V10.5076H86.5754V18.9746Z" fill="#872135"/>
<path d="M91.8018 10.5076H93.5526V12.0604H91.8018V16.2572C91.8018 17.0388 92.0056 17.2434 92.8105 17.2434C93.0613 17.2434 93.2965 17.2224 93.5526 17.1752V18.9956C93.1502 19.0585 92.6276 19.0795 92.1572 19.0795C90.6938 19.0795 89.4186 18.749 89.4186 17.0651V12.0656H87.9761V10.5128H89.4186V7.97375H91.807V10.5128L91.8018 10.5076Z" fill="#872135"/>
<path d="M95.3871 13.1093C95.5177 10.9375 97.5194 10.2765 99.4689 10.2765C101.199 10.2765 103.279 10.6542 103.279 12.6844V17.091C103.279 17.8569 103.368 18.6281 103.582 18.9743H101.167C101.084 18.7068 101.016 18.4288 100.995 18.1507C100.237 18.9166 99.1291 19.1999 98.0734 19.1999C96.4219 19.1999 95.1153 18.3973 95.1153 16.6661C95.1153 14.7461 96.5891 14.2844 98.0734 14.0903C99.5316 13.8752 100.896 13.9329 100.896 12.9782C100.896 11.9762 100.19 11.8293 99.3487 11.8293C98.4393 11.8293 97.8539 12.1913 97.7703 13.1093H95.3818H95.3871ZM100.901 14.83C100.498 15.1658 99.657 15.1867 98.9201 15.3179C98.178 15.4648 97.5037 15.7113 97.5037 16.5664C97.5037 17.4215 98.1936 17.6471 98.9671 17.6471C100.833 17.6471 100.901 16.2045 100.901 15.6956V14.83Z" fill="#872135"/>
<path d="M111.108 13.4873C110.951 12.5325 110.329 12.0236 109.336 12.0236C107.805 12.0236 107.303 13.5345 107.303 14.7778C107.303 16.0211 107.789 17.4532 109.289 17.4532C110.397 17.4532 111.035 16.766 111.186 15.7273H113.486C113.188 17.9674 111.589 19.2002 109.305 19.2002C106.681 19.2002 104.92 17.3955 104.92 14.8565C104.92 12.3174 106.535 10.2715 109.352 10.2715C111.406 10.2715 113.287 11.3207 113.439 13.482H111.108V13.4873Z" fill="#872135"/>
<path d="M117.761 9.20116H115.373V7.28638H117.761V9.20116ZM115.373 10.5074H117.761V18.9744H115.373V10.5074Z" fill="#872135"/>
<path d="M123.996 10.2767C126.73 10.2767 128.501 12.0446 128.501 14.7516C128.501 17.4585 126.735 19.2054 123.996 19.2054C121.258 19.2054 119.507 17.4323 119.507 14.7516C119.507 12.0709 121.273 10.2767 123.996 10.2767ZM123.996 17.4533C125.627 17.4533 126.113 16.0893 126.113 14.7463C126.113 13.4034 125.627 12.0237 123.996 12.0237C122.366 12.0237 121.895 13.3824 121.895 14.7463C121.895 16.1103 122.381 17.4533 123.996 17.4533ZM124.399 9.46362H122.737L124.346 7.1344H126.986L124.393 9.46362H124.399Z" fill="#872135"/>
<path d="M50.8374 24.509H56.3199C58.5411 24.509 60.0411 25.2277 60.0411 27.4048C60.0411 28.5537 59.4714 29.3563 58.4575 29.8442C59.8738 30.2534 60.5951 31.3551 60.5951 32.8082C60.5951 35.1846 58.5829 36.2023 56.4819 36.2023H50.8374V24.509ZM53.4036 29.2409H55.9958C56.8896 29.2409 57.5638 28.837 57.5638 27.8507C57.5638 26.7438 56.7171 26.5025 55.8025 26.5025H53.4036V29.2409ZM53.4036 34.2036H56.1474C57.1561 34.2036 58.0394 33.8784 58.0394 32.6665C58.0394 31.4547 57.292 31.0036 56.1997 31.0036H53.4088V34.2089L53.4036 34.2036Z" fill="#872135"/>
<path d="M62.0166 30.3427C62.1525 28.1604 64.0915 27.5046 65.9834 27.5046C67.6611 27.5046 69.6889 27.8876 69.6889 29.9178V34.3192C69.6889 35.0956 69.7726 35.8667 69.9764 36.2077H67.6245C67.5461 35.9454 67.4782 35.6674 67.4677 35.3894C66.7308 36.1605 65.6542 36.4333 64.6246 36.4333C63.0253 36.4333 61.7501 35.6359 61.7501 33.8995C61.7501 31.9795 63.1873 31.5231 64.6246 31.329C66.0461 31.1139 67.3684 31.1611 67.3684 30.2168C67.3684 29.2201 66.6838 29.0732 65.8684 29.0732C64.9852 29.0732 64.4155 29.4352 64.3371 30.3532H62.0166V30.3427ZM67.3684 32.0582C66.9764 32.3991 66.1611 32.4149 65.4399 32.546C64.7239 32.6929 64.0706 32.9395 64.0706 33.7893C64.0706 34.6392 64.7396 34.87 65.4869 34.87C67.3005 34.87 67.3684 33.4326 67.3684 32.9237V32.0582Z" fill="#872135"/>
<path d="M71.513 27.7355H73.7133V29.304H73.7499C74.1732 28.2443 75.3126 27.5046 76.4415 27.5046C76.6035 27.5046 76.7969 27.5414 76.9432 27.5938V29.7552C76.7289 29.6975 76.3892 29.6712 76.1122 29.6712C74.4136 29.6712 73.8283 30.904 73.8283 32.3887V36.2077H71.513V27.7407V27.7355Z" fill="#872135"/>
<path d="M83.3455 30.7151C83.1939 29.7708 82.5929 29.2567 81.6312 29.2567C80.1469 29.2567 79.6556 30.7675 79.6556 32.0108C79.6556 33.2541 80.1312 34.681 81.5789 34.681C82.6608 34.681 83.2775 33.9938 83.4291 32.9603H85.666C85.3681 35.2056 83.8211 36.4279 81.5999 36.4279C79.0546 36.4279 77.3456 34.6286 77.3456 32.0895C77.3456 29.5505 78.9083 27.4993 81.6521 27.4993C83.6434 27.4993 85.4674 28.5485 85.6137 30.7098H83.3455V30.7151Z" fill="#872135"/>
<path d="M88.9063 32.5355C88.9743 34.0044 89.6903 34.6812 90.976 34.6812C91.9063 34.6812 92.6536 34.1041 92.8052 33.5847H94.8435C94.1902 35.5835 92.8052 36.4333 90.8924 36.4333C88.2321 36.4333 86.5858 34.6025 86.5858 31.9795C86.5858 29.3565 88.3314 27.5046 90.8924 27.5046C93.7669 27.5046 95.1519 29.9335 94.9898 32.5355H88.9063ZM92.6798 31.0562C92.4655 29.8811 91.9638 29.2568 90.8296 29.2568C89.3662 29.2568 88.9377 30.4004 88.9063 31.0562H92.6746H92.6798Z" fill="#872135"/>
<path d="M96.4637 24.509H98.779V36.2023H96.4637V24.509Z" fill="#872135"/>
<path d="M104.737 27.5046C107.397 27.5046 109.106 29.2778 109.106 31.9795C109.106 34.6812 107.392 36.4333 104.737 36.4333C102.082 36.4333 100.378 34.6654 100.378 31.9795C100.378 29.2935 102.087 27.5046 104.737 27.5046ZM104.737 34.6812C106.321 34.6812 106.791 33.3224 106.791 31.9742C106.791 30.626 106.321 29.2568 104.737 29.2568C103.153 29.2568 102.699 30.6155 102.699 31.9742C102.699 33.3329 103.169 34.6812 104.737 34.6812Z" fill="#872135"/>
<path d="M110.643 27.7355H112.843V28.9158H112.89C113.481 27.9663 114.49 27.5046 115.472 27.5046C117.934 27.5046 118.561 28.8948 118.561 31.0037V36.2077H116.24V31.4286C116.24 30.0332 115.838 29.3512 114.756 29.3512C113.502 29.3512 112.963 30.0489 112.963 31.7696V36.2077H110.648V27.7407L110.643 27.7355Z" fill="#872135"/>
<path d="M120.254 30.3427C120.385 28.1604 122.324 27.5046 124.221 27.5046C125.904 27.5046 127.927 27.8876 127.927 29.9178V34.3192C127.927 35.0956 128.01 35.8667 128.224 36.2077H125.873C125.789 35.9454 125.726 35.6674 125.711 35.3894C124.974 36.1605 123.897 36.4333 122.873 36.4333C121.273 36.4333 119.998 35.6359 119.998 33.8995C119.998 31.9795 121.43 31.5231 122.873 31.329C124.289 31.1139 125.611 31.1611 125.611 30.2168C125.611 29.2201 124.927 29.0732 124.111 29.0732C123.233 29.0732 122.658 29.4352 122.575 30.3532H120.259L120.254 30.3427ZM125.606 32.0582C125.214 32.3991 124.399 32.4149 123.683 32.546C122.967 32.6929 122.308 32.9395 122.308 33.7893C122.308 34.6392 122.982 34.87 123.725 34.87C125.538 34.87 125.601 33.4326 125.601 32.9237V32.0582H125.606Z" fill="#872135"/>
<path d="M21.125 16.9026L19.7557 18.2875V23.565H14.5241L13.1443 24.9499L14.5241 26.3296H19.7557V31.6019L21.125 32.9868L22.51 31.6019V26.3296H27.7468L29.1266 24.9499L27.7468 23.565H22.51V18.2875L21.125 16.9026ZM21.1355 0C9.45975 0 0 9.49524 0 21.2095C0 32.9238 9.45975 42.4243 21.1355 42.4243C32.8112 42.4243 42.2762 32.9291 42.2762 21.2095C42.2762 9.49 32.806 0 21.1355 0ZM28.8548 8.07358C29.3095 8.07358 29.6806 8.44605 29.6806 8.90769C29.6806 9.36934 29.3095 9.74181 28.8548 9.74181C28.4001 9.74181 28.0238 9.36934 28.0238 8.90769C28.0238 8.44605 28.3949 8.07358 28.8548 8.07358ZM13.1496 12.496H29.0796V13.052H13.1496V12.496ZM26.0953 14.1589V19.1216L23.6128 16.6245V14.1589H26.0953ZM18.6477 14.1589V16.635L16.1652 19.1216V14.1589H18.6477ZM14.2419 14.1589V21.0574L11.7594 23.544V14.1589H14.2419ZM13.1496 10.5654H29.1214V11.6671H13.1496V10.5654ZM28.0238 14.1589H30.5064V23.544L28.0238 21.0522V14.1589ZM27.4698 8.90769C27.4698 9.36409 27.0988 9.74181 26.6441 9.74181C26.1894 9.74181 25.8131 9.36934 25.8131 8.90769C25.8131 8.44605 26.1842 8.07358 26.6441 8.07358C27.104 8.07358 27.4698 8.44605 27.4698 8.90769ZM25.5465 6.14306C26.0117 6.14306 26.3775 6.51552 26.3775 6.97717C26.3775 7.43882 26.0117 7.81128 25.5465 7.81128C25.0814 7.81128 24.726 7.42832 24.726 6.97717C24.726 6.52601 25.0971 6.14306 25.5465 6.14306ZM24.4542 8.07358C24.9089 8.07358 25.28 8.44605 25.28 8.90769C25.28 9.36934 24.9089 9.74181 24.4542 9.74181C23.9995 9.74181 23.6285 9.36934 23.6285 8.90769C23.6285 8.44605 23.9943 8.07358 24.4542 8.07358ZM23.0745 8.90769C23.0745 9.36409 22.7034 9.74181 22.2435 9.74181C21.7835 9.74181 21.4177 9.36934 21.4177 8.90769C21.4177 8.44605 21.7888 8.07358 22.2435 8.07358C22.6982 8.07358 23.0745 8.44605 23.0745 8.90769ZM21.1355 6.14306C21.5954 6.14306 21.9665 6.51552 21.9665 6.97717C21.9665 7.43882 21.5954 7.81128 21.1355 7.81128C20.6756 7.81128 20.3097 7.42832 20.3097 6.97717C20.3097 6.52601 20.6808 6.14306 21.1355 6.14306ZM20.0327 8.07358C20.4822 8.07358 20.8585 8.44605 20.8585 8.90769C20.8585 9.36934 20.4822 9.74181 20.0327 9.74181C19.5832 9.74181 19.2017 9.36934 19.2017 8.90769C19.2017 8.44605 19.5728 8.07358 20.0327 8.07358ZM18.6477 8.90769C18.6477 9.36409 18.2766 9.74181 17.8167 9.74181C17.3568 9.74181 16.991 9.36934 16.991 8.90769C16.991 8.44605 17.362 8.07358 17.8167 8.07358C18.2714 8.07358 18.6477 8.44605 18.6477 8.90769ZM16.7244 6.14306C17.1843 6.14306 17.5554 6.51552 17.5554 6.97717C17.5554 7.43882 17.1843 7.81128 16.7244 7.81128C16.2645 7.81128 15.8934 7.42832 15.8934 6.97717C15.8934 6.52601 16.2697 6.14306 16.7244 6.14306ZM15.6269 8.07358C16.0816 8.07358 16.4474 8.44605 16.4474 8.90769C16.4474 9.36934 16.0816 9.74181 15.6269 9.74181C15.1722 9.74181 14.8011 9.36934 14.8011 8.90769C14.8011 8.44605 15.1722 8.07358 15.6269 8.07358ZM14.2523 8.90769C14.2523 9.36409 13.876 9.74181 13.4213 9.74181C12.9666 9.74181 12.5956 9.36934 12.5956 8.90769C12.5956 8.44605 12.9614 8.07358 13.4213 8.07358C13.8813 8.07358 14.2523 8.44605 14.2523 8.90769ZM12.3133 6.14306C12.768 6.14306 13.1391 6.51552 13.1391 6.97717C13.1391 7.43882 12.768 7.81128 12.3133 7.81128C11.8587 7.81128 11.4824 7.42832 11.4824 6.97717C11.4824 6.52601 11.8534 6.14306 12.3133 6.14306ZM14.2419 36.2918H11.7594V26.3454L14.2419 28.832V36.2918ZM18.6477 36.2918H16.1652V30.7677L18.6477 33.2596V36.2918ZM26.0953 36.2918H23.6128V33.2648L26.0953 30.773V36.2918ZM30.5064 36.2918H28.0238V28.8425L30.5064 26.3506V36.2918ZM21.1355 34.5239L11.5921 24.9499L21.1355 15.3708L30.6841 24.9499L21.1355 34.5239ZM29.9576 7.81128C29.4977 7.81128 29.1318 7.42832 29.1318 6.97717C29.1318 6.52601 29.4977 6.14306 29.9576 6.14306C30.4175 6.14306 30.7834 6.51552 30.7834 6.97717C30.7834 7.43882 30.4123 7.81128 29.9576 7.81128Z" fill="#872135"/>
</svg>
