<svg width="177" height="59" viewBox="0 0 177 59" fill="none" xmlns="http://www.w3.org/2000/svg">
<g clip-path="url(#clip0_90_489)">
<path d="M86.3761 45.5711C85.2104 45.2209 83.9648 45.0087 82.3892 45.0087C77.7848 45.0087 74.9424 47.6085 74.9424 52.2351C74.9424 56.8617 77.9924 58.9999 82.3892 58.9999C83.8477 58.9999 85.3435 58.6869 86.7807 58.2996V51.0148H81.298V53.1424H84.1724V56.6707C83.704 56.7874 83.1238 56.8617 82.3839 56.8617C79.4882 56.8617 77.7795 54.7872 77.7795 52.0388C77.7795 49.2904 79.5308 47.1363 82.698 47.1363C83.7892 47.1363 85.1465 47.3697 86.1952 47.8526L86.3708 45.5658L86.3761 45.5711Z" fill="#2B2B2B"/>
<path d="M89.4688 58.7665H92.0718V55.1055C92.0718 53.6677 92.0717 51.036 94.1903 51.036C94.6587 51.036 95.1271 51.1103 95.3614 51.2482V48.6325C95.0846 48.5582 94.8131 48.5582 94.5629 48.5582C93.0086 48.5582 91.9387 50.1287 91.8216 51.0572H91.7843V48.7917H89.4688V58.7665Z" fill="#2B2B2B"/>
<path d="M98.816 55.8802C98.816 54.3468 100.546 54.1558 101.712 54.1558H102.84C102.84 54.9304 102.723 55.6467 102.292 56.2091C101.887 56.7503 101.265 57.1005 100.466 57.1005C99.5346 57.1005 98.8107 56.7344 98.8107 55.8802M97.4959 51.5401C98.3689 50.8821 99.4814 50.4577 100.583 50.4577C102.116 50.4577 102.84 51.0042 102.84 52.6065H101.403C100.312 52.6065 99.0342 52.702 98.0388 53.1902C97.0434 53.673 96.3248 54.5484 96.3248 56.0393C96.3248 57.9388 98.0601 59.0053 99.822 59.0053C101.009 59.0053 102.313 58.3845 102.915 57.2809H102.952C102.973 57.5886 102.973 58.2518 103.069 58.7718H105.363C105.305 57.9972 105.267 57.2968 105.246 56.5434C105.225 55.8059 105.209 55.0472 105.209 54.0444V52.7657C105.209 49.821 103.947 48.5582 100.892 48.5582C99.7848 48.5582 98.4221 48.85 97.4107 49.3116L97.4906 51.5401H97.4959Z" fill="#2B2B2B"/>
<path d="M107.78 58.7666H110.383V53.8853C110.383 52.6066 110.793 50.5745 112.677 50.5745C114.348 50.5745 114.37 52.2193 114.37 53.4396V58.7666H116.973V52.4686C116.973 50.219 115.945 48.553 113.571 48.553C112.209 48.553 111.101 48.9987 110.287 50.1394H110.25V48.7864H107.78V58.7613V58.7666Z" fill="#2B2B2B"/>
<path d="M121.731 53.5351C121.731 52.0442 122.546 50.5745 124.239 50.5745C125.931 50.5745 126.767 52.007 126.767 53.5351C126.767 55.2011 126.24 56.9838 124.239 56.9838C122.237 56.9838 121.731 55.1799 121.731 53.5351ZM119.011 53.8428C119.011 56.7079 120.938 58.9947 124.239 58.9947C127.539 58.9947 129.487 56.7079 129.487 53.8428C129.487 50.5479 127.214 48.553 124.239 48.553C121.263 48.553 119.011 50.5479 119.011 53.8428Z" fill="#2B2B2B"/>
<path d="M134.187 44.234H131.584V58.7612H134.187V44.234Z" fill="#2B2B2B"/>
<path d="M139.585 44.234H136.982V58.7612H139.585V44.234Z" fill="#2B2B2B"/>
<path d="M150.353 56.0925C149.379 56.6336 148.293 57.1006 147.026 57.1006C145.413 57.1006 144.285 56.188 144.168 54.5803H151.088C151.088 51.0944 150.039 48.553 146.324 48.553C143.21 48.553 141.677 50.9353 141.677 53.8216C141.677 57.0952 143.604 58.9947 146.904 58.9947C148.304 58.9947 149.39 58.7241 150.342 58.1988V56.0871L150.353 56.0925ZM144.173 52.7976C144.29 51.4605 145.03 50.4524 146.489 50.4524C147.947 50.4524 148.527 51.5348 148.607 52.7976H144.173Z" fill="#2B2B2B"/>
<path d="M153.19 58.7665H155.793V55.1055C155.793 53.6677 155.793 51.036 157.912 51.036C158.375 51.036 158.843 51.1103 159.078 51.2482V48.6325C158.806 48.5582 158.529 48.5582 158.279 48.5582C156.725 48.5582 155.655 50.1287 155.543 51.0572H155.5V48.7917H153.185V58.7665H153.19Z" fill="#2B2B2B"/>
<path d="M166.817 48.9243C165.997 48.7492 165.204 48.5582 163.98 48.5582C161.936 48.5582 160.052 49.508 160.052 51.6568C160.052 55.2594 164.582 53.9223 164.582 55.8802C164.582 56.8458 163.533 57.1005 162.873 57.1005C161.979 57.1005 161.122 56.8511 160.307 56.4426L160.153 58.5755C161.106 58.8249 162.117 59 163.107 59C165.226 59 167.307 58.0714 167.307 55.7475C167.307 52.1396 162.777 53.1477 162.777 51.5613C162.777 50.7071 163.613 50.4577 164.31 50.4577C165.263 50.4577 165.843 50.6116 166.641 50.8822L166.817 48.9243Z" fill="#2B2B2B"/>
<path d="M75.6077 39.3846H80.3505C82.0592 39.3846 85.1306 38.8806 85.1306 35.469C85.1306 33.8029 83.869 32.5667 82.0166 32.3916V32.3545C83.6295 32.0627 84.7207 30.9378 84.7207 29.3302C84.7207 26.3643 82.0965 25.8602 80.3452 25.8602H75.6024V39.3846H75.6077ZM78.3331 27.9931H79.3817C80.6273 27.9931 82.006 28.1099 82.006 29.6804C82.006 31.0758 80.5847 31.3252 79.4403 31.3252H78.3331V27.9931ZM78.3331 33.3413H79.616C80.9733 33.3413 82.4158 33.6119 82.4158 35.3734C82.4158 36.9439 80.8828 37.2517 79.616 37.2517H78.3331V33.3413Z" fill="#2B2B2B"/>
<path d="M89.0909 36.4982C89.0909 34.9648 90.8208 34.7738 91.9866 34.7738H93.1151C93.1151 35.5485 92.998 36.2648 92.5721 36.8272C92.1622 37.3684 91.5395 37.7185 90.7463 37.7185C89.8148 37.7185 89.0909 37.3471 89.0909 36.4982ZM87.7708 32.1581C88.6437 31.5002 89.7509 31.0757 90.8581 31.0757C92.3965 31.0757 93.1151 31.6169 93.1151 33.2246H91.6778C90.592 33.2246 89.3091 33.3201 88.3137 33.8082C87.3236 34.291 86.605 35.1612 86.605 36.6521C86.605 38.5515 88.335 39.618 90.1022 39.618C91.2893 39.618 92.5881 38.9972 93.1949 37.8936H93.2322C93.2535 38.2067 93.2535 38.8593 93.3493 39.3845H95.6435C95.5849 38.6099 95.5477 37.9095 95.5264 37.1561C95.5051 36.4239 95.4891 35.6652 95.4891 34.6571V33.3784C95.4891 30.4337 94.2276 29.1763 91.1722 29.1763C90.065 29.1763 88.7023 29.4681 87.6909 29.9297L87.7708 32.1581Z" fill="#2B2B2B"/>
<path d="M100.716 24.8522H98.1133V39.3846H100.716V24.8522Z" fill="#2B2B2B"/>
<path d="M105.539 34.1531C105.539 32.6622 106.353 31.1925 108.046 31.1925C109.739 31.1925 110.569 32.6251 110.569 34.1531C110.569 35.8191 110.047 37.6019 108.046 37.6019C106.045 37.6019 105.539 35.8032 105.539 34.1531ZM102.814 34.4609C102.814 37.3313 104.74 39.6127 108.046 39.6127C111.352 39.6127 113.295 37.326 113.295 34.4609C113.295 31.166 111.022 29.171 108.046 29.171C105.07 29.171 102.814 31.166 102.814 34.4609Z" fill="#2B2B2B"/>
<path d="M115.328 39.3846H117.931V34.5033C117.931 33.2246 118.341 31.1925 120.225 31.1925C121.896 31.1925 121.918 32.8373 121.918 34.0576V39.3846H124.521V33.0867C124.521 30.8423 123.493 29.171 121.119 29.171C119.762 29.171 118.655 29.6167 117.835 30.7574H117.798V29.4045H115.328V39.3793V39.3846Z" fill="#2B2B2B"/>
<path d="M127.161 39.3846H129.764V34.5404C129.764 33.2405 129.977 31.1925 131.707 31.1925C133.202 31.1925 133.202 32.5083 133.202 33.4368V39.3846H135.805V34.5404C135.805 33.2405 136.018 31.1925 137.748 31.1925C139.244 31.1925 139.244 32.5083 139.244 33.4368V39.3846H141.847V33.0867C141.847 30.8583 141.144 29.171 138.68 29.171C137.456 29.171 136.151 29.7334 135.55 30.9325C134.986 29.6963 133.99 29.171 132.596 29.171C131.622 29.171 130.44 29.5796 129.62 30.7999H129.583V29.4045H127.156V39.3793L127.161 39.3846Z" fill="#2B2B2B"/>
<path d="M146.329 36.4982C146.329 34.9648 148.059 34.7738 149.225 34.7738H150.353C150.353 35.5485 150.236 36.2648 149.81 36.8272C149.4 37.3684 148.778 37.7185 147.984 37.7185C147.053 37.7185 146.329 37.3471 146.329 36.4982ZM145.009 32.1581C145.882 31.5002 146.989 31.0757 148.096 31.0757C149.635 31.0757 150.353 31.6169 150.353 33.2246H148.916C147.83 33.2246 146.542 33.3201 145.552 33.8082C144.562 34.291 143.843 35.1612 143.843 36.6521C143.843 38.5515 145.573 39.618 147.34 39.618C148.527 39.618 149.831 38.9972 150.433 37.8936H150.47C150.492 38.2067 150.492 38.8593 150.587 39.3845H152.882C152.823 38.6099 152.786 37.9095 152.764 37.1561C152.743 36.4239 152.727 35.6652 152.727 34.6571V33.3784C152.727 30.4337 151.466 29.1763 148.41 29.1763C147.303 29.1763 145.94 29.4681 144.929 29.9297L145.009 32.1581Z" fill="#2B2B2B"/>
<path d="M155.293 39.3846H157.896V34.5033C157.896 33.2246 158.306 31.1925 160.19 31.1925C161.861 31.1925 161.883 32.8373 161.883 34.0576V39.3846H164.486V33.0867C164.486 30.8423 163.453 29.171 161.084 29.171C159.722 29.171 158.614 29.6167 157.8 30.7574H157.763V29.4045H155.293V39.3793V39.3846Z" fill="#2B2B2B"/>
<path d="M169.244 34.1531C169.244 32.6622 170.064 31.1925 171.752 31.1925C173.439 31.1925 174.28 32.6251 174.28 34.1531C174.28 35.8191 173.753 37.6019 171.752 37.6019C169.75 37.6019 169.244 35.8032 169.244 34.1531ZM166.524 34.4609C166.524 37.3313 168.446 39.6127 171.752 39.6127C175.057 39.6127 177 37.326 177 34.4609C177 31.166 174.722 29.171 171.752 29.171C168.781 29.171 166.524 31.166 166.524 34.4609Z" fill="#2B2B2B"/>
<path d="M74.1333 20.1618C75.0062 20.0822 75.8632 20.0079 76.7362 20.0079C77.7689 20.0079 78.8175 20.0822 79.8448 20.1618V19.8912C78.7377 19.5835 77.7635 19.3076 77.7635 19.1378C77.7635 18.7292 78.3491 15.7845 78.7536 14.0814H81.9261C82.0592 14.0814 82.1177 14.0814 82.139 14.161L82.5063 16.2302H82.7991C83.0493 14.6809 83.3633 13.1104 83.7732 11.5612H83.4219L82.4691 13.0733C82.4318 13.1317 82.352 13.1529 82.2934 13.1529H78.9665C79.3179 11.662 79.6266 10.1711 80.0152 8.77033H84.0979C84.2523 8.77033 84.3108 9.04092 84.5823 10.7865H84.8538C85.0667 9.74128 85.3009 8.69075 85.5724 7.7251C84.1352 7.80468 82.6767 7.87896 81.2395 7.87896C79.5095 7.87896 77.7795 7.79938 76.0283 7.7251V7.99569C76.6297 8.14956 77.8966 8.6536 77.8966 8.79155C77.8966 9.2956 76.3583 16.8722 75.7195 19.159C75.6823 19.3129 74.591 19.7055 74.1226 19.8965V20.1671L74.1333 20.1618Z" fill="#2B2B2B"/>
<path d="M96.3727 18.3951C96.1758 18.5118 95.3826 19.0742 95.1697 19.0742C94.9195 19.0742 94.8397 18.8248 94.8397 18.6285C94.8397 18.1828 96.2396 12.251 96.7453 10.7972C96.1012 10.9935 95.4252 11.1262 94.7811 11.2429C94.334 13.3175 94.2169 14.2088 93.2268 15.6042C91.9653 17.4029 90.2353 18.8407 89.9638 18.8407C89.7669 18.8407 89.6551 18.7399 89.6551 18.4906C89.6551 17.7318 91.1722 12.1555 91.1722 11.3968C91.1722 11.105 90.9805 10.776 90.5281 10.776C89.868 10.776 88.1593 11.9963 87.3769 12.4632L87.6111 12.8877C88.154 12.5587 88.7555 12.1714 88.9897 12.1714C89.1814 12.1714 89.2612 12.2669 89.2612 12.5004C89.2612 12.7869 87.7441 18.5436 87.7441 19.5517C87.7441 20.0717 88.1168 20.3476 88.5639 20.3476C90.1235 20.3476 93.1896 16.6442 93.9667 15.3496H94.004C93.8656 15.9703 92.9341 19.0318 92.9341 19.748C92.9341 20.2149 93.3067 20.3476 93.674 20.3476C94.4671 20.3476 95.8883 19.3395 96.6069 18.7187L96.3727 18.3898V18.3951Z" fill="#2B2B2B"/>
<path d="M100.184 12.8346C100.924 12.3889 101.233 12.1767 101.488 12.1767C101.68 12.1767 101.701 12.3518 101.701 12.5056C101.701 12.8346 100.168 19.0688 99.8167 20.3528L101.818 20.0027C102.127 18.082 102.515 16.8033 103.218 15.8376C104.288 14.1504 106.135 12.1767 106.832 12.1767C107.024 12.1767 107.12 12.3305 107.12 12.6011C107.12 13.0839 105.427 18.9786 105.427 19.6153C105.427 20.0239 105.624 20.3528 106.071 20.3528C106.614 20.3528 107.471 19.8859 109.143 18.724L108.908 18.3366C108.616 18.533 107.822 19.0741 107.508 19.0741C107.37 19.0741 107.333 18.9203 107.333 18.7664C107.333 18.204 109.025 12.7232 109.025 11.8477C109.025 11.1898 108.738 10.7812 108.035 10.7812C106.327 10.7812 103.41 14.4847 102.537 16.0339L102.499 15.9915C102.734 15.1585 103.607 11.922 103.607 11.3808C103.607 11.0306 103.474 10.7812 103.144 10.7812C102.542 10.7812 100.732 11.9061 99.9923 12.4101L100.184 12.8399V12.8346Z" fill="#2B2B2B"/>
<path d="M118.474 7.68273C118.979 7.49173 119.272 7.41214 119.443 7.41214C119.64 7.41214 119.655 7.56601 119.655 7.75701C119.655 8.02761 119.246 10.0279 119.054 10.8609C118.878 10.8237 118.607 10.7813 118.357 10.7813C116.121 10.7813 112.235 14.23 112.235 18.0661C112.235 18.9946 112.565 20.3529 113.731 20.3529C115.402 20.3529 117.154 17.891 117.835 16.6123L117.872 16.6495C117.659 17.7318 117.292 19.1113 117.292 19.7692C117.292 20.1353 117.505 20.3529 117.872 20.3529C118.474 20.3529 120.151 19.2281 120.747 18.8407L120.512 18.411C120.241 18.602 119.501 19.0689 119.267 19.0689C119.134 19.0689 119.075 18.9893 119.075 18.8407C119.075 18.0236 121.561 7.25297 121.561 6.80728C121.561 6.49424 121.428 6.24487 121.077 6.24487C120.491 6.24487 118.958 6.99829 118.351 7.25297L118.468 7.68273H118.474ZM114.024 17.4082C114.024 15.5671 115.056 11.8318 117.622 11.8318C118.032 11.8318 118.437 11.9061 118.825 12.0016C118.767 12.4102 118.245 14.7129 118.027 15.2594C117.659 16.1879 115.945 18.846 114.854 18.846C114.194 18.846 114.018 18.2996 114.018 17.4082" fill="#2B2B2B"/>
<path d="M132.069 18.5489C131.776 18.724 131.174 19.0689 130.94 19.0689C130.765 19.0689 130.669 18.9893 130.669 18.8195C130.669 18.3314 131.93 11.9963 132.649 10.9352C132.047 10.8556 131.425 10.776 130.823 10.776C127.363 10.776 123.712 14.9251 123.712 18.273C123.712 19.106 123.946 20.3476 125.186 20.3476C126.426 20.3476 127.965 18.7187 129.466 16.5858H129.503C129.423 17.0898 128.88 19.1273 128.88 19.626C128.88 20.0717 129.189 20.3423 129.737 20.3423C130.222 20.3423 131.116 19.7958 132.303 18.9256L132.069 18.5383V18.5489ZM125.5 17.387C125.5 15.4504 126.9 11.9433 129.253 11.9433C129.774 11.9433 130.11 12.0016 130.44 12.0812C130.227 12.9885 129.838 14.3892 129.45 15.5512C129.098 16.6176 127.198 18.8461 126.357 18.8461C125.617 18.8461 125.5 17.9918 125.5 17.3923" fill="#2B2B2B"/>
<path d="M140.468 17.6787C139.728 18.4958 139.068 18.9574 138.366 18.9574C137.163 18.9574 136.966 17.753 136.966 16.225C136.966 13.8639 137.935 11.8265 139.457 11.8265C139.941 11.8265 140.388 11.8636 140.388 12.6436C140.388 13.0468 140.367 13.3015 140.351 13.4978H140.761L141.597 11.0731C141.283 10.8025 140.894 10.7812 140.548 10.7812C137.828 10.7812 135.183 14.0018 135.183 17.2914C135.183 18.6868 135.475 20.3581 137.338 20.3581C138.563 20.3581 139.691 19.4827 140.82 18.0501L140.468 17.684V17.6787Z" fill="#2B2B2B"/>
<path d="M147.292 8.84464C147.894 8.84464 148.495 8.51568 148.495 7.52881C148.495 7.00354 148.165 6.55786 147.484 6.55786C146.941 6.55786 146.318 6.92396 146.318 7.89491C146.318 8.39896 146.787 8.84464 147.292 8.84464ZM143.87 12.7974C144.413 12.4685 144.876 12.1767 145.147 12.1767C145.397 12.1767 145.461 12.3677 145.461 12.5799C145.461 13.3758 143.827 18.5701 143.827 19.4986C143.827 20.0026 144.04 20.3528 144.588 20.3528C145.137 20.3528 146.047 19.8488 147.521 18.9203L147.33 18.5117C147.074 18.6444 146.318 19.0741 145.988 19.0741C145.834 19.0741 145.733 18.9946 145.733 18.8248C145.733 17.9334 147.367 12.2562 147.367 11.402C147.367 11.0306 147.207 10.7812 146.702 10.7812C146.238 10.7812 145.073 11.4763 143.63 12.4101L143.864 12.7974H143.87Z" fill="#2B2B2B"/>
<path d="M152.344 16.6335C152.344 15.201 153.025 11.8318 154.872 11.8318C156.155 11.8318 156.432 13.3811 156.432 14.543C156.432 16.729 155.495 19.3076 153.904 19.3076C152.312 19.3076 152.349 17.7212 152.349 16.6335M158.215 13.397C158.215 12.0016 157.518 10.7813 155.98 10.7813C153.063 10.7813 150.555 15.2965 150.555 17.7371C150.555 19.2492 151.253 20.3528 152.791 20.3528C156.054 20.3528 158.215 15.6997 158.215 13.397ZM154.484 9.30626H155.085L158.348 7.27415C158.795 6.99825 158.875 6.73297 158.875 6.45707C158.875 6.22361 158.604 5.97424 158.311 5.97424C157.827 5.97424 157.3 6.51543 156.698 7.09906L154.484 9.30626Z" fill="#2B2B2B"/>
<path d="M0 58.6127C1.46914 57.5038 16.7781 54.193 35.4511 54.193C54.1241 54.193 69.4331 57.5038 70.8969 58.6127H0Z" fill="#F9DC0A"/>
<path d="M35.2497 0.00274168L9.66943 25.4913L35.2446 50.9926L60.8249 25.504L35.2497 0.00274168Z" fill="#F9DC0A"/>
<path d="M34.9507 28.7147C34.9454 29.6538 37.1917 32.2643 37.6868 32.9222C38.6342 34.1796 39.6509 36.1162 40.4281 37.5382C40.4281 37.5382 40.5718 37.7928 40.7155 38.1643C41.2532 39.5331 41.1041 40.7004 40.3536 41.9897C39.7467 45.0458 38.1924 51.4127 38.1924 51.4127C38.0381 51.9592 37.9848 52.5004 38.3308 52.7869C38.6289 53.0363 39.1932 53.3281 39.6988 53.5669C40.1992 53.8056 41.9824 54.5803 42.5573 55.0206C42.9086 55.2912 43.0044 55.7741 42.8873 56.0181C42.6904 56.4161 42.4455 56.5911 41.6524 56.5062C40.0395 56.363 35.4511 55.5035 35.4245 55.4982C34.5994 55.3231 34.1416 54.6705 34.131 53.6836C34.1257 52.9779 34.8602 52.1608 35.0998 51.5029C35.7598 49.7255 34.9135 45.1785 35.9142 42.9607C36.3241 42.0587 36.8244 41.2628 36.9681 40.2494C37.0001 39.9894 36.8777 39.8303 36.7339 39.6393C35.9994 38.6683 35.0945 37.8247 34.4397 36.7901C33.9926 36.0844 33.5934 35.1294 32.6512 35.002C31.7516 34.8747 31.1182 34.5988 30.208 34.88C29.9258 34.9649 29.6703 35.1134 29.516 35.3628C28.0894 37.6549 25.018 41.3424 23.0219 41.5175C21.6965 41.6289 21.1802 42.5362 20.1369 43.0137C19.381 43.3586 17.651 44.25 17.3636 44.4675C17.0495 44.7009 15.5484 45.4915 15.0747 45.8947C14.5105 46.7543 14.2496 47.4334 13.4725 49.3382C12.4505 52.2351 12.3334 53.0469 11.4125 52.9036C11.0452 52.8241 10.4118 52.4314 10.4543 51.7364C10.4863 51.3013 10.8429 46.6269 11.141 45.5127C11.4817 44.6744 12.1204 44.6691 12.9774 44.0961C14.0474 43.2684 14.8937 42.3664 15.3834 41.7881C15.8944 41.1832 16.5119 40.52 16.991 40.1221C17.9491 39.3262 19.4183 38.7797 20.0304 38.6842C21.2707 38.4932 22.0318 37.8141 22.5535 36.7158C22.7717 36.2595 24.0333 34.6147 24.5336 34.0947C25.0234 33.5801 25.4119 33.3625 26.5883 31.7231C27.7274 30.1419 28.0788 29.1179 28.1639 28.3168C28.2491 27.505 27.9776 25.5843 27.0461 24.5072C26.4499 23.8122 25.3907 23.1543 24.523 22.8359C24.523 22.8359 21.3984 21.4723 20.5521 21.1328C19.4875 20.703 18.7955 20.3157 18.4122 19.9549C18.0715 19.6366 17.9491 18.8566 17.9172 18.395C17.9172 18.395 17.4913 14.2618 17.4168 13.8055C17.3636 13.4713 16.9644 12.9991 16.7195 12.755L16.0914 12.1714C15.8731 11.9644 15.6389 11.7575 15.458 11.5187C15.2716 11.2216 15.2344 10.8927 15.3196 10.6698L15.5325 9.89518C15.6283 9.56092 15.7188 8.69608 16.2085 8.69608C16.5598 7.17333 17.9065 6.03259 19.5247 6.03259C21.3718 6.03259 22.8729 7.52351 22.8729 9.36461C22.8729 11.2057 21.3771 12.7019 19.5247 12.7019C19.4023 13.5562 19.4129 13.588 19.6897 14.1345C20.1262 15.0046 20.3338 16.3417 20.584 17.2967C20.8927 18.4746 20.9513 18.4215 22.1436 18.7558C23.0219 19.0052 24.1185 19.2121 25.018 19.3713C25.7047 19.4933 28.1852 19.2492 28.5206 19.1219C28.5206 19.1219 28.9464 19.0741 29.1008 18.5489C29.1966 18.0873 28.8293 17.7265 28.6217 17.5142C27.5358 16.5486 27.0301 15.6944 26.8864 14.6651C26.4819 11.7681 28.494 10.8078 29.4787 10.7335C30.6817 10.6804 31.5919 11.2694 32.22 12.3571C32.2786 12.4366 32.3318 12.5428 32.3797 12.6648C32.5607 13.0521 32.6619 13.2856 32.7417 13.6623C32.7417 13.6623 32.6406 14.0496 32.5181 14.299C32.6352 14.4475 32.928 15.1691 32.944 15.4132C32.944 15.4874 32.4383 17.6098 32.433 17.6681C32.433 17.6681 31.922 17.9865 31.5813 18.0607C31.4429 18.0873 32.2307 18.6019 32.5927 18.6444L40.5292 19.7586C40.5292 19.7586 40.7475 19.7904 41.0083 19.87C41.8706 20.1406 42.19 20.7401 42.3657 21.5785C42.3657 21.5785 42.7596 23.3081 42.9778 24.1146L43.5633 26.2687C44.25 28.7359 43.9945 28.0356 45.4743 29.8289C45.7883 30.2109 45.948 30.8105 45.2348 30.7415C45.0804 30.7309 44.8781 30.6725 44.6812 30.6407C43.8348 30.524 43.3025 29.171 42.2592 29.3885C42.0143 29.4416 41.7695 29.5 41.514 29.4681L41.1041 29.4204C40.8486 29.3832 40.3323 29.3249 40.4068 28.9375C40.5239 28.7412 40.8326 28.4494 41.168 28.0992C41.2904 27.9719 41.8014 27.4307 41.8493 27.2662C41.9132 27.054 40.9178 25.648 40.806 25.4676C40.4707 24.9052 40.2737 24.2313 40.0555 23.6159C39.8585 23.08 39.7255 22.8996 39.1346 22.7563C38.6555 22.7139 35.9621 22.4062 35.696 22.5547C35.5043 22.6555 35.4671 22.7776 35.4351 23.0322C35.4138 23.1649 35.3446 23.5787 35.2754 24.2419C35.1211 25.6321 34.9667 27.7597 34.9294 28.6669V28.7147H34.9507Z" fill="#223CC1"/>
<path d="M13.3979 46.2874C13.7652 46.5368 14.2443 46.4996 14.2443 46.4996C14.0846 46.5474 13.6588 46.6588 13.3554 46.5686C12.6793 46.3617 12.4771 45.8258 12.4771 45.8258C12.4771 45.8258 12.2961 45.916 12.195 46.1441C12.0938 46.3776 12.0619 46.9824 12.0299 47.3061C12.0033 47.5767 11.5722 50.9936 11.5562 51.4658C11.5455 51.8372 11.5562 52.129 11.668 52.2404C11.4072 52.198 11.0132 51.885 11.1144 50.983C11.1729 50.463 11.6147 46.2927 11.668 45.9956C11.7425 45.5446 11.9075 45.3854 12.1045 45.2581C12.4398 45.0352 12.6527 44.9185 12.6527 44.9185C12.6527 44.9185 12.8018 45.8735 13.4033 46.2821M31.6451 12.4207C31.1075 11.6196 30.4155 11.2322 29.5319 11.2694C28.7761 11.3278 27.0887 12.0759 27.44 14.5855C27.5624 15.445 28.2065 16.4849 29.2285 17.3922L29.303 15.4822L28.808 15.2063C28.808 15.2063 28.2544 14.8826 28.2597 14.4316C28.2651 13.4394 29.0954 13.779 29.0954 13.779L29.7927 14.0974L30.1441 12.9831L29.1753 12.2669L31.6505 12.426L31.6451 12.4207ZM31.379 13.901L32.236 15.254L31.3204 15.514C31.3524 15.445 31.379 13.8957 31.379 13.8957M17.3263 40.4988C16.48 41.2045 15.7933 42.1118 15.0534 42.9235C14.718 43.2949 13.6055 44.1916 13.185 44.4569C13.185 44.4569 13.1637 45.3323 13.6588 45.8205C14.0846 46.2449 14.4679 46.2449 14.6382 46.2184C14.5051 46.1972 14.2496 46.107 13.893 45.7144C13.4618 45.2421 13.7439 44.6161 13.7439 44.6161C14.1645 44.3508 14.8671 43.9422 15.4207 43.4435C16.2351 42.706 16.5492 42.1913 17.4008 41.491C17.651 41.284 17.7149 41.1302 17.9597 40.9869C18.2419 42.0003 18.9445 41.9473 19.8654 42.5999C18.8647 41.8252 18.3696 41.0453 18.0715 39.9735C17.8267 40.1168 17.5818 40.2866 17.3316 40.4935M43.9572 28.9482C44.1009 29.0543 44.5907 29.622 44.9366 29.9563C44.5694 30.1101 43.6964 29.362 43.4888 29.2135C42.4881 28.476 42.3071 29.0702 41.5991 28.9694L41.1839 28.9163C41.3969 28.6033 42.2379 27.7862 42.3497 27.4042C42.504 26.863 41.5033 25.6215 41.2585 25.2076C40.9391 24.6717 40.7528 24.0191 40.5452 23.4355C40.3536 22.9155 40.2365 22.6502 39.6829 22.4009C39.454 22.3001 39.2357 22.2523 39.2357 22.2523C39.2357 22.2523 38.8897 22.1992 38.3468 22.1462L38.6129 19.9814L39.2996 20.0769L39.0973 21.6899C39.635 21.7483 39.9756 21.8597 40.2045 21.9658C40.7634 22.2152 40.8273 22.6502 41.0189 23.1702C41.2265 23.7538 41.4128 24.4011 41.7322 24.9423C41.9771 25.3562 43.1215 26.7357 42.8873 27.3458C42.7489 27.7172 42.4774 28.1682 42.1687 28.4706L42.5626 28.4547C42.8394 28.4229 42.9565 28.3751 43.0683 28.3805C43.2226 28.3964 43.377 28.5184 43.9625 28.9482M23.0272 36.9174C22.4204 38.1961 21.6805 38.6736 20.8555 38.9707L20.3711 39.1246C19.7962 39.2944 19.184 39.4323 18.54 39.7348C18.6784 40.26 18.8806 40.8437 19.1521 41.2204C19.4502 41.6342 19.8973 42.0162 20.3232 42.3293C19.8813 41.8305 19.4236 40.8065 19.349 40.207C19.9931 39.9099 21.5528 39.4801 21.5528 39.4801C22.3832 39.183 23.0432 38.6046 23.6553 37.326C23.8204 36.9811 24.5549 36.0048 25.1085 35.3681C26.1199 35.6228 26.5723 35.8032 27.5944 36.4717C26.7161 35.4106 26.0081 34.9967 24.7625 34.6041C24.2089 35.2355 23.2029 36.5725 23.0379 36.9174M37.4366 45.1891C37.9635 45.2687 38.5065 45.2368 39.0335 45.2952C38.4639 45.4703 37.7346 45.7621 36.5476 45.465C36.4358 49.126 36.67 51.2589 35.9887 52.2511C36.0579 52.3041 36.5317 53.2167 37.7187 52.7869C37.0054 53.291 36.1697 53.0469 35.5203 52.6118C35.4032 52.5323 35.2861 52.4314 35.2169 52.3731C35.4564 51.9327 35.5735 51.8213 35.7172 51.1899C36.0952 49.561 35.7545 47.4228 35.9834 44.8124C36.4837 44.9716 36.9202 45.1095 37.4366 45.1891ZM35.3712 37.2145C35.9674 37.9308 36.7872 38.7903 37.2715 39.5225C37.4366 39.7666 37.5164 40.0266 37.4738 40.3237C37.4366 40.6049 37.3674 40.8702 37.2875 41.1249L37.1172 41.5918C36.6754 42.5787 36.2921 43.1888 36.0579 44.2712C36.4358 44.3879 36.8936 44.6002 37.5271 44.701C38.1445 44.8018 38.6715 44.7859 39.0867 44.823C38.2297 44.7275 37.2396 44.3136 36.9256 43.7194C37.2769 42.775 37.5643 42.3187 37.9263 41.4114C38.1073 40.8702 38.1658 40.4935 38.1765 40.1805C38.1871 39.8833 38.0327 39.5438 37.8677 39.305C37.378 38.5728 36.8191 37.8459 36.2229 37.1296C36.4837 36.1799 37.2503 35.7926 38.7034 35.5061C38.5437 35.5114 38.2882 35.5326 38.0061 35.5698C36.67 35.7342 36.0579 35.973 35.3659 37.2092M30.4847 29.8873C30.884 30.0199 31.2832 30.0995 31.6505 30.0995C32.5501 30.0942 33.62 29.622 34.4504 29.0808C34.4823 29.3037 34.6101 29.5955 34.8017 29.9191C34.0458 30.3648 33.1675 30.6938 32.401 30.6036C31.4216 30.4921 30.884 30.2162 30.4901 29.8873M27.1685 32.9858L27.5624 32.4818L27.9616 31.9406C28.7282 30.8742 29.0529 30.0199 29.2445 29.3037C29.0156 29.1657 28.7973 29.0224 28.6004 28.8739C28.4194 29.6857 27.9776 30.6725 27.0195 32.0043L26.6202 32.5455L26.2263 33.0495C25.7207 33.665 25.4173 33.9303 25.1245 34.2168L25.529 34.3707C26.7693 34.8588 27.456 35.453 28.1905 36.4399L28.6217 35.8297C27.967 34.6784 26.7746 34.0948 26.2849 33.9515C26.5777 33.665 26.6628 33.6066 27.1685 32.9858ZM33.9074 35.1135C33.6093 34.8057 33.242 34.5723 32.731 34.5033C32.4755 34.4662 32.1508 34.3919 31.8368 34.3335C31.3045 34.2327 30.6338 34.2168 30.0589 34.3972C30.4581 34.0788 31.2512 33.6862 32.5447 33.9833C32.8588 34.0523 33.3006 34.0152 33.5508 34.0894C34.0565 34.2327 34.4717 34.6837 34.5568 34.811C34.7857 35.1612 34.8656 35.2302 35.1051 35.5644C35.7598 34.5935 37.1065 34.307 38.054 34.4025L38.4266 35.0286L37.9422 35.0763C36.5157 35.2567 35.7705 35.5591 35.0412 36.7795C34.8017 36.4399 34.5941 36.0632 34.3652 35.713C34.28 35.5804 34.1949 35.453 34.1203 35.3681L33.8968 35.1082L33.9074 35.1135ZM23.171 20.5969C23.0858 20.9789 22.974 21.3185 22.8888 21.5626L24.9488 22.4539L25.2789 22.5919C26.0826 22.9739 26.9077 23.5416 27.4453 24.1677C28.4726 25.3615 28.7654 27.3724 28.6856 28.3062C28.973 28.5343 30.3783 29.6061 31.6398 29.5955C32.4542 29.5955 33.3219 29.1657 33.9181 28.8049C33.4656 29.0224 32.9014 29.2028 32.2413 29.2188C30.9798 29.24 29.7289 27.9401 29.4414 27.7119C29.5213 26.7834 29.0741 24.9158 28.0468 23.722C27.5092 23.1012 26.6948 22.4433 25.891 22.0613L23.7778 21.1805C23.8683 20.9418 23.8896 20.8197 24.0067 20.3581C24.0599 20.1512 24.0918 19.9708 24.1184 19.8064L23.3732 19.6047L23.171 20.5969ZM32.4542 19.1166C32.0603 20.1088 31.4056 23.0588 31.3843 23.0376C31.363 23.0376 29.6544 20.3741 28.9411 19.6366C29.6384 20.252 31.1714 21.1063 31.1448 21.1222C31.0969 21.1222 32.0231 19.9019 32.4542 19.1166ZM37.8571 22.1037L37.7826 21.4989C36.372 21.3238 35.829 21.5307 35.6055 22.056C35.9089 21.9605 36.3773 21.9605 37.1278 22.056L37.8571 22.109V22.1037ZM34.956 52.8294C35.7971 53.5191 36.9362 53.8693 37.9209 53.2326C36.9841 53.8693 36.4518 53.9701 35.3446 53.4926C35.1636 53.7685 35.153 53.8322 35.137 54.0497C35.0838 54.7341 36.01 54.7394 36.6062 54.835L42.4774 55.9279C42.1847 56.172 41.3756 56.0924 41.3756 56.0924L35.9834 55.1586C35.1211 55.0366 34.658 54.6493 34.6473 53.6783C34.6473 53.4608 34.7804 53.1424 34.9614 52.8294M15.8199 10.8025L15.8306 11.1367C16.0381 11.4179 16.2511 11.609 16.448 11.7947L17.0868 12.3889C17.4221 12.7179 17.8533 13.2537 17.9278 13.7153C18.0023 14.1716 18.4335 18.3367 18.4335 18.3367C18.4335 18.3897 18.5187 19.3341 18.7742 19.5782C19.0829 19.87 19.7004 20.2308 20.7543 20.6553L22.4311 21.3662C22.4896 21.1965 22.5641 20.9789 22.628 20.7349C22.0691 20.4908 21.6645 20.2786 21.3824 20.1618C20.3285 19.7374 19.711 19.3766 19.4023 19.0848C19.1468 18.8407 19.0616 17.8963 19.0563 17.8432C19.0563 17.8432 18.6304 13.6782 18.5506 13.2166C18.4974 12.9036 18.2845 12.5587 18.0449 12.2616C16.8685 11.8053 16.1233 10.6698 16.1925 9.42829C16.0594 9.88989 15.8252 10.7866 15.8199 10.8078M17.3476 9.35401C17.3476 7.90554 18.524 6.72766 19.9825 6.72766C21.441 6.72766 22.6174 7.90023 22.6174 9.35401C22.6174 10.8078 21.441 11.9804 19.9825 11.9804C18.524 11.9804 17.3476 10.8078 17.3476 9.35401Z" fill="white"/>
</g>
<defs>
<clipPath id="clip0_90_489">
<rect width="177" height="59" fill="white"/>
</clipPath>
</defs>
</svg>
