<svg width="935" height="610" viewBox="0 0 935 610" fill="none" xmlns="http://www.w3.org/2000/svg">
<path d="M98.5424 170.32V167.998H102.88V181.12H100.288V170.32H98.5424ZM114.19 170.176H108.358V173.254C108.61 172.942 108.97 172.69 109.438 172.498C109.906 172.294 110.404 172.192 110.932 172.192C111.892 172.192 112.678 172.402 113.29 172.822C113.902 173.242 114.346 173.782 114.622 174.442C114.898 175.09 115.036 175.786 115.036 176.53C115.036 177.91 114.64 179.02 113.848 179.86C113.068 180.7 111.952 181.12 110.5 181.12C109.132 181.12 108.04 180.778 107.224 180.094C106.408 179.41 105.946 178.516 105.838 177.412H108.286C108.394 177.892 108.634 178.276 109.006 178.564C109.39 178.852 109.876 178.996 110.464 178.996C111.172 178.996 111.706 178.774 112.066 178.33C112.426 177.886 112.606 177.298 112.606 176.566C112.606 175.822 112.42 175.258 112.048 174.874C111.688 174.478 111.154 174.28 110.446 174.28C109.942 174.28 109.522 174.406 109.186 174.658C108.85 174.91 108.61 175.246 108.466 175.666H106.054V167.962H114.19V170.176Z" fill="white"/>
<path d="M95.7732 78.156C96.9252 77.196 97.8432 76.398 98.5272 75.762C99.2112 75.114 99.7812 74.442 100.237 73.746C100.693 73.05 100.921 72.366 100.921 71.694C100.921 71.082 100.777 70.602 100.489 70.254C100.201 69.906 99.7572 69.732 99.1572 69.732C98.5572 69.732 98.0952 69.936 97.7712 70.344C97.4472 70.74 97.2792 71.286 97.2672 71.982H94.8192C94.8672 70.542 95.2932 69.45 96.0972 68.706C96.9132 67.962 97.9452 67.59 99.1932 67.59C100.561 67.59 101.611 67.956 102.343 68.688C103.075 69.408 103.441 70.362 103.441 71.55C103.441 72.486 103.189 73.38 102.685 74.232C102.181 75.084 101.605 75.828 100.957 76.464C100.309 77.088 99.4632 77.844 98.4192 78.732H103.729V80.82H94.8372V78.948L95.7732 78.156ZM105.317 74.268C105.317 72.192 105.689 70.566 106.433 69.39C107.189 68.214 108.437 67.626 110.177 67.626C111.917 67.626 113.159 68.214 113.903 69.39C114.659 70.566 115.037 72.192 115.037 74.268C115.037 76.356 114.659 77.994 113.903 79.182C113.159 80.37 111.917 80.964 110.177 80.964C108.437 80.964 107.189 80.37 106.433 79.182C105.689 77.994 105.317 76.356 105.317 74.268ZM112.553 74.268C112.553 73.38 112.493 72.636 112.373 72.036C112.265 71.424 112.037 70.926 111.689 70.542C111.353 70.158 110.849 69.966 110.177 69.966C109.505 69.966 108.995 70.158 108.647 70.542C108.311 70.926 108.083 71.424 107.963 72.036C107.855 72.636 107.801 73.38 107.801 74.268C107.801 75.18 107.855 75.948 107.963 76.572C108.071 77.184 108.299 77.682 108.647 78.066C108.995 78.438 109.505 78.624 110.177 78.624C110.849 78.624 111.359 78.438 111.707 78.066C112.055 77.682 112.283 77.184 112.391 76.572C112.499 75.948 112.553 75.18 112.553 74.268Z" fill="white"/>
<path d="M98.4897 270.2V267.878H102.828V281H100.236V270.2H98.4897ZM105.317 274.268C105.317 272.192 105.689 270.566 106.433 269.39C107.189 268.214 108.437 267.626 110.177 267.626C111.917 267.626 113.159 268.214 113.903 269.39C114.659 270.566 115.037 272.192 115.037 274.268C115.037 276.356 114.659 277.994 113.903 279.182C113.159 280.37 111.917 280.964 110.177 280.964C108.437 280.964 107.189 280.37 106.433 279.182C105.689 277.994 105.317 276.356 105.317 274.268ZM112.553 274.268C112.553 273.38 112.493 272.636 112.373 272.036C112.265 271.424 112.037 270.926 111.689 270.542C111.353 270.158 110.849 269.966 110.177 269.966C109.505 269.966 108.995 270.158 108.647 270.542C108.311 270.926 108.083 271.424 107.963 272.036C107.855 272.636 107.801 273.38 107.801 274.268C107.801 275.18 107.855 275.948 107.963 276.572C108.071 277.184 108.299 277.682 108.647 278.066C108.995 278.438 109.505 278.624 110.177 278.624C110.849 278.624 111.359 278.438 111.707 278.066C112.055 277.682 112.283 277.184 112.391 276.572C112.499 275.948 112.553 275.18 112.553 274.268Z" fill="white"/>
<path d="M114.19 370.056H108.358V373.134C108.61 372.822 108.97 372.57 109.438 372.378C109.906 372.174 110.404 372.072 110.932 372.072C111.892 372.072 112.678 372.282 113.29 372.702C113.902 373.122 114.346 373.662 114.622 374.322C114.898 374.97 115.036 375.666 115.036 376.41C115.036 377.79 114.64 378.9 113.848 379.74C113.068 380.58 111.952 381 110.5 381C109.132 381 108.04 380.658 107.224 379.974C106.408 379.29 105.946 378.396 105.838 377.292H108.286C108.394 377.772 108.634 378.156 109.006 378.444C109.39 378.732 109.876 378.876 110.464 378.876C111.172 378.876 111.706 378.654 112.066 378.21C112.426 377.766 112.606 377.178 112.606 376.446C112.606 375.702 112.42 375.138 112.048 374.754C111.688 374.358 111.154 374.16 110.446 374.16C109.942 374.16 109.522 374.286 109.186 374.538C108.85 374.79 108.61 375.126 108.466 375.546H106.054V367.842H114.19V370.056Z" fill="white"/>
<path d="M105.317 476.991C105.317 474.915 105.689 473.289 106.433 472.113C107.189 470.937 108.437 470.349 110.177 470.349C111.917 470.349 113.159 470.937 113.903 472.113C114.659 473.289 115.037 474.915 115.037 476.991C115.037 479.079 114.659 480.717 113.903 481.905C113.159 483.093 111.917 483.687 110.177 483.687C108.437 483.687 107.189 483.093 106.433 481.905C105.689 480.717 105.317 479.079 105.317 476.991ZM112.553 476.991C112.553 476.103 112.493 475.359 112.373 474.759C112.265 474.147 112.037 473.649 111.689 473.265C111.353 472.881 110.849 472.689 110.177 472.689C109.505 472.689 108.995 472.881 108.647 473.265C108.311 473.649 108.083 474.147 107.963 474.759C107.855 475.359 107.801 476.103 107.801 476.991C107.801 477.903 107.855 478.671 107.963 479.295C108.071 479.907 108.299 480.405 108.647 480.789C108.995 481.161 109.505 481.347 110.177 481.347C110.849 481.347 111.359 481.161 111.707 480.789C112.055 480.405 112.283 479.907 112.391 479.295C112.499 478.671 112.553 477.903 112.553 476.991Z" fill="white"/>
<path d="M165.156 534.169C164.196 533.017 163.398 532.099 162.762 531.415C162.114 530.731 161.442 530.161 160.746 529.705C160.05 529.249 159.366 529.021 158.694 529.021C158.082 529.021 157.602 529.165 157.254 529.453C156.906 529.741 156.732 530.185 156.732 530.785C156.732 531.385 156.936 531.847 157.344 532.171C157.74 532.495 158.286 532.663 158.982 532.675L158.982 535.123C157.542 535.075 156.45 534.649 155.706 533.845C154.962 533.029 154.59 531.997 154.59 530.749C154.59 529.381 154.956 528.331 155.688 527.599C156.408 526.867 157.362 526.501 158.55 526.501C159.486 526.501 160.38 526.753 161.232 527.257C162.084 527.761 162.828 528.337 163.464 528.985C164.088 529.633 164.844 530.479 165.732 531.523L165.732 526.213L167.82 526.213L167.82 535.105L165.948 535.105L165.156 534.169ZM161.268 524.625C159.192 524.625 157.566 524.253 156.39 523.509C155.214 522.753 154.626 521.505 154.626 519.765C154.626 518.025 155.214 516.783 156.39 516.039C157.566 515.283 159.192 514.905 161.268 514.905C163.356 514.905 164.994 515.283 166.182 516.039C167.37 516.783 167.964 518.025 167.964 519.765C167.964 521.505 167.37 522.753 166.182 523.509C164.994 524.253 163.356 524.625 161.268 524.625ZM161.268 517.389C160.38 517.389 159.636 517.449 159.036 517.569C158.424 517.677 157.926 517.905 157.542 518.253C157.158 518.589 156.966 519.093 156.966 519.765C156.966 520.437 157.158 520.947 157.542 521.295C157.926 521.631 158.424 521.859 159.036 521.979C159.636 522.087 160.38 522.141 161.268 522.141C162.18 522.141 162.948 522.087 163.572 521.979C164.184 521.871 164.682 521.643 165.066 521.295C165.438 520.947 165.624 520.437 165.624 519.765C165.624 519.093 165.438 518.583 165.066 518.235C164.682 517.887 164.184 517.659 163.572 517.551C162.948 517.443 162.18 517.389 161.268 517.389ZM157.2 513.294L154.878 513.294L154.878 508.956L168 508.956L168 511.548L157.2 511.548L157.2 513.294ZM161.268 506.466C159.192 506.466 157.566 506.094 156.39 505.35C155.214 504.594 154.626 503.346 154.626 501.606C154.626 499.866 155.214 498.624 156.39 497.88C157.566 497.124 159.192 496.746 161.268 496.746C163.356 496.746 164.994 497.124 166.182 497.88C167.37 498.624 167.964 499.866 167.964 501.606C167.964 503.346 167.37 504.594 166.182 505.35C164.994 506.094 163.356 506.466 161.268 506.466ZM161.268 499.23C160.38 499.23 159.636 499.29 159.036 499.41C158.424 499.518 157.926 499.746 157.542 500.094C157.158 500.43 156.966 500.934 156.966 501.606C156.966 502.278 157.158 502.788 157.542 503.136C157.926 503.472 158.424 503.7 159.036 503.82C159.636 503.928 160.38 503.982 161.268 503.982C162.18 503.982 162.948 503.928 163.572 503.82C164.184 503.712 164.682 503.484 165.066 503.136C165.438 502.788 165.624 502.278 165.624 501.606C165.624 500.934 165.438 500.424 165.066 500.076C164.682 499.728 164.184 499.5 163.572 499.392C162.948 499.284 162.18 499.23 161.268 499.23Z" fill="white"/>
<path d="M226.156 529.053C225.196 527.901 224.398 526.983 223.762 526.299C223.114 525.615 222.442 525.045 221.746 524.589C221.05 524.133 220.366 523.905 219.694 523.905C219.082 523.905 218.602 524.049 218.254 524.337C217.906 524.625 217.732 525.069 217.732 525.669C217.732 526.269 217.936 526.731 218.344 527.055C218.74 527.379 219.286 527.547 219.982 527.559L219.982 530.007C218.542 529.959 217.45 529.533 216.706 528.729C215.962 527.913 215.59 526.881 215.59 525.633C215.59 524.265 215.956 523.215 216.688 522.483C217.408 521.751 218.362 521.385 219.55 521.385C220.486 521.385 221.38 521.637 222.232 522.141C223.084 522.645 223.828 523.221 224.464 523.869C225.088 524.517 225.844 525.363 226.732 526.407L226.732 521.097L228.82 521.097L228.82 529.989L226.948 529.989L226.156 529.053ZM222.268 519.509C220.192 519.509 218.566 519.137 217.39 518.393C216.214 517.637 215.626 516.389 215.626 514.649C215.626 512.909 216.214 511.667 217.39 510.923C218.566 510.167 220.192 509.789 222.268 509.789C224.356 509.789 225.994 510.167 227.182 510.923C228.37 511.667 228.964 512.909 228.964 514.649C228.964 516.389 228.37 517.637 227.182 518.393C225.994 519.137 224.356 519.509 222.268 519.509ZM222.268 512.273C221.38 512.273 220.636 512.333 220.036 512.453C219.424 512.561 218.926 512.789 218.542 513.137C218.158 513.473 217.966 513.977 217.966 514.649C217.966 515.321 218.158 515.831 218.542 516.179C218.926 516.515 219.424 516.743 220.036 516.863C220.636 516.971 221.38 517.025 222.268 517.025C223.18 517.025 223.948 516.971 224.572 516.863C225.184 516.755 225.682 516.527 226.066 516.179C226.438 515.831 226.624 515.321 226.624 514.649C226.624 513.977 226.438 513.467 226.066 513.119C225.682 512.771 225.184 512.543 224.572 512.435C223.948 512.327 223.18 512.273 222.268 512.273ZM218.2 508.179L215.878 508.179L215.878 503.841L229 503.841L229 506.433L218.2 506.433L218.2 508.179ZM218.2 501.657L215.878 501.657L215.878 497.319L229 497.319L229 499.911L218.2 499.911L218.2 501.657Z" fill="white"/>
<path d="M534.156 534.045C533.196 532.893 532.398 531.975 531.762 531.291C531.114 530.607 530.442 530.037 529.746 529.581C529.05 529.125 528.366 528.897 527.694 528.897C527.082 528.897 526.602 529.041 526.254 529.329C525.906 529.617 525.732 530.061 525.732 530.661C525.732 531.261 525.936 531.723 526.344 532.047C526.74 532.371 527.286 532.539 527.982 532.551L527.982 534.999C526.542 534.951 525.45 534.525 524.706 533.721C523.962 532.905 523.59 531.873 523.59 530.625C523.59 529.257 523.956 528.207 524.688 527.475C525.408 526.743 526.362 526.377 527.55 526.377C528.486 526.377 529.38 526.629 530.232 527.133C531.084 527.637 531.828 528.213 532.464 528.861C533.088 529.509 533.844 530.355 534.732 531.399L534.732 526.089L536.82 526.089L536.82 534.981L534.948 534.981L534.156 534.045ZM530.268 524.502C528.192 524.502 526.566 524.13 525.39 523.386C524.214 522.63 523.626 521.382 523.626 519.642C523.626 517.902 524.214 516.66 525.39 515.916C526.566 515.16 528.192 514.782 530.268 514.782C532.356 514.782 533.994 515.16 535.182 515.916C536.37 516.66 536.964 517.902 536.964 519.642C536.964 521.382 536.37 522.63 535.182 523.386C533.994 524.13 532.356 524.502 530.268 524.502ZM530.268 517.266C529.38 517.266 528.636 517.326 528.036 517.446C527.424 517.554 526.926 517.782 526.542 518.13C526.158 518.466 525.966 518.97 525.966 519.642C525.966 520.314 526.158 520.824 526.542 521.172C526.926 521.508 527.424 521.736 528.036 521.856C528.636 521.964 529.38 522.018 530.268 522.018C531.18 522.018 531.948 521.964 532.572 521.856C533.184 521.748 533.682 521.52 534.066 521.172C534.438 520.824 534.624 520.314 534.624 519.642C534.624 518.97 534.438 518.46 534.066 518.112C533.682 517.764 533.184 517.536 532.572 517.428C531.948 517.32 531.18 517.266 530.268 517.266ZM526.2 513.171L523.878 513.171L523.878 508.833L537 508.833L537 511.425L526.2 511.425L526.2 513.171ZM527.154 499.539C526.65 499.659 526.272 499.869 526.02 500.169C525.768 500.457 525.642 500.877 525.642 501.429C525.642 502.257 525.978 502.869 526.65 503.265C527.31 503.649 528.39 503.847 529.89 503.859C529.41 503.571 529.038 503.151 528.774 502.599C528.498 502.047 528.36 501.447 528.36 500.799C528.36 500.019 528.528 499.329 528.864 498.729C529.2 498.129 529.692 497.661 530.34 497.325C530.976 496.989 531.744 496.821 532.644 496.821C533.496 496.821 534.258 496.995 534.93 497.343C535.59 497.679 536.106 498.177 536.478 498.837C536.85 499.497 537.036 500.283 537.036 501.195C537.036 502.443 536.76 503.427 536.208 504.147C535.656 504.855 534.888 505.353 533.904 505.641C532.908 505.917 531.684 506.055 530.232 506.055C528.036 506.055 526.38 505.677 525.264 504.921C524.136 504.165 523.572 502.971 523.572 501.339C523.572 500.079 523.914 499.101 524.598 498.405C525.282 497.709 526.134 497.307 527.154 497.199L527.154 499.539ZM530.43 501.375C530.43 502.011 530.616 502.545 530.988 502.977C531.36 503.409 531.9 503.625 532.608 503.625C533.316 503.625 533.874 503.427 534.282 503.031C534.69 502.623 534.894 502.053 534.894 501.321C534.894 500.673 534.696 500.163 534.3 499.791C533.904 499.407 533.37 499.215 532.698 499.215C532.002 499.215 531.45 499.401 531.042 499.773C530.634 500.133 530.43 500.667 530.43 501.375Z" fill="white"/>
<path d="M780.156 536.682C779.196 535.53 778.398 534.612 777.762 533.928C777.114 533.244 776.442 532.674 775.746 532.218C775.05 531.762 774.366 531.534 773.694 531.534C773.082 531.534 772.602 531.678 772.254 531.966C771.906 532.254 771.732 532.698 771.732 533.298C771.732 533.898 771.936 534.36 772.344 534.684C772.74 535.008 773.286 535.176 773.982 535.188L773.982 537.636C772.542 537.588 771.45 537.162 770.706 536.358C769.962 535.542 769.59 534.51 769.59 533.262C769.59 531.894 769.956 530.844 770.688 530.112C771.408 529.38 772.362 529.014 773.55 529.014C774.486 529.014 775.38 529.266 776.232 529.77C777.084 530.274 777.828 530.85 778.464 531.498C779.088 532.146 779.844 532.992 780.732 534.036L780.732 528.726L782.82 528.726L782.82 537.618L780.948 537.618L780.156 536.682ZM776.268 527.138C774.192 527.138 772.566 526.766 771.39 526.022C770.214 525.266 769.626 524.018 769.626 522.278C769.626 520.538 770.214 519.296 771.39 518.552C772.566 517.796 774.192 517.418 776.268 517.418C778.356 517.418 779.994 517.796 781.182 518.552C782.37 519.296 782.964 520.538 782.964 522.278C782.964 524.018 782.37 525.266 781.182 526.022C779.994 526.766 778.356 527.138 776.268 527.138ZM776.268 519.902C775.38 519.902 774.636 519.962 774.036 520.082C773.424 520.19 772.926 520.418 772.542 520.766C772.158 521.102 771.966 521.606 771.966 522.278C771.966 522.95 772.158 523.46 772.542 523.808C772.926 524.144 773.424 524.372 774.036 524.492C774.636 524.6 775.38 524.654 776.268 524.654C777.18 524.654 777.948 524.6 778.572 524.492C779.184 524.384 779.682 524.156 780.066 523.808C780.438 523.46 780.624 522.95 780.624 522.278C780.624 521.606 780.438 521.096 780.066 520.748C779.682 520.4 779.184 520.172 778.572 520.064C777.948 519.956 777.18 519.902 776.268 519.902ZM780.156 514.71C779.196 513.558 778.398 512.64 777.762 511.956C777.114 511.272 776.442 510.702 775.746 510.246C775.05 509.79 774.366 509.562 773.694 509.562C773.082 509.562 772.602 509.706 772.254 509.994C771.906 510.282 771.732 510.726 771.732 511.326C771.732 511.926 771.936 512.388 772.344 512.712C772.74 513.036 773.286 513.204 773.982 513.216L773.982 515.664C772.542 515.616 771.45 515.19 770.706 514.386C769.962 513.57 769.59 512.538 769.59 511.29C769.59 509.922 769.956 508.872 770.688 508.14C771.408 507.408 772.362 507.042 773.55 507.042C774.486 507.042 775.38 507.294 776.232 507.798C777.084 508.302 777.828 508.878 778.464 509.526C779.088 510.174 779.844 511.02 780.732 512.064L780.732 506.754L782.82 506.754L782.82 515.646L780.948 515.646L780.156 514.71ZM780.156 504.374C779.196 503.222 778.398 502.304 777.762 501.62C777.114 500.936 776.442 500.366 775.746 499.91C775.05 499.454 774.366 499.226 773.694 499.226C773.082 499.226 772.602 499.37 772.254 499.658C771.906 499.946 771.732 500.39 771.732 500.99C771.732 501.59 771.936 502.052 772.344 502.376C772.74 502.7 773.286 502.868 773.982 502.88L773.982 505.328C772.542 505.28 771.45 504.854 770.706 504.05C769.962 503.234 769.59 502.202 769.59 500.954C769.59 499.586 769.956 498.536 770.688 497.804C771.408 497.072 772.362 496.706 773.55 496.706C774.486 496.706 775.38 496.958 776.232 497.462C777.084 497.966 777.828 498.542 778.464 499.19C779.088 499.838 779.844 500.684 780.732 501.728L780.732 496.418L782.82 496.418L782.82 505.31L780.948 505.31L780.156 504.374Z" fill="white"/>
<path d="M288.156 532.868C287.196 531.716 286.398 530.798 285.762 530.114C285.114 529.43 284.442 528.86 283.746 528.404C283.05 527.948 282.366 527.72 281.694 527.72C281.082 527.72 280.602 527.864 280.254 528.152C279.906 528.44 279.732 528.884 279.732 529.484C279.732 530.084 279.936 530.546 280.344 530.87C280.74 531.194 281.286 531.362 281.982 531.374L281.982 533.822C280.542 533.774 279.45 533.348 278.706 532.544C277.962 531.728 277.59 530.696 277.59 529.448C277.59 528.08 277.956 527.03 278.688 526.298C279.408 525.566 280.362 525.2 281.55 525.2C282.486 525.2 283.38 525.452 284.232 525.956C285.084 526.46 285.828 527.036 286.464 527.684C287.088 528.332 287.844 529.178 288.732 530.222L288.732 524.912L290.82 524.912L290.82 533.804L288.948 533.804L288.156 532.868ZM284.268 523.324C282.192 523.324 280.566 522.952 279.39 522.208C278.214 521.452 277.626 520.204 277.626 518.464C277.626 516.724 278.214 515.482 279.39 514.738C280.566 513.982 282.192 513.604 284.268 513.604C286.356 513.604 287.994 513.982 289.182 514.738C290.37 515.482 290.964 516.724 290.964 518.464C290.964 520.204 290.37 521.452 289.182 522.208C287.994 522.952 286.356 523.324 284.268 523.324ZM284.268 516.088C283.38 516.088 282.636 516.148 282.036 516.268C281.424 516.376 280.926 516.604 280.542 516.952C280.158 517.288 279.966 517.792 279.966 518.464C279.966 519.136 280.158 519.646 280.542 519.994C280.926 520.33 281.424 520.558 282.036 520.678C282.636 520.786 283.38 520.84 284.268 520.84C285.18 520.84 285.948 520.786 286.572 520.678C287.184 520.57 287.682 520.342 288.066 519.994C288.438 519.646 288.624 519.136 288.624 518.464C288.624 517.792 288.438 517.282 288.066 516.934C287.682 516.586 287.184 516.358 286.572 516.25C285.948 516.142 285.18 516.088 284.268 516.088ZM280.2 511.993L277.878 511.993L277.878 507.655L291 507.655L291 510.247L280.2 510.247L280.2 511.993ZM288.156 504.374C287.196 503.222 286.398 502.304 285.762 501.62C285.114 500.936 284.442 500.366 283.746 499.91C283.05 499.454 282.366 499.226 281.694 499.226C281.082 499.226 280.602 499.37 280.254 499.658C279.906 499.946 279.732 500.39 279.732 500.99C279.732 501.59 279.936 502.052 280.344 502.376C280.74 502.7 281.286 502.868 281.982 502.88L281.982 505.328C280.542 505.28 279.45 504.854 278.706 504.05C277.962 503.234 277.59 502.202 277.59 500.954C277.59 499.586 277.956 498.536 278.688 497.804C279.408 497.072 280.362 496.706 281.55 496.706C282.486 496.706 283.38 496.958 284.232 497.462C285.084 497.966 285.828 498.542 286.464 499.19C287.088 499.838 287.844 500.684 288.732 501.728L288.732 496.418L290.82 496.418L290.82 505.31L288.948 505.31L288.156 504.374Z" fill="white"/>
<path d="M596.156 532.393C595.196 531.241 594.398 530.323 593.762 529.639C593.114 528.955 592.442 528.385 591.746 527.929C591.05 527.473 590.366 527.245 589.694 527.245C589.082 527.245 588.602 527.389 588.254 527.677C587.906 527.965 587.732 528.409 587.732 529.009C587.732 529.609 587.936 530.071 588.344 530.395C588.74 530.719 589.286 530.887 589.982 530.899L589.982 533.347C588.542 533.299 587.45 532.873 586.706 532.069C585.962 531.253 585.59 530.221 585.59 528.973C585.59 527.605 585.956 526.555 586.688 525.823C587.408 525.091 588.362 524.725 589.55 524.725C590.486 524.725 591.38 524.977 592.232 525.481C593.084 525.985 593.828 526.561 594.464 527.209C595.088 527.857 595.844 528.703 596.732 529.747L596.732 524.437L598.82 524.437L598.82 533.329L596.948 533.329L596.156 532.393ZM592.268 522.849C590.192 522.849 588.566 522.477 587.39 521.733C586.214 520.977 585.626 519.729 585.626 517.989C585.626 516.249 586.214 515.007 587.39 514.263C588.566 513.507 590.192 513.129 592.268 513.129C594.356 513.129 595.994 513.507 597.182 514.263C598.37 515.007 598.964 516.249 598.964 517.989C598.964 519.729 598.37 520.977 597.182 521.733C595.994 522.477 594.356 522.849 592.268 522.849ZM592.268 515.613C591.38 515.613 590.636 515.673 590.036 515.793C589.424 515.901 588.926 516.129 588.542 516.477C588.158 516.813 587.966 517.317 587.966 517.989C587.966 518.661 588.158 519.171 588.542 519.519C588.926 519.855 589.424 520.083 590.036 520.203C590.636 520.311 591.38 520.365 592.268 520.365C593.18 520.365 593.948 520.311 594.572 520.203C595.184 520.095 595.682 519.867 596.066 519.519C596.438 519.171 596.624 518.661 596.624 517.989C596.624 517.317 596.438 516.807 596.066 516.459C595.682 516.111 595.184 515.883 594.572 515.775C593.948 515.667 593.18 515.613 592.268 515.613ZM588.2 511.518L585.878 511.518L585.878 507.18L599 507.18L599 509.772L588.2 509.772L588.2 511.518ZM587.786 496.339L599 501.127L599 503.683L588.074 498.859L588.074 505.015L585.914 505.015L585.914 496.339L587.786 496.339Z" fill="white"/>
<path d="M842.156 537.122C841.196 535.97 840.398 535.052 839.762 534.368C839.114 533.684 838.442 533.114 837.746 532.658C837.05 532.202 836.366 531.974 835.694 531.974C835.082 531.974 834.602 532.118 834.254 532.406C833.906 532.694 833.732 533.138 833.732 533.738C833.732 534.338 833.936 534.8 834.344 535.124C834.74 535.448 835.286 535.616 835.982 535.628L835.982 538.076C834.542 538.028 833.45 537.602 832.706 536.798C831.962 535.982 831.59 534.95 831.59 533.702C831.59 532.334 831.956 531.284 832.688 530.552C833.408 529.82 834.362 529.454 835.55 529.454C836.486 529.454 837.38 529.706 838.232 530.21C839.084 530.714 839.828 531.29 840.464 531.938C841.088 532.586 841.844 533.432 842.732 534.476L842.732 529.166L844.82 529.166L844.82 538.058L842.948 538.058L842.156 537.122ZM838.268 527.578C836.192 527.578 834.566 527.206 833.39 526.462C832.214 525.706 831.626 524.458 831.626 522.718C831.626 520.978 832.214 519.736 833.39 518.992C834.566 518.236 836.192 517.858 838.268 517.858C840.356 517.858 841.994 518.236 843.182 518.992C844.37 519.736 844.964 520.978 844.964 522.718C844.964 524.458 844.37 525.706 843.182 526.462C841.994 527.206 840.356 527.578 838.268 527.578ZM838.268 520.342C837.38 520.342 836.636 520.402 836.036 520.522C835.424 520.63 834.926 520.858 834.542 521.206C834.158 521.542 833.966 522.046 833.966 522.718C833.966 523.39 834.158 523.9 834.542 524.248C834.926 524.584 835.424 524.812 836.036 524.932C836.636 525.04 837.38 525.094 838.268 525.094C839.18 525.094 839.948 525.04 840.572 524.932C841.184 524.824 841.682 524.596 842.066 524.248C842.438 523.9 842.624 523.39 842.624 522.718C842.624 522.046 842.438 521.536 842.066 521.188C841.682 520.84 841.184 520.612 840.572 520.504C839.948 520.396 839.18 520.342 838.268 520.342ZM842.156 515.149C841.196 513.997 840.398 513.079 839.762 512.395C839.114 511.711 838.442 511.141 837.746 510.685C837.05 510.229 836.366 510.001 835.694 510.001C835.082 510.001 834.602 510.145 834.254 510.433C833.906 510.721 833.732 511.165 833.732 511.765C833.732 512.365 833.936 512.827 834.344 513.151C834.74 513.475 835.286 513.643 835.982 513.655L835.982 516.103C834.542 516.055 833.45 515.629 832.706 514.825C831.962 514.009 831.59 512.977 831.59 511.729C831.59 510.361 831.956 509.311 832.688 508.579C833.408 507.847 834.362 507.481 835.55 507.481C836.486 507.481 837.38 507.733 838.232 508.237C839.084 508.741 839.828 509.317 840.464 509.965C841.088 510.613 841.844 511.459 842.732 512.503L842.732 507.193L844.82 507.193L844.82 516.085L842.948 516.085L842.156 515.149ZM835.334 505.569C834.134 505.509 833.21 505.089 832.562 504.309C831.902 503.517 831.572 502.479 831.572 501.195C831.572 500.319 831.728 499.569 832.04 498.945C832.34 498.321 832.754 497.853 833.282 497.541C833.798 497.217 834.386 497.055 835.046 497.055C835.802 497.055 836.444 497.253 836.972 497.649C837.488 498.033 837.836 498.495 838.016 499.035L838.088 499.035C838.304 498.339 838.688 497.799 839.24 497.415C839.792 497.019 840.5 496.821 841.364 496.821C842.084 496.821 842.726 496.989 843.29 497.325C843.854 497.649 844.298 498.135 844.622 498.783C844.934 499.419 845.09 500.187 845.09 501.087C845.09 502.443 844.748 503.547 844.064 504.399C843.38 505.251 842.372 505.701 841.04 505.749L841.04 503.301C841.628 503.277 842.102 503.079 842.462 502.707C842.81 502.323 842.984 501.801 842.984 501.141C842.984 500.529 842.816 500.061 842.48 499.737C842.132 499.401 841.688 499.233 841.148 499.233C840.428 499.233 839.912 499.461 839.6 499.917C839.288 500.373 839.132 501.081 839.132 502.041L839.132 502.563L837.062 502.563L837.062 502.041C837.062 500.337 836.492 499.485 835.352 499.485C834.836 499.485 834.434 499.641 834.146 499.953C833.858 500.253 833.714 500.691 833.714 501.267C833.714 501.831 833.87 502.269 834.182 502.581C834.482 502.881 834.866 503.055 835.334 503.103L835.334 505.569Z" fill="white"/>
<path d="M350.156 533.307C349.196 532.155 348.398 531.237 347.762 530.553C347.114 529.869 346.442 529.299 345.746 528.843C345.05 528.387 344.366 528.159 343.694 528.159C343.082 528.159 342.602 528.303 342.254 528.591C341.906 528.879 341.732 529.323 341.732 529.923C341.732 530.523 341.936 530.985 342.344 531.309C342.74 531.633 343.286 531.801 343.982 531.813L343.982 534.261C342.542 534.213 341.45 533.787 340.706 532.983C339.962 532.167 339.59 531.135 339.59 529.887C339.59 528.519 339.956 527.469 340.688 526.737C341.408 526.005 342.362 525.639 343.55 525.639C344.486 525.639 345.38 525.891 346.232 526.395C347.084 526.899 347.828 527.475 348.464 528.123C349.088 528.771 349.844 529.617 350.732 530.661L350.732 525.351L352.82 525.351L352.82 534.243L350.948 534.243L350.156 533.307ZM346.268 523.763C344.192 523.763 342.566 523.391 341.39 522.647C340.214 521.891 339.626 520.643 339.626 518.903C339.626 517.163 340.214 515.921 341.39 515.177C342.566 514.421 344.192 514.043 346.268 514.043C348.356 514.043 349.994 514.421 351.182 515.177C352.37 515.921 352.964 517.163 352.964 518.903C352.964 520.643 352.37 521.891 351.182 522.647C349.994 523.391 348.356 523.763 346.268 523.763ZM346.268 516.527C345.38 516.527 344.636 516.587 344.036 516.707C343.424 516.815 342.926 517.043 342.542 517.391C342.158 517.727 341.966 518.231 341.966 518.903C341.966 519.575 342.158 520.085 342.542 520.433C342.926 520.769 343.424 520.997 344.036 521.117C344.636 521.225 345.38 521.279 346.268 521.279C347.18 521.279 347.948 521.225 348.572 521.117C349.184 521.009 349.682 520.781 350.066 520.433C350.438 520.085 350.624 519.575 350.624 518.903C350.624 518.231 350.438 517.721 350.066 517.373C349.682 517.025 349.184 516.797 348.572 516.689C347.948 516.581 347.18 516.527 346.268 516.527ZM342.2 512.433L339.878 512.433L339.878 508.095L353 508.095L353 510.687L342.2 510.687L342.2 512.433ZM343.334 505.569C342.134 505.509 341.21 505.089 340.562 504.309C339.902 503.517 339.572 502.479 339.572 501.195C339.572 500.319 339.728 499.569 340.04 498.945C340.34 498.321 340.754 497.853 341.282 497.541C341.798 497.217 342.386 497.055 343.046 497.055C343.802 497.055 344.444 497.253 344.972 497.649C345.488 498.033 345.836 498.495 346.016 499.035L346.088 499.035C346.304 498.339 346.688 497.799 347.24 497.415C347.792 497.019 348.5 496.821 349.364 496.821C350.084 496.821 350.726 496.989 351.29 497.325C351.854 497.649 352.298 498.135 352.622 498.783C352.934 499.419 353.09 500.187 353.09 501.087C353.09 502.443 352.748 503.547 352.064 504.399C351.38 505.251 350.372 505.701 349.04 505.749L349.04 503.301C349.628 503.277 350.102 503.079 350.462 502.707C350.81 502.323 350.984 501.801 350.984 501.141C350.984 500.529 350.816 500.061 350.48 499.737C350.132 499.401 349.688 499.233 349.148 499.233C348.428 499.233 347.912 499.461 347.6 499.917C347.288 500.373 347.132 501.081 347.132 502.041L347.132 502.563L345.062 502.563L345.062 502.041C345.062 500.337 344.492 499.485 343.352 499.485C342.836 499.485 342.434 499.641 342.146 499.953C341.858 500.253 341.714 500.691 341.714 501.267C341.714 501.831 341.87 502.269 342.182 502.581C342.482 502.881 342.866 503.055 343.334 503.103L343.334 505.569Z" fill="white"/>
<path d="M411.156 534.432C410.196 533.28 409.398 532.362 408.762 531.678C408.114 530.994 407.442 530.424 406.746 529.968C406.05 529.512 405.366 529.284 404.694 529.284C404.082 529.284 403.602 529.428 403.254 529.716C402.906 530.004 402.732 530.448 402.732 531.048C402.732 531.648 402.936 532.11 403.344 532.434C403.74 532.758 404.286 532.926 404.982 532.938L404.982 535.386C403.542 535.338 402.45 534.912 401.706 534.108C400.962 533.292 400.59 532.26 400.59 531.012C400.59 529.644 400.956 528.594 401.688 527.862C402.408 527.13 403.362 526.764 404.55 526.764C405.486 526.764 406.38 527.016 407.232 527.52C408.084 528.024 408.828 528.6 409.464 529.248C410.088 529.896 410.844 530.742 411.732 531.786L411.732 526.476L413.82 526.476L413.82 535.368L411.948 535.368L411.156 534.432ZM407.268 524.888C405.192 524.888 403.566 524.516 402.39 523.772C401.214 523.016 400.626 521.768 400.626 520.028C400.626 518.288 401.214 517.046 402.39 516.302C403.566 515.546 405.192 515.168 407.268 515.168C409.356 515.168 410.994 515.546 412.182 516.302C413.37 517.046 413.964 518.288 413.964 520.028C413.964 521.768 413.37 523.016 412.182 523.772C410.994 524.516 409.356 524.888 407.268 524.888ZM407.268 517.652C406.38 517.652 405.636 517.712 405.036 517.832C404.424 517.94 403.926 518.168 403.542 518.516C403.158 518.852 402.966 519.356 402.966 520.028C402.966 520.7 403.158 521.21 403.542 521.558C403.926 521.894 404.424 522.122 405.036 522.242C405.636 522.35 406.38 522.404 407.268 522.404C408.18 522.404 408.948 522.35 409.572 522.242C410.184 522.134 410.682 521.906 411.066 521.558C411.438 521.21 411.624 520.7 411.624 520.028C411.624 519.356 411.438 518.846 411.066 518.498C410.682 518.15 410.184 517.922 409.572 517.814C408.948 517.706 408.18 517.652 407.268 517.652ZM403.2 513.558L400.878 513.558L400.878 509.22L414 509.22L414 511.812L403.2 511.812L403.2 513.558ZM411.444 506.838L409.464 506.838L401.04 500.952L401.04 498.018L409.248 498.018L409.248 496.434L411.444 496.434L411.444 498.018L414 498.018L414 500.538L411.444 500.538L411.444 506.838ZM403.74 500.376L409.248 504.066L409.248 500.376L403.74 500.376Z" fill="white"/>
<path d="M657.156 534.098C656.196 532.946 655.398 532.028 654.762 531.344C654.114 530.66 653.442 530.09 652.746 529.634C652.05 529.178 651.366 528.95 650.694 528.95C650.082 528.95 649.602 529.094 649.254 529.382C648.906 529.67 648.732 530.114 648.732 530.714C648.732 531.314 648.936 531.776 649.344 532.1C649.74 532.424 650.286 532.592 650.982 532.604L650.982 535.052C649.542 535.004 648.45 534.578 647.706 533.774C646.962 532.958 646.59 531.926 646.59 530.678C646.59 529.31 646.956 528.26 647.688 527.528C648.408 526.796 649.362 526.43 650.55 526.43C651.486 526.43 652.38 526.682 653.232 527.186C654.084 527.69 654.828 528.266 655.464 528.914C656.088 529.562 656.844 530.408 657.732 531.452L657.732 526.142L659.82 526.142L659.82 535.034L657.948 535.034L657.156 534.098ZM653.268 524.554C651.192 524.554 649.566 524.182 648.39 523.438C647.214 522.682 646.626 521.434 646.626 519.694C646.626 517.954 647.214 516.712 648.39 515.968C649.566 515.212 651.192 514.834 653.268 514.834C655.356 514.834 656.994 515.212 658.182 515.968C659.37 516.712 659.964 517.954 659.964 519.694C659.964 521.434 659.37 522.682 658.182 523.438C656.994 524.182 655.356 524.554 653.268 524.554ZM653.268 517.318C652.38 517.318 651.636 517.378 651.036 517.498C650.424 517.606 649.926 517.834 649.542 518.182C649.158 518.518 648.966 519.022 648.966 519.694C648.966 520.366 649.158 520.876 649.542 521.224C649.926 521.56 650.424 521.788 651.036 521.908C651.636 522.016 652.38 522.07 653.268 522.07C654.18 522.07 654.948 522.016 655.572 521.908C656.184 521.8 656.682 521.572 657.066 521.224C657.438 520.876 657.624 520.366 657.624 519.694C657.624 519.022 657.438 518.512 657.066 518.164C656.682 517.816 656.184 517.588 655.572 517.48C654.948 517.372 654.18 517.318 653.268 517.318ZM649.2 513.224L646.878 513.224L646.878 508.886L660 508.886L660 511.478L649.2 511.478L649.2 513.224ZM653.052 504.2C652.428 505.4 651.462 506 650.154 506C649.506 506 648.918 505.838 648.39 505.514C647.85 505.178 647.424 504.68 647.112 504.02C646.788 503.348 646.626 502.532 646.626 501.572C646.626 500.612 646.788 499.802 647.112 499.142C647.424 498.47 647.85 497.972 648.39 497.648C648.918 497.312 649.506 497.144 650.154 497.144C650.814 497.144 651.396 497.306 651.9 497.63C652.392 497.954 652.776 498.386 653.052 498.926C653.34 498.266 653.76 497.75 654.312 497.378C654.864 497.006 655.518 496.82 656.274 496.82C657.09 496.82 657.804 497.03 658.416 497.45C659.016 497.858 659.478 498.422 659.802 499.142C660.126 499.862 660.288 500.672 660.288 501.572C660.288 502.472 660.126 503.282 659.802 504.002C659.478 504.71 659.016 505.274 658.416 505.694C657.804 506.102 657.09 506.306 656.274 506.306C655.518 506.306 654.864 506.12 654.312 505.748C653.748 505.376 653.328 504.86 653.052 504.2ZM650.514 499.592C649.926 499.592 649.47 499.772 649.146 500.132C648.822 500.48 648.66 500.96 648.66 501.572C648.66 502.172 648.822 502.652 649.146 503.012C649.47 503.36 649.932 503.534 650.532 503.534C651.072 503.534 651.504 503.354 651.828 502.994C652.152 502.622 652.314 502.148 652.314 501.572C652.314 500.996 652.152 500.522 651.828 500.15C651.492 499.778 651.054 499.592 650.514 499.592ZM654.15 501.572C654.15 502.256 654.324 502.814 654.672 503.246C655.02 503.666 655.518 503.876 656.166 503.876C656.766 503.876 657.258 503.672 657.642 503.264C658.014 502.844 658.2 502.28 658.2 501.572C658.2 500.864 658.008 500.306 657.624 499.898C657.24 499.49 656.754 499.286 656.166 499.286C655.53 499.286 655.038 499.496 654.69 499.916C654.33 500.336 654.15 500.888 654.15 501.572Z" fill="white"/>
<path d="M903.156 538.247C902.196 537.095 901.398 536.177 900.762 535.493C900.114 534.809 899.442 534.239 898.746 533.783C898.05 533.327 897.366 533.099 896.694 533.099C896.082 533.099 895.602 533.243 895.254 533.531C894.906 533.819 894.732 534.263 894.732 534.863C894.732 535.463 894.936 535.925 895.344 536.249C895.74 536.573 896.286 536.741 896.982 536.753L896.982 539.201C895.542 539.153 894.45 538.727 893.706 537.923C892.962 537.107 892.59 536.075 892.59 534.827C892.59 533.459 892.956 532.409 893.688 531.677C894.408 530.945 895.362 530.579 896.55 530.579C897.486 530.579 898.38 530.831 899.232 531.335C900.084 531.839 900.828 532.415 901.464 533.063C902.088 533.711 902.844 534.557 903.732 535.601L903.732 530.291L905.82 530.291L905.82 539.183L903.948 539.183L903.156 538.247ZM899.268 528.703C897.192 528.703 895.566 528.331 894.39 527.587C893.214 526.831 892.626 525.583 892.626 523.843C892.626 522.103 893.214 520.861 894.39 520.117C895.566 519.361 897.192 518.983 899.268 518.983C901.356 518.983 902.994 519.361 904.182 520.117C905.37 520.861 905.964 522.103 905.964 523.843C905.964 525.583 905.37 526.831 904.182 527.587C902.994 528.331 901.356 528.703 899.268 528.703ZM899.268 521.467C898.38 521.467 897.636 521.527 897.036 521.647C896.424 521.755 895.926 521.983 895.542 522.331C895.158 522.667 894.966 523.171 894.966 523.843C894.966 524.515 895.158 525.025 895.542 525.373C895.926 525.709 896.424 525.937 897.036 526.057C897.636 526.165 898.38 526.219 899.268 526.219C900.18 526.219 900.948 526.165 901.572 526.057C902.184 525.949 902.682 525.721 903.066 525.373C903.438 525.025 903.624 524.515 903.624 523.843C903.624 523.171 903.438 522.661 903.066 522.313C902.682 521.965 902.184 521.737 901.572 521.629C900.948 521.521 900.18 521.467 899.268 521.467ZM903.156 516.274C902.196 515.122 901.398 514.204 900.762 513.52C900.114 512.836 899.442 512.266 898.746 511.81C898.05 511.354 897.366 511.126 896.694 511.126C896.082 511.126 895.602 511.27 895.254 511.558C894.906 511.846 894.732 512.29 894.732 512.89C894.732 513.49 894.936 513.952 895.344 514.276C895.74 514.6 896.286 514.768 896.982 514.78L896.982 517.228C895.542 517.18 894.45 516.754 893.706 515.95C892.962 515.134 892.59 514.102 892.59 512.854C892.59 511.486 892.956 510.436 893.688 509.704C894.408 508.972 895.362 508.606 896.55 508.606C897.486 508.606 898.38 508.858 899.232 509.362C900.084 509.866 900.828 510.442 901.464 511.09C902.088 511.738 902.844 512.584 903.732 513.628L903.732 508.318L905.82 508.318L905.82 517.21L903.948 517.21L903.156 516.274ZM903.444 506.838L901.464 506.838L893.04 500.952L893.04 498.018L901.248 498.018L901.248 496.434L903.444 496.434L903.444 498.018L906 498.018L906 500.538L903.444 500.538L903.444 506.838ZM895.74 500.376L901.248 504.066L901.248 500.376L895.74 500.376Z" fill="white"/>
<path d="M471.156 534.116C470.196 532.964 469.398 532.046 468.762 531.362C468.114 530.678 467.442 530.108 466.746 529.652C466.05 529.196 465.366 528.968 464.694 528.968C464.082 528.968 463.602 529.112 463.254 529.4C462.906 529.688 462.732 530.132 462.732 530.732C462.732 531.332 462.936 531.794 463.344 532.118C463.74 532.442 464.286 532.61 464.982 532.622L464.982 535.07C463.542 535.022 462.45 534.596 461.706 533.792C460.962 532.976 460.59 531.944 460.59 530.696C460.59 529.328 460.956 528.278 461.688 527.546C462.408 526.814 463.362 526.448 464.55 526.448C465.486 526.448 466.38 526.7 467.232 527.204C468.084 527.708 468.828 528.284 469.464 528.932C470.088 529.58 470.844 530.426 471.732 531.47L471.732 526.16L473.82 526.16L473.82 535.052L471.948 535.052L471.156 534.116ZM467.268 524.572C465.192 524.572 463.566 524.2 462.39 523.456C461.214 522.7 460.626 521.452 460.626 519.712C460.626 517.972 461.214 516.73 462.39 515.986C463.566 515.23 465.192 514.852 467.268 514.852C469.356 514.852 470.994 515.23 472.182 515.986C473.37 516.73 473.964 517.972 473.964 519.712C473.964 521.452 473.37 522.7 472.182 523.456C470.994 524.2 469.356 524.572 467.268 524.572ZM467.268 517.336C466.38 517.336 465.636 517.396 465.036 517.516C464.424 517.624 463.926 517.852 463.542 518.2C463.158 518.536 462.966 519.04 462.966 519.712C462.966 520.384 463.158 520.894 463.542 521.242C463.926 521.578 464.424 521.806 465.036 521.926C465.636 522.034 466.38 522.088 467.268 522.088C468.18 522.088 468.948 522.034 469.572 521.926C470.184 521.818 470.682 521.59 471.066 521.242C471.438 520.894 471.624 520.384 471.624 519.712C471.624 519.04 471.438 518.53 471.066 518.182C470.682 517.834 470.184 517.606 469.572 517.498C468.948 517.39 468.18 517.336 467.268 517.336ZM463.2 513.241L460.878 513.241L460.878 508.903L474 508.903L474 511.495L463.2 511.495L463.2 513.241ZM463.056 497.594L463.056 503.426L466.134 503.426C465.822 503.174 465.57 502.814 465.378 502.346C465.174 501.878 465.072 501.38 465.072 500.852C465.072 499.892 465.282 499.106 465.702 498.494C466.122 497.882 466.662 497.438 467.322 497.162C467.97 496.886 468.666 496.748 469.41 496.748C470.79 496.748 471.9 497.144 472.74 497.936C473.58 498.716 474 499.832 474 501.284C474 502.652 473.658 503.744 472.974 504.56C472.29 505.376 471.396 505.838 470.292 505.946L470.292 503.498C470.772 503.39 471.156 503.15 471.444 502.778C471.732 502.394 471.876 501.908 471.876 501.32C471.876 500.612 471.654 500.078 471.21 499.718C470.766 499.358 470.178 499.178 469.446 499.178C468.702 499.178 468.138 499.364 467.754 499.736C467.358 500.096 467.16 500.63 467.16 501.338C467.16 501.842 467.286 502.262 467.538 502.598C467.79 502.934 468.126 503.174 468.546 503.318L468.546 505.73L460.842 505.73L460.842 497.594L463.056 497.594Z" fill="white"/>
<path d="M719.156 533.799C718.196 532.647 717.398 531.729 716.762 531.045C716.114 530.361 715.442 529.791 714.746 529.335C714.05 528.879 713.366 528.651 712.694 528.651C712.082 528.651 711.602 528.795 711.254 529.083C710.906 529.371 710.732 529.815 710.732 530.415C710.732 531.015 710.936 531.477 711.344 531.801C711.74 532.125 712.286 532.293 712.982 532.305L712.982 534.753C711.542 534.705 710.45 534.279 709.706 533.475C708.962 532.659 708.59 531.627 708.59 530.379C708.59 529.011 708.956 527.961 709.688 527.229C710.408 526.497 711.362 526.131 712.55 526.131C713.486 526.131 714.38 526.383 715.232 526.887C716.084 527.391 716.828 527.967 717.464 528.615C718.088 529.263 718.844 530.109 719.732 531.153L719.732 525.843L721.82 525.843L721.82 534.735L719.948 534.735L719.156 533.799ZM715.268 524.255C713.192 524.255 711.566 523.883 710.39 523.139C709.214 522.383 708.626 521.135 708.626 519.395C708.626 517.655 709.214 516.413 710.39 515.669C711.566 514.913 713.192 514.535 715.268 514.535C717.356 514.535 718.994 514.913 720.182 515.669C721.37 516.413 721.964 517.655 721.964 519.395C721.964 521.135 721.37 522.383 720.182 523.139C718.994 523.883 717.356 524.255 715.268 524.255ZM715.268 517.019C714.38 517.019 713.636 517.079 713.036 517.199C712.424 517.307 711.926 517.535 711.542 517.883C711.158 518.219 710.966 518.723 710.966 519.395C710.966 520.067 711.158 520.577 711.542 520.925C711.926 521.261 712.424 521.489 713.036 521.609C713.636 521.717 714.38 521.771 715.268 521.771C716.18 521.771 716.948 521.717 717.572 521.609C718.184 521.501 718.682 521.273 719.066 520.925C719.438 520.577 719.624 520.067 719.624 519.395C719.624 518.723 719.438 518.213 719.066 517.865C718.682 517.517 718.184 517.289 717.572 517.181C716.948 517.073 716.18 517.019 715.268 517.019ZM711.2 512.925L708.878 512.925L708.878 508.587L722 508.587L722 511.179L711.2 511.179L711.2 512.925ZM718.31 503.181C718.838 503.085 719.246 502.869 719.534 502.533C719.81 502.185 719.948 501.723 719.948 501.147C719.948 500.403 719.642 499.863 719.03 499.527C718.406 499.191 717.362 499.023 715.898 499.023C716.282 499.299 716.582 499.689 716.798 500.193C717.014 500.685 717.122 501.219 717.122 501.795C717.122 502.563 716.966 503.259 716.654 503.883C716.33 504.495 715.856 504.981 715.232 505.341C714.596 505.701 713.828 505.881 712.928 505.881C711.596 505.881 710.54 505.485 709.76 504.693C708.968 503.901 708.572 502.821 708.572 501.453C708.572 499.749 709.118 498.549 710.21 497.853C711.302 497.145 712.946 496.791 715.142 496.791C716.702 496.791 717.98 496.929 718.976 497.205C719.972 497.469 720.728 497.931 721.244 498.591C721.76 499.239 722.018 500.127 722.018 501.255C722.018 502.143 721.85 502.899 721.514 503.523C721.166 504.147 720.716 504.627 720.164 504.963C719.6 505.287 718.982 505.473 718.31 505.521L718.31 503.181ZM715.07 501.273C715.07 500.649 714.878 500.157 714.494 499.797C714.11 499.437 713.594 499.257 712.946 499.257C712.238 499.257 711.692 499.449 711.308 499.833C710.912 500.205 710.714 500.715 710.714 501.363C710.714 502.011 710.918 502.527 711.326 502.911C711.722 503.283 712.25 503.469 712.91 503.469C713.546 503.469 714.068 503.289 714.476 502.929C714.872 502.557 715.07 502.005 715.07 501.273Z" fill="white"/>
<line x1="129.5" y1="180.5" x2="934.5" y2="180.5" stroke="white" stroke-linecap="round"/>
<line x1="129.5" y1="80.5" x2="934.5" y2="80.5" stroke="white" stroke-linecap="round"/>
<line x1="129.5" y1="280.5" x2="934.5" y2="280.5" stroke="white" stroke-linecap="round"/>
<line x1="129.5" y1="380.5" x2="934.5" y2="380.5" stroke="white" stroke-linecap="round"/>
<line x1="129.5" y1="480.5" x2="934.5" y2="480.5" stroke="white" stroke-linecap="round"/>
<path d="M143 363.5C143 353.835 150.835 346 160.5 346C170.165 346 178 353.835 178 363.5V480H143V363.5Z" fill="#479DFF"/>
<path d="M635 282C635 272.059 643.059 264 653 264C662.941 264 671 272.059 671 282V480H635V282Z" fill="#479DFF"/>
<path d="M389 305C389 295.059 397.059 287 407 287C416.941 287 425 295.059 425 305V480H389V305Z" fill="#479DFF"/>
<path d="M881.564 215.149C881.564 205.364 889.497 197.431 899.282 197.431C909.067 197.431 917 205.364 917 215.149V480H881.564V215.149Z" fill="#479DFF"/>
<path d="M266 299C266 289.059 274.059 281 284 281C293.941 281 302 289.059 302 299V480H266V299Z" fill="#479DFF"/>
<path d="M758 299C758 289.059 766.059 281 776 281C785.941 281 794 289.059 794 299V480H758V299Z" fill="#479DFF"/>
<path d="M512 174C512 164.059 520.059 156 530 156C539.941 156 548 164.059 548 174V480H512V174Z" fill="#479DFF"/>
<path d="M205 363.5C205 353.835 212.835 346 222.5 346C232.165 346 240 353.835 240 363.5V480H205V363.5Z" fill="#479DFF"/>
<path d="M697 214.5C697 204.835 704.835 197 714.5 197C724.165 197 732 204.835 732 214.5V480H697V214.5Z" fill="#479DFF"/>
<path d="M451 231.5C451 221.835 458.835 214 468.5 214C478.165 214 486 221.835 486 231.5V480H451V231.5Z" fill="#479DFF"/>
<path d="M328 304.5C328 294.835 335.835 287 345.5 287C355.165 287 363 294.835 363 304.5V480H328V304.5Z" fill="#479DFF"/>
<path d="M820 237.5C820 227.835 827.835 220 837.5 220C847.165 220 855 227.835 855 237.5V480H820V237.5Z" fill="#479DFF"/>
<path d="M574 263.5C574 253.835 581.835 246 591.5 246C601.165 246 609 253.835 609 263.5V480H574V263.5Z" fill="#479DFF"/>
<ellipse cx="68.9308" cy="153.922" rx="7.90662" ry="7.92162" fill="#479DFF"/>
<path d="M55.0001 177.611C55.0001 169.945 61.2152 163.729 68.8818 163.729H69.3563C77.023 163.729 83.238 169.945 83.238 177.611C83.238 179.528 81.6843 181.082 79.7676 181.082H58.4705C56.5539 181.082 55.0001 179.528 55.0001 177.611Z" fill="#479DFF"/>
<ellipse cx="68.9308" cy="53.9216" rx="7.90662" ry="7.92162" fill="#479DFF"/>
<path d="M55.0001 77.6112C55.0001 69.9445 61.2152 63.7295 68.8818 63.7295H69.3563C77.023 63.7295 83.238 69.9445 83.238 77.6112C83.238 79.5278 81.6843 81.0816 79.7676 81.0816H58.4705C56.5539 81.0816 55.0001 79.5278 55.0001 77.6112Z" fill="#479DFF"/>
<ellipse cx="68.9308" cy="253.922" rx="7.90662" ry="7.92162" fill="#479DFF"/>
<path d="M55.0001 277.611C55.0001 269.945 61.2152 263.729 68.8818 263.729H69.3563C77.023 263.729 83.238 269.945 83.238 277.611C83.238 279.528 81.6843 281.082 79.7676 281.082H58.4705C56.5539 281.082 55.0001 279.528 55.0001 277.611Z" fill="#479DFF"/>
<ellipse cx="68.9308" cy="353.922" rx="7.90662" ry="7.92162" fill="#479DFF"/>
<path d="M55.0001 377.611C55.0001 369.945 61.2152 363.729 68.8818 363.729H69.3563C77.023 363.729 83.238 369.945 83.238 377.611C83.238 379.528 81.6843 381.082 79.7676 381.082H58.4705C56.5539 381.082 55.0001 379.528 55.0001 377.611Z" fill="#479DFF"/>
<ellipse cx="68.9308" cy="455.614" rx="7.90662" ry="7.92162" fill="#479DFF"/>
<path d="M55.0001 479.304C55.0001 471.637 61.2152 465.422 68.8818 465.422H69.3563C77.023 465.422 83.238 471.637 83.238 479.304C83.238 481.22 81.6843 482.774 79.7676 482.774H58.4705C56.5539 482.774 55.0001 481.22 55.0001 479.304Z" fill="#479DFF"/>
<path d="M326.669 6.644V9.13H322.577V22H319.497V9.13L315.405 9.13V6.644L326.669 6.644ZM334.328 22.198C333.155 22.198 332.099 21.9413 331.16 21.428C330.222 20.9 329.481 20.1593 328.938 19.206C328.41 18.2527 328.146 17.1527 328.146 15.906C328.146 14.6593 328.418 13.5593 328.96 12.606C329.518 11.6527 330.273 10.9193 331.226 10.406C332.18 9.878 333.243 9.614 334.416 9.614C335.59 9.614 336.653 9.878 337.606 10.406C338.56 10.9193 339.308 11.6527 339.85 12.606C340.408 13.5593 340.686 14.6593 340.686 15.906C340.686 17.1527 340.4 18.2527 339.828 19.206C339.271 20.1593 338.508 20.9 337.54 21.428C336.587 21.9413 335.516 22.198 334.328 22.198ZM334.328 19.514C334.886 19.514 335.406 19.382 335.89 19.118C336.389 18.8393 336.785 18.4287 337.078 17.886C337.372 17.3433 337.518 16.6833 337.518 15.906C337.518 14.7473 337.21 13.86 336.594 13.244C335.993 12.6133 335.252 12.298 334.372 12.298C333.492 12.298 332.752 12.6133 332.15 13.244C331.564 13.86 331.27 14.7473 331.27 15.906C331.27 17.0647 331.556 17.9593 332.128 18.59C332.715 19.206 333.448 19.514 334.328 19.514ZM346.026 11.704C346.422 11.0587 346.935 10.5527 347.566 10.186C348.211 9.81933 348.944 9.636 349.766 9.636V12.87H348.952C347.984 12.87 347.25 13.0973 346.752 13.552C346.268 14.0067 346.026 14.7987 346.026 15.928V22H342.946V9.812H346.026V11.704ZM358.594 9.636C360.046 9.636 361.219 10.098 362.114 11.022C363.009 11.9313 363.456 13.2073 363.456 14.85V22H360.376V15.268C360.376 14.3 360.134 13.5593 359.65 13.046C359.166 12.518 358.506 12.254 357.67 12.254C356.819 12.254 356.145 12.518 355.646 13.046C355.162 13.5593 354.92 14.3 354.92 15.268V22H351.84V9.812H354.92V11.33C355.331 10.802 355.851 10.3913 356.482 10.098C357.127 9.79 357.831 9.636 358.594 9.636ZM377.715 15.642C377.715 16.082 377.686 16.478 377.627 16.83H368.717C368.79 17.71 369.098 18.3993 369.641 18.898C370.184 19.3967 370.851 19.646 371.643 19.646C372.787 19.646 373.601 19.1547 374.085 18.172H377.407C377.055 19.3453 376.38 20.3133 375.383 21.076C374.386 21.824 373.161 22.198 371.709 22.198C370.536 22.198 369.48 21.9413 368.541 21.428C367.617 20.9 366.891 20.1593 366.363 19.206C365.85 18.2527 365.593 17.1527 365.593 15.906C365.593 14.6447 365.85 13.5373 366.363 12.584C366.876 11.6307 367.595 10.8973 368.519 10.384C369.443 9.87067 370.506 9.614 371.709 9.614C372.868 9.614 373.902 9.86333 374.811 10.362C375.735 10.8607 376.446 11.572 376.945 12.496C377.458 13.4053 377.715 14.454 377.715 15.642ZM374.525 14.762C374.51 13.97 374.224 13.3393 373.667 12.87C373.11 12.386 372.428 12.144 371.621 12.144C370.858 12.144 370.213 12.3787 369.685 12.848C369.172 13.3027 368.856 13.9407 368.739 14.762L374.525 14.762ZM381.525 8.36C380.983 8.36 380.528 8.19133 380.161 7.854C379.809 7.502 379.633 7.06933 379.633 6.556C379.633 6.04267 379.809 5.61733 380.161 5.28C380.528 4.928 380.983 4.752 381.525 4.752C382.068 4.752 382.515 4.928 382.867 5.28C383.234 5.61733 383.417 6.04267 383.417 6.556C383.417 7.06933 383.234 7.502 382.867 7.854C382.515 8.19133 382.068 8.36 381.525 8.36ZM383.043 9.812V22H379.963V9.812H383.043ZM390.86 9.614C391.77 9.614 392.569 9.79733 393.258 10.164C393.948 10.516 394.49 10.978 394.886 11.55V9.812L397.988 9.812V22.088C397.988 23.2173 397.761 24.222 397.306 25.102C396.852 25.9967 396.17 26.7007 395.26 27.214C394.351 27.742 393.251 28.006 391.96 28.006C390.23 28.006 388.807 27.6027 387.692 26.796C386.592 25.9893 385.969 24.8893 385.822 23.496H388.88C389.042 24.0533 389.386 24.4933 389.914 24.816C390.457 25.1533 391.11 25.322 391.872 25.322C392.767 25.322 393.493 25.0507 394.05 24.508C394.608 23.98 394.886 23.1733 394.886 22.088V20.196C394.49 20.768 393.94 21.2447 393.236 21.626C392.547 22.0073 391.755 22.198 390.86 22.198C389.834 22.198 388.895 21.934 388.044 21.406C387.194 20.878 386.519 20.1373 386.02 19.184C385.536 18.216 385.294 17.1087 385.294 15.862C385.294 14.63 385.536 13.5373 386.02 12.584C386.519 11.6307 387.186 10.8973 388.022 10.384C388.873 9.87067 389.819 9.614 390.86 9.614ZM394.886 15.906C394.886 15.158 394.74 14.52 394.446 13.992C394.153 13.4493 393.757 13.0387 393.258 12.76C392.76 12.4667 392.224 12.32 391.652 12.32C391.08 12.32 390.552 12.4593 390.068 12.738C389.584 13.0167 389.188 13.4273 388.88 13.97C388.587 14.498 388.44 15.1287 388.44 15.862C388.44 16.5953 388.587 17.2407 388.88 17.798C389.188 18.3407 389.584 18.7587 390.068 19.052C390.567 19.3453 391.095 19.492 391.652 19.492C392.224 19.492 392.76 19.3527 393.258 19.074C393.757 18.7807 394.153 18.37 394.446 17.842C394.74 17.2993 394.886 16.654 394.886 15.906ZM405.491 14.3C405.491 12.7893 405.828 11.44 406.503 10.252C407.192 9.04933 408.123 8.118 409.297 7.458C410.485 6.78333 411.812 6.446 413.279 6.446C414.995 6.446 416.498 6.886 417.789 7.766C419.079 8.646 419.981 9.86333 420.495 11.418L416.953 11.418C416.601 10.6847 416.102 10.1347 415.457 9.768C414.826 9.40133 414.093 9.218 413.257 9.218C412.362 9.218 411.563 9.43067 410.859 9.856C410.169 10.2667 409.627 10.8533 409.231 11.616C408.849 12.3787 408.659 13.2733 408.659 14.3C408.659 15.312 408.849 16.2067 409.231 16.984C409.627 17.7467 410.169 18.3407 410.859 18.766C411.563 19.1767 412.362 19.382 413.257 19.382C414.093 19.382 414.826 19.1987 415.457 18.832C416.102 18.4507 416.601 17.8933 416.953 17.16H420.495C419.981 18.7293 419.079 19.954 417.789 20.834C416.513 21.6993 415.009 22.132 413.279 22.132C411.812 22.132 410.485 21.802 409.297 21.142C408.123 20.4673 407.192 19.536 406.503 18.348C405.828 17.16 405.491 15.8107 405.491 14.3ZM428.537 22.198C427.364 22.198 426.308 21.9413 425.369 21.428C424.431 20.9 423.69 20.1593 423.147 19.206C422.619 18.2527 422.355 17.1527 422.355 15.906C422.355 14.6593 422.627 13.5593 423.169 12.606C423.727 11.6527 424.482 10.9193 425.435 10.406C426.389 9.878 427.452 9.614 428.625 9.614C429.799 9.614 430.862 9.878 431.815 10.406C432.769 10.9193 433.517 11.6527 434.059 12.606C434.617 13.5593 434.895 14.6593 434.895 15.906C434.895 17.1527 434.609 18.2527 434.037 19.206C433.48 20.1593 432.717 20.9 431.749 21.428C430.796 21.9413 429.725 22.198 428.537 22.198ZM428.537 19.514C429.095 19.514 429.615 19.382 430.099 19.118C430.598 18.8393 430.994 18.4287 431.287 17.886C431.581 17.3433 431.727 16.6833 431.727 15.906C431.727 14.7473 431.419 13.86 430.803 13.244C430.202 12.6133 429.461 12.298 428.581 12.298C427.701 12.298 426.961 12.6133 426.359 13.244C425.773 13.86 425.479 14.7473 425.479 15.906C425.479 17.0647 425.765 17.9593 426.337 18.59C426.924 19.206 427.657 19.514 428.537 19.514ZM446.571 19.074H440.455L439.443 22H436.209L441.731 6.622L445.317 6.622L450.839 22H447.583L446.571 19.074ZM445.735 16.61L443.513 10.186L441.291 16.61H445.735ZM455.983 5.72V22H452.903V5.72L455.983 5.72ZM460.588 8.36C460.045 8.36 459.59 8.19133 459.224 7.854C458.872 7.502 458.696 7.06933 458.696 6.556C458.696 6.04267 458.872 5.61733 459.224 5.28C459.59 4.928 460.045 4.752 460.588 4.752C461.13 4.752 461.578 4.928 461.93 5.28C462.296 5.61733 462.48 6.04267 462.48 6.556C462.48 7.06933 462.296 7.502 461.93 7.854C461.578 8.19133 461.13 8.36 460.588 8.36ZM462.106 9.812V22H459.026V9.812H462.106ZM480.285 9.636C481.781 9.636 482.983 10.098 483.893 11.022C484.817 11.9313 485.279 13.2073 485.279 14.85V22H482.199V15.268C482.199 14.3147 481.957 13.5887 481.473 13.09C480.989 12.5767 480.329 12.32 479.493 12.32C478.657 12.32 477.989 12.5767 477.491 13.09C477.007 13.5887 476.765 14.3147 476.765 15.268V22H473.685V15.268C473.685 14.3147 473.443 13.5887 472.959 13.09C472.475 12.5767 471.815 12.32 470.979 12.32C470.128 12.32 469.453 12.5767 468.955 13.09C468.471 13.5887 468.229 14.3147 468.229 15.268V22H465.149V9.812H468.229V11.286C468.625 10.7727 469.131 10.3693 469.747 10.076C470.377 9.78267 471.067 9.636 471.815 9.636C472.768 9.636 473.619 9.84133 474.367 10.252C475.115 10.648 475.694 11.22 476.105 11.968C476.501 11.264 477.073 10.6993 477.821 10.274C478.583 9.84867 479.405 9.636 480.285 9.636ZM499.531 15.642C499.531 16.082 499.502 16.478 499.443 16.83H490.533C490.607 17.71 490.915 18.3993 491.457 18.898C492 19.3967 492.667 19.646 493.459 19.646C494.603 19.646 495.417 19.1547 495.901 18.172H499.223C498.871 19.3453 498.197 20.3133 497.199 21.076C496.202 21.824 494.977 22.198 493.525 22.198C492.352 22.198 491.296 21.9413 490.357 21.428C489.433 20.9 488.707 20.1593 488.179 19.206C487.666 18.2527 487.409 17.1527 487.409 15.906C487.409 14.6447 487.666 13.5373 488.179 12.584C488.693 11.6307 489.411 10.8973 490.335 10.384C491.259 9.87067 492.323 9.614 493.525 9.614C494.684 9.614 495.718 9.86333 496.627 10.362C497.551 10.8607 498.263 11.572 498.761 12.496C499.275 13.4053 499.531 14.454 499.531 15.642ZM496.341 14.762C496.327 13.97 496.041 13.3393 495.483 12.87C494.926 12.386 494.244 12.144 493.437 12.144C492.675 12.144 492.029 12.3787 491.501 12.848C490.988 13.3027 490.673 13.9407 490.555 14.762L496.341 14.762ZM508.534 9.636C509.986 9.636 511.159 10.098 512.054 11.022C512.948 11.9313 513.396 13.2073 513.396 14.85V22H510.316V15.268C510.316 14.3 510.074 13.5593 509.59 13.046C509.106 12.518 508.446 12.254 507.61 12.254C506.759 12.254 506.084 12.518 505.586 13.046C505.102 13.5593 504.86 14.3 504.86 15.268V22H501.78V9.812H504.86V11.33C505.27 10.802 505.791 10.3913 506.422 10.098C507.067 9.79 507.771 9.636 508.534 9.636ZM519.911 12.342V18.238C519.911 18.6487 520.006 18.9493 520.197 19.14C520.402 19.316 520.739 19.404 521.209 19.404H522.639V22H520.703C518.107 22 516.809 20.7387 516.809 18.216V12.342H515.357V9.812H516.809V6.798H519.911V9.812H522.639V12.342H519.911ZM526.218 22.154C525.66 22.154 525.198 21.9853 524.832 21.648C524.48 21.296 524.304 20.8633 524.304 20.35C524.304 19.8367 524.48 19.4113 524.832 19.074C525.198 18.722 525.66 18.546 526.218 18.546C526.76 18.546 527.208 18.722 527.56 19.074C527.912 19.4113 528.088 19.8367 528.088 20.35C528.088 20.8633 527.912 21.296 527.56 21.648C527.208 21.9853 526.76 22.154 526.218 22.154ZM538.891 9.13V12.98L544.061 12.98V15.422L538.891 15.422V19.492H544.721V22H535.811V6.622L544.721 6.622V9.13L538.891 9.13ZM546.728 15.884C546.728 14.6667 546.977 13.5887 547.476 12.65C547.989 11.6967 548.678 10.956 549.544 10.428C550.409 9.9 551.362 9.636 552.404 9.636C553.269 9.636 554.032 9.80467 554.692 10.142C555.366 10.4647 555.909 10.8827 556.32 11.396V9.812H559.422V27.808H556.32V20.328C555.909 20.856 555.359 21.296 554.67 21.648C553.98 22 553.203 22.176 552.338 22.176C551.311 22.176 550.365 21.912 549.5 21.384C548.649 20.8413 547.974 20.0933 547.476 19.14C546.977 18.1867 546.728 17.1013 546.728 15.884ZM556.32 15.906C556.32 15.158 556.166 14.5127 555.858 13.97C555.55 13.4273 555.146 13.0167 554.648 12.738C554.164 12.4593 553.643 12.32 553.086 12.32C552.543 12.32 552.022 12.4593 551.524 12.738C551.04 13.0167 550.644 13.4273 550.336 13.97C550.028 14.498 549.874 15.136 549.874 15.884C549.874 16.632 550.028 17.2847 550.336 17.842C550.644 18.3847 551.04 18.7953 551.524 19.074C552.022 19.3527 552.543 19.492 553.086 19.492C553.643 19.492 554.164 19.3527 554.648 19.074C555.146 18.7953 555.55 18.3847 555.858 17.842C556.166 17.2993 556.32 16.654 556.32 15.906ZM573.936 9.812V22H570.834V20.46C570.438 20.988 569.917 21.406 569.272 21.714C568.641 22.0073 567.952 22.154 567.204 22.154C566.251 22.154 565.407 21.956 564.674 21.56C563.941 21.1493 563.361 20.5553 562.936 19.778C562.525 18.986 562.32 18.0473 562.32 16.962V9.812H565.4V16.522C565.4 17.49 565.642 18.238 566.126 18.766C566.61 19.2793 567.27 19.536 568.106 19.536C568.957 19.536 569.624 19.2793 570.108 18.766C570.592 18.238 570.834 17.49 570.834 16.522V9.812L573.936 9.812ZM578.537 8.36C577.994 8.36 577.54 8.19133 577.173 7.854C576.821 7.502 576.645 7.06933 576.645 6.556C576.645 6.04267 576.821 5.61733 577.173 5.28C577.54 4.928 577.994 4.752 578.537 4.752C579.08 4.752 579.527 4.928 579.879 5.28C580.246 5.61733 580.429 6.04267 580.429 6.556C580.429 7.06933 580.246 7.502 579.879 7.854C579.527 8.19133 579.08 8.36 578.537 8.36ZM580.055 9.812V22H576.975V9.812H580.055ZM586.178 11.572C586.574 11.0147 587.117 10.5527 587.806 10.186C588.51 9.80467 589.309 9.614 590.204 9.614C591.245 9.614 592.184 9.87067 593.02 10.384C593.871 10.8973 594.538 11.6307 595.022 12.584C595.521 13.5227 595.77 14.6153 595.77 15.862C595.77 17.1087 595.521 18.216 595.022 19.184C594.538 20.1373 593.871 20.878 593.02 21.406C592.184 21.934 591.245 22.198 590.204 22.198C589.309 22.198 588.517 22.0147 587.828 21.648C587.153 21.2813 586.603 20.8193 586.178 20.262V27.808H583.098V9.812L586.178 9.812V11.572ZM592.624 15.862C592.624 15.1287 592.47 14.498 592.162 13.97C591.869 13.4273 591.473 13.0167 590.974 12.738C590.49 12.4593 589.962 12.32 589.39 12.32C588.833 12.32 588.305 12.4667 587.806 12.76C587.322 13.0387 586.926 13.4493 586.618 13.992C586.325 14.5347 586.178 15.1727 586.178 15.906C586.178 16.6393 586.325 17.2773 586.618 17.82C586.926 18.3627 587.322 18.7807 587.806 19.074C588.305 19.3527 588.833 19.492 589.39 19.492C589.962 19.492 590.49 19.3453 590.974 19.052C591.473 18.7587 591.869 18.3407 592.162 17.798C592.47 17.2553 592.624 16.61 592.624 15.862ZM602.672 22.198C601.675 22.198 600.78 22.022 599.988 21.67C599.196 21.3033 598.565 20.812 598.096 20.196C597.641 19.58 597.392 18.898 597.348 18.15H600.45C600.509 18.6193 600.736 19.008 601.132 19.316C601.543 19.624 602.049 19.778 602.65 19.778C603.237 19.778 603.691 19.6607 604.014 19.426C604.351 19.1913 604.52 18.8907 604.52 18.524C604.52 18.128 604.315 17.8347 603.904 17.644C603.508 17.4387 602.87 17.2187 601.99 16.984C601.081 16.764 600.333 16.5367 599.746 16.302C599.174 16.0673 598.675 15.708 598.25 15.224C597.839 14.74 597.634 14.0873 597.634 13.266C597.634 12.5913 597.825 11.9753 598.206 11.418C598.602 10.8607 599.159 10.4207 599.878 10.098C600.611 9.77533 601.469 9.614 602.452 9.614C603.904 9.614 605.063 9.98067 605.928 10.714C606.793 11.4327 607.27 12.408 607.358 13.64L604.41 13.64C604.366 13.156 604.161 12.7747 603.794 12.496C603.442 12.2027 602.965 12.056 602.364 12.056C601.807 12.056 601.374 12.1587 601.066 12.364C600.773 12.5693 600.626 12.8553 600.626 13.222C600.626 13.6327 600.831 13.948 601.242 14.168C601.653 14.3733 602.291 14.586 603.156 14.806C604.036 15.026 604.762 15.2533 605.334 15.488C605.906 15.7227 606.397 16.0893 606.808 16.588C607.233 17.072 607.453 17.7173 607.468 18.524C607.468 19.228 607.27 19.8587 606.874 20.416C606.493 20.9733 605.935 21.4133 605.202 21.736C604.483 22.044 603.64 22.198 602.672 22.198ZM631.981 6.644V22H628.901V12.012L624.787 22H622.455L618.319 12.012V22H615.239V6.644H618.737L623.621 18.062L628.505 6.644L631.981 6.644ZM636.588 8.36C636.045 8.36 635.59 8.19133 635.224 7.854C634.872 7.502 634.696 7.06933 634.696 6.556C634.696 6.04267 634.872 5.61733 635.224 5.28C635.59 4.928 636.045 4.752 636.588 4.752C637.13 4.752 637.578 4.928 637.93 5.28C638.296 5.61733 638.48 6.04267 638.48 6.556C638.48 7.06933 638.296 7.502 637.93 7.854C637.578 8.19133 637.13 8.36 636.588 8.36ZM638.106 9.812V22H635.026V9.812H638.106ZM647.903 9.636C649.355 9.636 650.528 10.098 651.423 11.022C652.317 11.9313 652.765 13.2073 652.765 14.85V22H649.685V15.268C649.685 14.3 649.443 13.5593 648.959 13.046C648.475 12.518 647.815 12.254 646.979 12.254C646.128 12.254 645.453 12.518 644.955 13.046C644.471 13.5593 644.229 14.3 644.229 15.268V22H641.149V9.812H644.229V11.33C644.639 10.802 645.16 10.3913 645.791 10.098C646.436 9.79 647.14 9.636 647.903 9.636ZM657.256 8.36C656.713 8.36 656.258 8.19133 655.892 7.854C655.54 7.502 655.364 7.06933 655.364 6.556C655.364 6.04267 655.54 5.61733 655.892 5.28C656.258 4.928 656.713 4.752 657.256 4.752C657.798 4.752 658.246 4.928 658.598 5.28C658.964 5.61733 659.148 6.04267 659.148 6.556C659.148 7.06933 658.964 7.502 658.598 7.854C658.246 8.19133 657.798 8.36 657.256 8.36ZM658.774 9.812V22H655.694V9.812H658.774Z" fill="#F9DC0A"/>
<path d="M523.604 578.606H518.6L517.772 581H515.126L519.644 568.418H522.578L527.096 581H524.432L523.604 578.606ZM522.92 576.59L521.102 571.334L519.284 576.59H522.92ZM534.311 570.884C535.499 570.884 536.459 571.262 537.191 572.018C537.923 572.762 538.289 573.806 538.289 575.15V581H535.769V575.492C535.769 574.7 535.571 574.094 535.175 573.674C534.779 573.242 534.239 573.026 533.555 573.026C532.859 573.026 532.307 573.242 531.899 573.674C531.503 574.094 531.305 574.7 531.305 575.492V581H528.785V571.028H531.305V572.27C531.641 571.838 532.067 571.502 532.583 571.262C533.111 571.01 533.687 570.884 534.311 570.884ZM550.225 571.028L544.051 585.716H541.369L543.529 580.748L539.533 571.028H542.359L544.933 577.994L547.543 571.028H550.225Z" fill="white"/>
<path d="M9.46999 312.913L12.62 312.913L12.62 308.683L14.618 308.683L14.618 312.913L17.948 312.913L17.948 308.143L20 308.143L20 315.433L7.41799 315.433L7.41799 308.143L9.46999 308.143L9.46999 312.913ZM14.996 306.501C14 306.501 13.118 306.297 12.35 305.889C11.57 305.469 10.964 304.905 10.532 304.197C10.1 303.489 9.88399 302.709 9.88399 301.857C9.88399 301.149 10.022 300.525 10.298 299.985C10.562 299.433 10.904 298.989 11.324 298.653L10.028 298.653L10.028 296.115L24.752 296.115L24.752 298.653L18.632 298.653C19.064 298.989 19.424 299.439 19.712 300.003C20 300.567 20.144 301.203 20.144 301.911C20.144 302.751 19.928 303.525 19.496 304.233C19.052 304.929 18.44 305.481 17.66 305.889C16.88 306.297 15.992 306.501 14.996 306.501ZM15.014 298.653C14.402 298.653 13.874 298.779 13.43 299.031C12.986 299.283 12.65 299.613 12.422 300.021C12.194 300.417 12.08 300.843 12.08 301.299C12.08 301.743 12.194 302.169 12.422 302.577C12.65 302.973 12.986 303.297 13.43 303.549C13.862 303.801 14.384 303.927 14.996 303.927C15.608 303.927 16.142 303.801 16.598 303.549C17.042 303.297 17.378 302.973 17.606 302.577C17.834 302.169 17.948 301.743 17.948 301.299C17.948 300.843 17.834 300.417 17.606 300.021C17.378 299.613 17.042 299.283 16.598 299.031C16.154 298.779 15.626 298.653 15.014 298.653ZM10.028 284.24L20 284.24L20 286.778L18.74 286.778C19.172 287.102 19.514 287.528 19.766 288.056C20.006 288.572 20.126 289.136 20.126 289.748C20.126 290.528 19.964 291.218 19.64 291.818C19.304 292.418 18.818 292.892 18.182 293.24C17.534 293.576 16.766 293.744 15.878 293.744L10.028 293.744L10.028 291.224L15.518 291.224C16.31 291.224 16.922 291.026 17.354 290.63C17.774 290.234 17.984 289.694 17.984 289.01C17.984 288.314 17.774 287.768 17.354 287.372C16.922 286.976 16.31 286.778 15.518 286.778L10.028 286.778L10.028 284.24ZM8.83999 280.475C8.83999 280.919 8.70199 281.291 8.42599 281.591C8.13799 281.879 7.78399 282.023 7.36399 282.023C6.94399 282.023 6.59599 281.879 6.31999 281.591C6.03199 281.291 5.88799 280.919 5.88799 280.475C5.88799 280.031 6.03199 279.665 6.31999 279.377C6.59599 279.077 6.94399 278.927 7.36399 278.927C7.78399 278.927 8.13799 279.077 8.42599 279.377C8.70199 279.665 8.83999 280.031 8.83999 280.475ZM10.028 279.233L20 279.233L20 281.753L10.028 281.753L10.028 279.233ZM11.468 274.224C11.012 273.9 10.634 273.456 10.334 272.892C10.022 272.316 9.86599 271.662 9.86599 270.93C9.86599 270.078 10.076 269.31 10.496 268.626C10.916 267.93 11.516 267.384 12.296 266.988C13.064 266.58 13.958 266.376 14.978 266.376C15.998 266.376 16.904 266.58 17.696 266.988C18.476 267.384 19.082 267.93 19.514 268.626C19.946 269.31 20.162 270.078 20.162 270.93C20.162 271.662 20.012 272.31 19.712 272.874C19.412 273.426 19.034 273.876 18.578 274.224L24.752 274.224L24.752 276.744L10.028 276.744L10.028 274.224L11.468 274.224ZM14.978 268.95C14.378 268.95 13.862 269.076 13.43 269.328C12.986 269.568 12.65 269.892 12.422 270.3C12.194 270.696 12.08 271.128 12.08 271.596C12.08 272.052 12.2 272.484 12.44 272.892C12.668 273.288 13.004 273.612 13.448 273.864C13.892 274.104 14.414 274.224 15.014 274.224C15.614 274.224 16.136 274.104 16.58 273.864C17.024 273.612 17.366 273.288 17.606 272.892C17.834 272.484 17.948 272.052 17.948 271.596C17.948 271.128 17.828 270.696 17.588 270.3C17.348 269.892 17.006 269.568 16.562 269.328C16.118 269.076 15.59 268.95 14.978 268.95ZM20.162 260.728C20.162 261.544 20.018 262.276 19.73 262.924C19.43 263.572 19.028 264.088 18.524 264.472C18.02 264.844 17.462 265.048 16.85 265.084L16.85 262.546C17.234 262.498 17.552 262.312 17.804 261.988C18.056 261.652 18.182 261.238 18.182 260.746C18.182 260.266 18.086 259.894 17.894 259.63C17.702 259.354 17.456 259.216 17.156 259.216C16.832 259.216 16.592 259.384 16.436 259.72C16.268 260.044 16.088 260.566 15.896 261.286C15.716 262.03 15.53 262.642 15.338 263.122C15.146 263.59 14.852 263.998 14.456 264.346C14.06 264.682 13.526 264.85 12.854 264.85C12.302 264.85 11.798 264.694 11.342 264.382C10.886 264.058 10.526 263.602 10.262 263.014C9.99799 262.414 9.86599 261.712 9.86599 260.908C9.86599 259.72 10.166 258.772 10.766 258.064C11.354 257.356 12.152 256.966 13.16 256.894L13.16 259.306C12.764 259.342 12.452 259.51 12.224 259.81C11.984 260.098 11.864 260.488 11.864 260.98C11.864 261.436 11.948 261.79 12.116 262.042C12.284 262.282 12.518 262.402 12.818 262.402C13.154 262.402 13.412 262.234 13.592 261.898C13.76 261.562 13.934 261.04 14.114 260.332C14.294 259.612 14.48 259.018 14.672 258.55C14.864 258.082 15.164 257.68 15.572 257.344C15.968 256.996 16.496 256.816 17.156 256.804C17.732 256.804 18.248 256.966 18.704 257.29C19.16 257.602 19.52 258.058 19.784 258.658C20.036 259.246 20.162 259.936 20.162 260.728ZM7.43599 236.749L20 236.749L20 239.269L11.828 239.269L20 242.635L20 244.543L11.828 247.927L20 247.927L20 250.447L7.43599 250.447L7.43599 247.585L16.778 243.589L7.43599 239.593L7.43599 236.749ZM8.83999 232.979C8.83999 233.423 8.70199 233.795 8.42599 234.095C8.13799 234.383 7.78399 234.527 7.36399 234.527C6.94399 234.527 6.59599 234.383 6.31999 234.095C6.03199 233.795 5.88799 233.423 5.88799 232.979C5.88799 232.535 6.03199 232.169 6.31999 231.881C6.59599 231.581 6.94399 231.431 7.36399 231.431C7.78399 231.431 8.13799 231.581 8.42599 231.881C8.70199 232.169 8.83999 232.535 8.83999 232.979ZM10.028 231.737L20 231.737L20 234.257L10.028 234.257L10.028 231.737ZM9.88399 223.721C9.88399 222.533 10.262 221.573 11.018 220.841C11.762 220.109 12.806 219.743 14.15 219.743L20 219.743L20 222.263L14.492 222.263C13.7 222.263 13.094 222.461 12.674 222.857C12.242 223.253 12.026 223.793 12.026 224.477C12.026 225.173 12.242 225.725 12.674 226.133C13.094 226.529 13.7 226.727 14.492 226.727L20 226.727L20 229.247L10.028 229.247L10.028 226.727L11.27 226.727C10.838 226.391 10.502 225.965 10.262 225.449C10.01 224.921 9.88399 224.345 9.88399 223.721ZM8.83999 216.069C8.83999 216.513 8.70199 216.885 8.42599 217.185C8.13799 217.473 7.78399 217.617 7.36399 217.617C6.94399 217.617 6.59599 217.473 6.31999 217.185C6.03199 216.885 5.88799 216.513 5.88799 216.069C5.88799 215.625 6.03199 215.259 6.31999 214.971C6.59599 214.671 6.94399 214.521 7.36399 214.521C7.78399 214.521 8.13799 214.671 8.42599 214.971C8.70199 215.259 8.83999 215.625 8.83999 216.069ZM10.028 214.827L20 214.827L20 217.347L10.028 217.347L10.028 214.827Z" fill="white"/>
</svg>
