<svg width="116" height="135" viewBox="0 0 116 135" fill="none" xmlns="http://www.w3.org/2000/svg">
<path d="M37.8424 21C37.9381 19.7247 38.1499 18.4494 38.4983 17.2092L38.676 16.5716L40.2338 18.4845V21H43.0831V18.961L48.2349 17.006L50.6468 21H53.9607L50.5033 15.2753L53.9675 9.52252H61.0325L64.524 15.2613L61.0325 21H64.3532L66.7651 17.027L71.9169 18.982V21H74.7525V18.4845L76.3104 16.5716L76.488 17.2092C76.8296 18.4494 77.0483 19.7177 77.1439 21H79.9863C79.8155 18.3303 79.1801 15.7447 78.0732 13.2853C78.0459 13.2152 78.0254 13.1522 77.9912 13.0961C74.3084 5.12913 66.2663 0 57.5 0C48.7337 0 40.6848 5.12913 37.0088 13.0751C36.961 13.1592 36.9405 13.2152 36.92 13.2713C35.8063 15.7447 35.1708 18.3373 35 21H37.8424ZM65.4601 4.49149L65.7539 4.62462C69.7032 6.43944 72.9897 9.55756 74.9985 13.3974L75.101 13.6006L72.9009 16.3053L67.1477 14.1121L63.4923 8.09309L65.4601 4.4985V4.49149ZM52.7035 3.40541C55.8465 2.62062 59.1808 2.62763 62.317 3.40541L62.7475 3.51752L61.0052 6.69169H54.0153L52.273 3.51051L52.7035 3.3984V3.40541ZM40.0015 13.3974C42.0172 9.54354 45.3105 6.42543 49.2666 4.61061L49.5604 4.47748L51.5282 8.07908L47.8864 14.1331L42.1196 16.3333L39.899 13.6006L40.0015 13.3974Z" fill="white"/>
<path d="M62.8649 83.1258L57.8166 80.0231L52.7684 83.1258C52.7684 83.1258 48.9822 105.857 33.2041 105.857H82.4337C66.6556 105.857 62.8694 83.1258 62.8694 83.1258H62.8649Z" fill="#223CC1" stroke="#F9DC0A" stroke-width="3" stroke-miterlimit="10"/>
<path d="M24.0612 105.857H91.5702C93.092 105.857 94.3267 107.091 94.3267 108.613V125.07H21.3047V108.613C21.3047 107.091 22.5394 105.857 24.0612 105.857Z" fill="#223CC1" stroke="#F9DC0A" stroke-width="3" stroke-miterlimit="10"/>
<path d="M96.326 125.07H19.3082C16.9882 125.07 15.1074 126.951 15.1074 129.271V129.276C15.1074 131.596 16.9882 133.476 19.3082 133.476H96.326C98.6461 133.476 100.527 131.596 100.527 129.276V129.271C100.527 126.951 98.6461 125.07 96.326 125.07Z" fill="#223CC1" stroke="#F9DC0A" stroke-width="3" stroke-miterlimit="10"/>
<path d="M44.2998 78.6315C44.2997 78.6314 44.2977 78.6292 44.2943 78.6248C44.2945 78.625 44.2947 78.6252 44.2949 78.6255C44.2985 78.6295 44.3 78.6315 44.2998 78.6315ZM18.5107 63.9288L18.5103 63.9285C16.1551 61.4852 14.2795 57.1274 12.8727 52.4478C11.485 47.8319 10.6239 43.1531 10.1735 40.2838C10.0843 39.7152 10.5265 39.1962 11.1064 39.1962H28.2286H28.2331C30.0624 39.1962 31.6513 37.9397 32.0712 36.1596C32.6589 33.6803 30.7755 31.3074 28.2331 31.3074H9.45253C7.56395 31.3074 5.71553 31.4709 4.26609 32.2961C2.66652 33.2068 1.81175 34.7547 1.5732 36.8542C1.34435 38.8685 1.65827 41.5258 2.44661 44.9832C3.24152 48.4694 4.55148 52.9013 6.41105 58.52L6.41107 58.52C12.7793 77.759 31.9574 79.2588 39.7661 79.8694L39.8798 79.8783C42.5089 80.0848 44.2221 80.1058 45.2222 79.9163C45.487 79.8661 45.7847 79.7872 46.0646 79.6462C46.3396 79.5077 46.7287 79.2417 46.9549 78.7539C47.1988 78.2281 47.1288 77.7198 46.9967 77.3687C46.8758 77.0478 46.6874 76.8035 46.5501 76.6471C46.2746 76.333 45.9113 76.0484 45.6166 75.8293C45.4222 75.6847 45.1939 75.5232 44.9809 75.3724C44.8672 75.292 44.7579 75.2146 44.6604 75.1446C44.3482 74.9203 44.097 74.7293 43.9128 74.5627C43.8118 74.4714 43.763 74.4154 43.7446 74.3938L43.4466 73.6592L43.4457 73.6572C42.8823 72.2741 41.5822 71.313 40.0726 71.2094L40.0701 71.2093C39.6835 71.1834 39.2982 71.1584 38.9142 71.1335C31.4832 70.6517 24.5541 70.2024 18.5107 63.9288Z" fill="#223CC1" stroke="#F9DC0A" stroke-width="3" stroke-miterlimit="10"/>
<path d="M85.904 38.8956V39.196H87.404H104.526C105.106 39.196 105.548 39.7151 105.459 40.2837C105.009 43.153 104.148 47.8317 102.76 52.4476C101.353 57.1272 99.4775 61.485 97.1222 63.9283L97.1219 63.9286C91.0785 70.2022 84.1493 70.6515 76.7183 71.1333C76.3344 71.1582 75.9491 71.1832 75.5625 71.2091L75.56 71.2092C74.0504 71.3128 72.7503 72.2739 72.1868 73.657L72.186 73.659L71.8879 74.3936C71.8696 74.4152 71.8208 74.4712 71.7198 74.5625C71.5356 74.7291 71.2844 74.9201 70.9722 75.1444C70.8747 75.2145 70.7653 75.2918 70.6516 75.3723C70.4386 75.523 70.2104 75.6846 70.016 75.8291C69.7213 76.0482 69.358 76.3328 69.0825 76.6469C68.9452 76.8033 68.7567 77.0476 68.6359 77.3685C68.5037 77.7196 68.4338 78.2279 68.6776 78.7537C68.9039 79.2415 69.293 79.5075 69.568 79.646C69.8479 79.787 70.1455 79.8659 70.4104 79.9161C71.4105 80.1056 73.1236 80.0846 75.7528 79.8781L75.8665 79.8692C83.6752 79.2586 102.853 77.7588 109.222 58.5198L109.222 58.5197C111.081 52.8999 112.391 48.4672 113.187 44.9804C113.975 41.5225 114.29 38.8649 114.062 36.8505C113.824 34.751 112.97 33.2027 111.371 32.2916C109.921 31.4661 108.073 31.3026 106.185 31.3026H87.404C84.8617 31.3026 82.9784 33.6753 83.5658 36.1545C83.8646 37.4215 84.7556 38.4233 85.904 38.8956ZM71.3377 78.6253C71.3379 78.625 71.3381 78.6248 71.3383 78.6246C71.3316 78.6332 71.3304 78.6335 71.3377 78.6253Z" fill="#223CC1" stroke="#F9DC0A" stroke-width="3" stroke-miterlimit="10"/>
<path d="M89.5279 22H26.1058C23.1214 22 20.7021 24.4193 20.7021 27.4036C20.7021 30.388 23.1214 32.8073 26.1058 32.8073H89.5279C92.5123 32.8073 94.9316 30.388 94.9316 27.4036C94.9316 24.4193 92.5123 22 89.5279 22Z" fill="#223CC1" stroke="#F9DC0A" stroke-width="3" stroke-miterlimit="10"/>
<path d="M87.3234 32.8074H29.396C29.396 32.8074 24.9811 74.2231 52.9333 85.6364C56.4006 87.0533 60.3189 87.0533 63.7861 85.6364C91.7384 74.2231 87.3234 32.8074 87.3234 32.8074Z" fill="#223CC1" stroke="#F9DC0A" stroke-width="3" stroke-miterlimit="10"/>
</svg>
